<svg width="22" height="18" viewBox="0 0 22 18" fill="none" xmlns="http://www.w3.org/2000/svg">
<path d="M1.5 6.15002H20.5M5.3 9.95002H8.15M14.42 16.6H7.58C5.4518 16.6 4.3877 16.6 3.57484 16.1858C2.85982 15.8215 2.27849 15.2402 1.91418 14.5252C1.5 13.7123 1.5 12.6482 1.5 10.52V7.48002C1.5 5.35182 1.5 4.28773 1.91418 3.47486C2.27849 2.75984 2.85982 2.17852 3.57484 1.8142C4.3877 1.40002 5.4518 1.40002 7.58 1.40002H14.42C16.5482 1.40002 17.6123 1.40002 18.4252 1.8142C19.1402 2.17852 19.7215 2.75984 20.0858 3.47486C20.5 4.28773 20.5 5.35182 20.5 7.48002V10.52C20.5 12.6482 20.5 13.7123 20.0858 14.5252C19.7215 15.2402 19.1402 15.8215 18.4252 16.1858C17.6123 16.6 16.5482 16.6 14.42 16.6Z" stroke="black" stroke-width="2" stroke-linecap="round" stroke-linejoin="round"/>
</svg>
