<svg width="24" height="20" viewBox="0 0 24 20" fill="none" xmlns="http://www.w3.org/2000/svg">
<path d="M24 15.5206C24 17.5762 22.3276 19.25 20.2738 19.25H0V4.47936C0 2.42381 1.67237 0.75 3.72616 0.75H24V15.5206Z" fill="white"/>
<path d="M17.3984 11.7326H18.9388C18.9828 11.7326 19.0855 11.7179 19.1295 11.7179C19.4229 11.6592 19.6723 11.3949 19.6723 11.0278C19.6723 10.6754 19.4229 10.4112 19.1295 10.3377C19.0855 10.3231 18.9975 10.3231 18.9388 10.3231H17.3984V11.7326Z" fill="url(#paint0_linear_4049_153770)"/>
<path d="M18.7627 1.99805C17.2957 1.99805 16.0928 3.18733 16.0928 4.67027V7.44527H19.863C19.951 7.44527 20.0537 7.44527 20.127 7.45995C20.9779 7.504 21.6087 7.94448 21.6087 8.70797C21.6087 9.30995 21.1833 9.82384 20.3911 9.92662V9.95598C21.2566 10.0147 21.9168 10.4992 21.9168 11.248C21.9168 12.0556 21.1833 12.5842 20.215 12.5842H16.0781V18.0167H19.995C21.462 18.0167 22.6649 16.8274 22.6649 15.3445V1.99805H18.7627Z" fill="url(#paint1_linear_4049_153770)"/>
<path d="M19.4816 8.88413C19.4816 8.53175 19.2322 8.29683 18.9388 8.25278C18.9094 8.25278 18.8361 8.2381 18.7921 8.2381H17.3984V9.53016H18.7921C18.8361 9.53016 18.9241 9.53016 18.9388 9.51548C19.2322 9.47143 19.4816 9.23651 19.4816 8.88413Z" fill="url(#paint2_linear_4049_153770)"/>
<path d="M4.00491 1.99805C2.53792 1.99805 1.33498 3.18733 1.33498 4.67027V11.2627C2.08315 11.6298 2.86065 11.8647 3.63816 11.8647C4.56237 11.8647 5.06114 11.3068 5.06114 10.5433V7.43059H7.34965V10.5286C7.34965 11.7326 6.60149 12.7163 4.06359 12.7163C2.52325 12.7163 1.32031 12.3786 1.32031 12.3786V18.002H5.23718C6.70418 18.002 7.90711 16.8127 7.90711 15.3298V1.99805H4.00491Z" fill="url(#paint3_linear_4049_153770)"/>
<path d="M11.3838 1.99805C9.9168 1.99805 8.71387 3.18733 8.71387 4.67027V8.16471C9.38868 7.59209 10.5623 7.22503 12.4547 7.31313C13.4669 7.35717 14.5525 7.63614 14.5525 7.63614V8.7667C14.0097 8.48773 13.3642 8.23813 12.528 8.1794C11.0904 8.07662 10.2249 8.78138 10.2249 10.0147C10.2249 11.2627 11.0904 11.9675 12.528 11.85C13.3642 11.7913 14.0097 11.527 14.5525 11.2627V12.3933C14.5525 12.3933 13.4816 12.6723 12.4547 12.7163C10.5623 12.8044 9.38868 12.4373 8.71387 11.8647V18.0314H12.6307C14.0977 18.0314 15.3007 16.8421 15.3007 15.3592V1.99805H11.3838Z" fill="url(#paint4_linear_4049_153770)"/>
<defs>
<linearGradient id="paint0_linear_4049_153770" x1="16.0904" y1="11.0296" x2="22.6826" y2="11.0296" gradientUnits="userSpaceOnUse">
<stop stop-color="#007940"/>
<stop offset="0.2285" stop-color="#00873F"/>
<stop offset="0.7433" stop-color="#40A737"/>
<stop offset="1" stop-color="#5CB531"/>
</linearGradient>
<linearGradient id="paint1_linear_4049_153770" x1="16.0901" y1="10.001" x2="22.6829" y2="10.001" gradientUnits="userSpaceOnUse">
<stop stop-color="#007940"/>
<stop offset="0.2285" stop-color="#00873F"/>
<stop offset="0.7433" stop-color="#40A737"/>
<stop offset="1" stop-color="#5CB531"/>
</linearGradient>
<linearGradient id="paint2_linear_4049_153770" x1="16.0902" y1="8.88229" x2="22.6827" y2="8.88229" gradientUnits="userSpaceOnUse">
<stop stop-color="#007940"/>
<stop offset="0.2285" stop-color="#00873F"/>
<stop offset="0.7433" stop-color="#40A737"/>
<stop offset="1" stop-color="#5CB531"/>
</linearGradient>
<linearGradient id="paint3_linear_4049_153770" x1="1.33188" y1="10.001" x2="8.02621" y2="10.001" gradientUnits="userSpaceOnUse">
<stop stop-color="#1F286F"/>
<stop offset="0.4751" stop-color="#004E94"/>
<stop offset="0.8261" stop-color="#0066B1"/>
<stop offset="1" stop-color="#006FBC"/>
</linearGradient>
<linearGradient id="paint4_linear_4049_153770" x1="8.67594" y1="10.001" x2="15.1777" y2="10.001" gradientUnits="userSpaceOnUse">
<stop stop-color="#6C2C2F"/>
<stop offset="0.1735" stop-color="#882730"/>
<stop offset="0.5731" stop-color="#BE1833"/>
<stop offset="0.8585" stop-color="#DC0436"/>
<stop offset="1" stop-color="#E60039"/>
</linearGradient>
</defs>
</svg>
