<svg width="24" height="16" viewBox="0 0 24 16" fill="none" xmlns="http://www.w3.org/2000/svg">
<g clip-path="url(#clip0_597_23473)">
<path d="M7.392 0.5C5.42724 0.50643 3.54531 1.30111 2.15938 2.70955C0.77346 4.11799 -0.00316952 6.02508 9.72263e-06 8.0121C0.00318896 9.99911 0.785917 11.9037 2.17634 13.3076C3.56676 14.7114 5.45123 15.5 7.416 15.5C9.38077 15.5 11.2652 14.7114 12.6557 13.3076C14.0461 11.9037 14.8288 9.99911 14.832 8.0121C14.8352 6.02508 14.0585 4.11799 12.6726 2.70955C11.2867 1.30111 9.40476 0.50643 7.44 0.5L7.392 0.5Z" fill="#EB001B"/>
<path d="M16.5597 0.5C14.595 0.50643 12.713 1.30111 11.3271 2.70955C9.94118 4.11799 9.16456 6.02508 9.16773 8.0121C9.17091 9.99911 9.95364 11.9037 11.3441 13.3076C12.7345 14.7114 14.619 15.5 16.5837 15.5C18.5485 15.5 20.433 14.7114 21.8234 13.3076C23.2138 11.9037 23.9965 9.99911 23.9997 8.0121C24.0029 6.02508 23.2263 4.11799 21.8403 2.70955C20.4544 1.30111 18.5725 0.50643 16.6077 0.5L16.5597 0.5Z" fill="#F79E1B"/>
<path d="M12.0004 2.10193C11.117 2.80368 10.4027 3.69923 9.91161 4.72097C9.42048 5.7427 9.16528 6.86392 9.16528 7.99999C9.16528 9.13605 9.42048 10.2573 9.91161 11.279C10.4027 12.3007 11.117 13.1963 12.0004 13.898C12.8838 13.1963 13.598 12.3007 14.0891 11.279C14.5802 10.2573 14.8354 9.13605 14.8354 7.99999C14.8354 6.86392 14.5802 5.7427 14.0891 4.72097C13.598 3.69923 12.8838 2.80368 12.0004 2.10193Z" fill="#FF5F00"/>
</g>
<defs>
<clipPath id="clip0_597_23473">
<rect width="24" height="15" fill="white" transform="translate(0 0.5)"/>
</clipPath>
</defs>
</svg>
