<svg xmlns="http://www.w3.org/2000/svg" width="22" height="20" viewBox="0 0 22 20" fill="none">
  <path d="M9.53704 16.9842C8.45679 16.9966 6.04815 17.0027 5.05556 16.9288C3.81482 16.8363 3.07407 16.7623 2.03704 15.6712C1 14.5801 1 13.0637 1 12.2684C1 11.4732 1 7.20128 1 5.99922M1 5.99922C1 4.79715 1 3.09577 2.37037 1.96767C3.48148 1.053 4.61111 1.02451 5.51852 1.02451C8.94444 1.00601 16.0185 0.980123 16.9074 1.02451C18.0185 1.07999 19.4444 1.30191 20.4815 3.02178C20.9815 3.7985 20.9815 5.11153 20.9815 5.51838C20.9815 5.60213 20.9815 5.77504 20.9815 5.99921M1 5.99922L20.9815 5.99921M20.9815 5.99921C20.9815 6.6462 20.9815 7.72028 20.9815 8.31087V5.99921ZM5 9.99376H8" stroke="darkblue" stroke-width="2" stroke-linecap="round" stroke-linejoin="round"/>
  <path d="M17.0185 14.9498V15.0237M14.1667 13.8217V12.1573H15.8333L17 10.9922L18.1667 12.1573H19.8333V13.8217L21 14.9867L19.8333 16.1518V17.8162H18.2037L17.0185 18.9998L15.8333 17.8162H14.1852V16.1888L13 15.0052L14.1667 13.8217Z" stroke="darkblue" stroke-width="1.7" stroke-linecap="round" stroke-linejoin="round"/>
</svg>