<svg width="24" height="16" viewBox="0 0 24 16" fill="none" xmlns="http://www.w3.org/2000/svg">
<path d="M4.70119 0.423218H10.6879C11.5233 0.423218 12.0453 1.113 11.8495 1.95657L9.06063 14.0434C8.86487 14.887 8.02512 15.5768 7.18974 15.5768H1.20307C0.367651 15.5768 -0.154412 14.887 0.0413881 14.0434L2.83022 1.95657C3.02602 1.10862 3.8614 0.423218 4.69677 0.423218H4.70119Z" fill="#D10429"/>
<path d="M10.1644 0.423218H17.0521C17.8874 0.423218 17.5089 1.113 17.3131 1.95657L14.5242 14.0434C14.3284 14.887 14.3893 15.5768 13.5539 15.5768H6.66664C5.82693 15.5768 5.30916 14.887 5.50929 14.0434L8.29825 1.95657C8.49401 1.10862 9.32934 0.423218 10.1691 0.423218H10.1648H10.1644Z" fill="#022E64"/>
<path d="M16.8104 0.423218H22.7975C23.6329 0.423218 24.155 1.113 23.9591 1.95657L21.1703 14.0434C20.9744 14.887 20.1347 15.5768 19.2993 15.5768H13.3127C12.4729 15.5768 11.9552 14.887 12.151 14.0434L14.9399 1.95657C15.1357 1.10862 15.971 0.423218 16.8064 0.423218H16.8108H16.8104Z" fill="#076F74"/>
<path d="M15.8051 11.818H16.3707L16.5317 11.2688H15.9704L15.8051 11.818ZM16.2576 10.3065L16.0618 10.9568C16.0618 10.9568 16.275 10.8469 16.3925 10.8118C16.5099 10.7854 16.684 10.7634 16.684 10.7634L16.8188 10.3109H16.2533L16.2576 10.3065ZM16.5404 9.3751L16.3533 9.99899C16.3533 9.99899 16.5622 9.90229 16.6796 9.87164C16.7971 9.84086 16.9711 9.83208 16.9711 9.83208L17.106 9.37951H16.5448L16.5404 9.3751ZM17.7891 9.3751L17.0582 11.8135H17.254L17.1017 12.3188H16.9059L16.858 12.4726H16.1618L16.2097 12.3188H14.8L14.9393 11.8531H15.0828L15.8226 9.37514L15.9705 8.87427H16.6797L16.6057 9.12468C16.6057 9.12468 16.7927 8.9885 16.9755 8.94011C17.1539 8.89184 18.1807 8.87427 18.1807 8.87427L18.0285 9.37077H17.7848L17.7891 9.3751Z" fill="#FEFEFE"/>
<path d="M18.0792 8.87407H18.8362L18.8449 9.15963C18.8406 9.20794 18.8798 9.22993 18.9711 9.22993H19.1234L18.9842 9.70011H18.5751C18.2227 9.72647 18.0879 9.57271 18.0966 9.40134L18.0835 8.87844L18.0792 8.87407ZM18.1724 11.1108H17.4501L17.5719 10.6934H18.3986L18.516 10.3112H17.7024L17.8416 9.84104H20.1041L19.9649 10.3112H19.2035L19.086 10.6934H19.8474L19.7212 11.1108H18.8989L18.751 11.2866H19.086L19.1686 11.8138C19.1773 11.8665 19.1773 11.9017 19.1947 11.9237C19.2122 11.9412 19.3122 11.95 19.3688 11.95H19.4688L19.3122 12.4641H19.0555C19.0164 12.4641 18.9554 12.4597 18.8728 12.4597C18.7944 12.4509 18.7423 12.407 18.6901 12.3806C18.6422 12.3586 18.5726 12.3015 18.5552 12.2005L18.4768 11.6732L18.1027 12.1917C17.9852 12.3542 17.8243 12.4817 17.5501 12.4817H17.028L17.1672 12.0247H17.3674C17.424 12.0247 17.4762 12.0028 17.5154 11.9808C17.5545 11.9632 17.5893 11.9456 17.6241 11.8886L18.1724 11.1108ZM10.2723 9.96722H12.1823L12.043 10.4286H11.2817L11.1642 10.8195H11.9474L11.8038 11.2941H11.025L10.8335 11.9311C10.8118 12.0014 11.0206 12.0102 11.0946 12.0102L11.4862 11.9575L11.3295 12.4847H10.4506C10.3811 12.4847 10.3288 12.4759 10.2505 12.4584C10.1765 12.4408 10.1417 12.4057 10.1113 12.3573C10.0807 12.3046 10.0285 12.2651 10.0633 12.1508L10.3157 11.3073H9.88062L10.0242 10.824H10.4593L10.5767 10.433H10.1417L10.281 9.97159L10.2723 9.96722ZM11.5919 9.13327H12.3751L12.2315 9.61215H11.1612L11.0437 9.71323C10.9915 9.76158 10.9784 9.744 10.9131 9.77915C10.8523 9.80984 10.7261 9.87135 10.5607 9.87135H10.217L10.3562 9.41004H10.4607C10.5477 9.41004 10.6087 9.40122 10.6391 9.38368C10.6739 9.36174 10.713 9.31339 10.7521 9.23426L10.9479 8.87402H11.7268L11.5919 9.13764V9.13327ZM13.0679 9.92412C13.0679 9.92412 13.2811 9.72647 13.6466 9.66496C13.7293 9.64739 14.2514 9.65609 14.2514 9.65609L14.3297 9.39247H13.2289L13.0679 9.92853L13.0679 9.92412ZM14.1035 10.1262H13.0114L12.9461 10.3503H13.8946C14.0077 10.3371 14.0295 10.3547 14.0382 10.3459L14.1078 10.1262H14.1035ZM12.6851 8.87844H13.3508L13.2551 9.21677C13.2551 9.21677 13.4639 9.04544 13.6118 8.98389C13.7598 8.93116 14.0904 8.87844 14.0904 8.87844L15.1694 8.87407L14.7996 10.1131C14.7387 10.324 14.6647 10.4602 14.6212 10.5261C14.5821 10.5876 14.5342 10.6447 14.4385 10.6974C14.3471 10.7457 14.2644 10.7765 14.1862 10.7809C14.1165 10.7853 14.0034 10.7897 13.8555 10.7897H12.8156L12.5241 11.7694C12.498 11.8661 12.485 11.9144 12.5024 11.9407C12.5154 11.9627 12.5545 11.9891 12.6024 11.9891L13.0592 11.9451L12.9026 12.4812H12.3892C12.2239 12.4812 12.1064 12.4768 12.0237 12.4723C11.9454 12.4636 11.8627 12.4723 11.8062 12.4284C11.7583 12.3845 11.6844 12.3274 11.6887 12.2702C11.6931 12.2175 11.7148 12.1296 11.7496 12.0066L12.6851 8.87844Z" fill="#FEFEFE"/>
<path d="M14.625 10.8502L14.5641 11.1489C14.538 11.2411 14.5162 11.3115 14.4466 11.373C14.3726 11.4345 14.29 11.5004 14.0899 11.5004L13.7201 11.5179L13.7157 11.8519C13.7114 11.9441 13.7375 11.9353 13.7505 11.9528C13.7679 11.9704 13.781 11.9748 13.7984 11.9836L13.9158 11.9748L14.2683 11.9573L14.1203 12.4493H13.7157C13.4329 12.4493 13.2197 12.4405 13.1544 12.3878C13.0848 12.3439 13.0761 12.2911 13.0761 12.1945L13.1022 10.8852H13.7505L13.7418 11.1532H13.8984C13.9506 11.1532 13.9899 11.1488 14.0116 11.1356C14.0333 11.1224 14.0464 11.1004 14.0551 11.0697L14.1203 10.8588H14.6294L14.625 10.8502ZM5.40175 4.29126C5.38001 4.39671 4.96235 6.33427 4.96235 6.33427C4.87094 6.72528 4.80569 7.00652 4.58815 7.18663C4.46198 7.29208 4.31403 7.34039 4.14438 7.34039C3.87025 7.34039 3.71363 7.20421 3.68753 6.94501L3.68315 6.85713C3.68315 6.85713 3.76581 6.33427 3.76581 6.3299C3.76581 6.3299 4.20093 4.56366 4.27926 4.33078C4.28359 4.31762 4.28359 4.30883 4.28359 4.30442C3.43513 4.31325 3.28289 4.30442 3.27419 4.29126C3.26982 4.30883 3.24808 4.41865 3.24808 4.41865L2.80426 6.40903L2.76508 6.57594L2.69116 7.12958C2.69116 7.29212 2.7216 7.4283 2.7869 7.53817C2.99136 7.89844 3.57005 7.95117 3.89636 7.95117C4.3184 7.95117 4.71433 7.85888 4.97971 7.69634C5.44527 7.41952 5.56707 6.98457 5.67151 6.60235L5.72373 6.40461C5.72373 6.40461 6.17188 4.57249 6.2502 4.33524C6.25453 4.32204 6.25453 4.31325 6.25891 4.30888C5.64107 4.31325 5.46267 4.30888 5.40175 4.29567V4.29126ZM7.88362 7.93325C7.58338 7.92884 7.47462 7.92884 7.1222 7.94641L7.10913 7.92005C7.13956 7.78383 7.17438 7.65206 7.20049 7.51584L7.244 7.33131C7.30926 7.04574 7.37018 6.70741 7.37888 6.60638C7.38758 6.54487 7.40495 6.39112 7.23093 6.39112C7.15697 6.39112 7.08302 6.42622 7.00473 6.46137C6.96117 6.61517 6.87851 7.04574 6.835 7.23906C6.74796 7.65206 6.74364 7.70037 6.70449 7.90252L6.67838 7.92884C6.36948 7.92447 6.26071 7.92447 5.90393 7.94204L5.88652 7.91127C5.94744 7.66522 6.00399 7.41918 6.06058 7.17314C6.2085 6.50968 6.24768 6.25489 6.28678 5.91656L6.31726 5.89899C6.66535 5.85068 6.74801 5.83748 7.12653 5.76281L7.15697 5.79796L7.10042 6.00885C7.16567 5.96933 7.2266 5.92976 7.29185 5.89899C7.47024 5.81112 7.66604 5.78475 7.77481 5.78475C7.94013 5.78475 8.12289 5.8331 8.19685 6.02642C8.26648 6.19775 8.22292 6.40865 8.12723 6.82606L8.07938 7.03696C7.98364 7.50268 7.96628 7.58614 7.91402 7.90248L7.87925 7.92884L7.88362 7.93325ZM9.1053 7.93439C8.92258 7.93439 8.8051 7.93002 8.692 7.93439C8.57886 7.93439 8.4701 7.94322 8.3004 7.94759L8.2917 7.93439L8.283 7.91682C8.33084 7.74107 8.35262 7.67956 8.37873 7.61805C8.40047 7.55654 8.42221 7.49503 8.46576 7.31491C8.51794 7.08203 8.55275 6.91949 8.57449 6.77448C8.6006 6.63825 8.61368 6.51969 8.63108 6.38346L8.64412 6.37468L8.65715 6.36152C8.83992 6.33515 8.95306 6.31758 9.07053 6.30001C9.188 6.28243 9.3098 6.26048 9.4969 6.22534L9.5056 6.24291L9.50993 6.26048L9.40558 6.69543C9.37077 6.84044 9.33595 6.98541 9.30551 7.13042C9.24018 7.43797 9.20978 7.55221 9.19674 7.63567C9.17934 7.71475 9.17492 7.75432 9.14882 7.91249L9.13141 7.92564L9.114 7.93885L9.1053 7.93439ZM11.0369 6.85491C11.0239 6.93399 10.9542 7.22838 10.8629 7.35141C10.7976 7.44365 10.7236 7.50079 10.6366 7.50079C10.6105 7.50079 10.4625 7.50079 10.4582 7.27669C10.4582 7.16687 10.48 7.0526 10.5061 6.92962C10.5844 6.57371 10.6801 6.27936 10.9194 6.27936C11.1065 6.27936 11.1196 6.49904 11.0369 6.85491ZM11.8244 6.89005C11.9288 6.42433 11.8462 6.20465 11.7461 6.07284C11.5894 5.87073 11.311 5.80485 11.0239 5.80485C10.8498 5.80485 10.4408 5.82243 10.1189 6.12119C9.88829 6.33646 9.77952 6.63085 9.7186 6.91204C9.65326 7.19761 9.57935 7.71168 10.0492 7.905C10.1928 7.96651 10.4016 7.98404 10.5365 7.98404C10.8803 7.98404 11.2327 7.88743 11.4981 7.60624C11.7025 7.37777 11.7939 7.03506 11.8287 6.89005H11.8244ZM19.1582 7.98657C18.7927 7.98219 18.6883 7.98219 18.3532 7.99977L18.3314 7.97341C18.4228 7.62629 18.5142 7.2748 18.5968 6.92331C18.7012 6.46637 18.7273 6.27306 18.7622 6.00507L18.7882 5.98312C19.1494 5.9304 19.2495 5.91724 19.628 5.84694L19.6367 5.87767C19.5671 6.16765 19.5018 6.45326 19.4322 6.73882C19.293 7.34077 19.2451 7.64832 19.193 7.96466L19.1582 7.99102V7.98657Z" fill="#FEFEFE"/>
<path d="M18.6324 6.91354C18.615 6.98821 18.5454 7.28698 18.4541 7.41C18.3931 7.49787 18.2452 7.55501 18.1626 7.55501C18.1365 7.55501 17.9929 7.55501 17.9842 7.33533C17.9842 7.22547 18.0059 7.11123 18.032 6.98821C18.1103 6.64114 18.2061 6.34674 18.4454 6.34674C18.6324 6.34674 18.7151 6.56201 18.6324 6.91791V6.91354ZM19.3504 6.94869C19.4547 6.48297 19.0284 6.90917 18.9631 6.75537C18.8587 6.5137 18.9239 6.0304 18.5063 5.86786C18.3453 5.80194 17.9668 5.88544 17.6448 6.1842C17.4185 6.39509 17.3054 6.68945 17.2445 6.97064C17.1792 7.25183 17.1053 7.77032 17.5708 7.95044C17.7188 8.01632 17.8536 8.03389 17.9885 8.02511C18.4585 7.99874 18.8152 7.28256 19.0806 7.00137C19.285 6.77732 19.3199 7.08487 19.3504 6.94869ZM13.8871 7.93307C13.5869 7.92866 13.4825 7.92866 13.1301 7.94623L13.117 7.91987C13.1475 7.78365 13.1823 7.65188 13.2127 7.51566L13.2518 7.33112C13.3172 7.04556 13.3824 6.70723 13.3867 6.6062C13.3954 6.54469 13.4128 6.39093 13.2431 6.39093C13.1692 6.39093 13.0909 6.42604 13.0169 6.46119C12.9778 6.61499 12.8907 7.04556 12.8472 7.23888C12.7646 7.65188 12.7558 7.70019 12.7167 7.90234L12.6906 7.92866C12.3817 7.92428 12.2729 7.92428 11.9161 7.94186L11.8987 7.91108C11.9597 7.66504 12.0162 7.419 12.0728 7.17295C12.2208 6.5095 12.2556 6.25471 12.299 5.91638L12.3251 5.8988C12.6732 5.8505 12.7603 5.83729 13.1344 5.76262L13.1649 5.79777L13.1127 6.00867C13.1736 5.96914 13.2389 5.92958 13.2998 5.8988C13.4782 5.81093 13.6739 5.78457 13.7827 5.78457C13.9481 5.78457 14.1264 5.83292 14.2047 6.02624C14.2743 6.19757 14.2265 6.40846 14.1307 6.82588L14.0829 7.03677C13.9828 7.5025 13.9698 7.58595 13.9175 7.9023L13.8828 7.92866L13.8871 7.93307ZM16.4939 4.29545L16.2416 4.29986C15.5889 4.30865 15.3279 4.30424 15.2235 4.29108C15.2148 4.33943 15.1974 4.42289 15.1974 4.42289C15.1974 4.42289 14.9624 5.5125 14.9624 5.51688C14.9624 5.51688 14.4055 7.83671 14.3794 7.94653C14.9493 7.93774 15.1799 7.93774 15.28 7.95094C15.3018 7.84108 15.4323 7.19524 15.4367 7.19524C15.4367 7.19524 15.5498 6.72073 15.5542 6.70315C15.5542 6.70315 15.5889 6.6548 15.6237 6.63285H15.6759C16.1676 6.63285 16.7202 6.63285 17.1553 6.31214C17.4511 6.09246 17.6513 5.76292 17.7427 5.36749C17.7644 5.27083 17.7818 5.1566 17.7818 5.03799C17.7818 4.88419 17.7514 4.73485 17.6643 4.6162C17.4424 4.30424 17.0029 4.29986 16.4939 4.29545ZM16.8202 5.43342C16.768 5.67505 16.6114 5.88157 16.4113 5.97823C16.2459 6.06168 16.0458 6.07047 15.8369 6.07047H15.7021L15.7108 6.01775C15.7108 6.01775 15.9588 4.92813 15.9588 4.93255L15.9674 4.87541L15.9718 4.83147L16.0719 4.8403C16.0719 4.8403 16.5853 4.88419 16.594 4.88419C16.7941 4.96328 16.8811 5.16539 16.8202 5.43342ZM22.1687 5.79777L22.1383 5.76262C21.7684 5.83729 21.6988 5.8505 21.3594 5.89885L21.3334 5.92517C21.3334 5.92958 21.329 5.934 21.329 5.94274V5.93837C21.0766 6.53149 21.0809 6.40409 20.8765 6.86982C20.8765 6.84783 20.8765 6.83467 20.8721 6.81268L20.8199 5.80215L20.7895 5.767C20.3979 5.84171 20.3892 5.85487 20.0324 5.90322L20.0063 5.92958C20.0019 5.94274 20.0019 5.95594 20.0019 5.9691L20.0063 5.97352C20.0498 6.20636 20.0411 6.15363 20.0846 6.51833C20.1063 6.69844 20.1325 6.8786 20.1542 7.05435C20.189 7.35311 20.2108 7.49808 20.2543 7.95065C20.0106 8.35482 19.954 8.50862 19.7191 8.86443L19.7322 8.89958C20.0847 8.88647 20.1629 8.88647 20.424 8.88647L20.4806 8.82054C20.6763 8.39442 22.1731 5.80219 22.1731 5.80219L22.1687 5.79777ZM9.44104 6.0888C9.64117 5.94821 9.66724 5.75489 9.49759 5.65386C9.3279 5.55278 9.0277 5.58356 8.82753 5.72415C8.6274 5.86038 8.60566 6.05365 8.77535 6.1591C8.94067 6.2558 9.24087 6.2294 9.44104 6.0888Z" fill="#FEFEFE"/>
<path d="M20.4229 8.87866L20.1313 9.38399C20.0399 9.55532 19.8659 9.68713 19.5962 9.68713L19.1306 9.67834L19.2655 9.2214H19.3569C19.4047 9.2214 19.4395 9.21703 19.4656 9.20383C19.4917 9.19504 19.5049 9.17747 19.5265 9.15111L19.7006 8.87433H20.4272L20.4229 8.87866Z" fill="#FEFEFE"/>
</svg>
