<svg width="24" height="8" viewBox="0 0 24 8" fill="none" xmlns="http://www.w3.org/2000/svg">
<g clip-path="url(#clip0_608_21653)">
<path d="M10.4 7.88459H8.45581L9.67183 0.140381H11.6159L10.4 7.88459Z" fill="#00579F"/>
<path d="M17.4477 0.329702C17.0642 0.173009 16.456 0 15.7039 0C13.784 0 12.432 1.05448 12.4237 2.56206C12.4078 3.67435 13.3917 4.29214 14.1276 4.66302C14.8798 5.04199 15.1355 5.28935 15.1355 5.62716C15.1278 6.14596 14.5277 6.38511 13.9679 6.38511C13.1917 6.38511 12.7758 6.26181 12.1438 5.97318L11.8878 5.84944L11.6157 7.58785C12.0717 7.80181 12.9118 7.99168 13.784 8C15.824 8 17.152 6.96184 17.1678 5.35527C17.1755 4.47369 16.656 3.79819 15.5358 3.24621C14.8559 2.89187 14.4394 2.65294 14.4394 2.29039C14.4474 1.9608 14.7916 1.62321 15.5592 1.62321C16.1913 1.60668 16.6557 1.76315 17.0074 1.91974L17.1833 2.00197L17.4477 0.329702Z" fill="#00579F"/>
<path d="M20.0316 5.14109C20.1917 4.6962 20.8078 2.97433 20.8078 2.97433C20.7997 2.99086 20.9676 2.52122 21.0636 2.23291L21.1995 2.9002C21.1995 2.9002 21.5677 4.75391 21.6476 5.14109C21.3438 5.14109 20.4156 5.14109 20.0316 5.14109ZM22.4315 0.140381H20.9276C20.4639 0.140381 20.1116 0.280321 19.9115 0.782921L17.0237 7.88448H19.0636C19.0636 7.88448 19.3995 6.92867 19.4717 6.72281C19.6955 6.72281 21.6799 6.72281 21.9678 6.72281C22.0236 6.99469 22.1998 7.88448 22.1998 7.88448H23.9999L22.4315 0.140381Z" fill="#00579F"/>
<path d="M6.83196 0.140381L4.92798 5.42119L4.71992 4.35018C4.36792 3.11438 3.26395 1.7717 2.03198 1.10408L3.77596 7.87638H5.83187L8.88776 0.140381H6.83196Z" fill="#00579F"/>
<path d="M3.15998 0.140381H0.0320004L0 0.296855C2.44002 0.939505 4.05599 2.48859 4.71993 4.35051L4.03994 0.791353C3.92799 0.296745 3.58396 0.156696 3.15998 0.140381Z" fill="#FAA61A"/>
</g>
<defs>
<clipPath id="clip0_608_21653">
<rect width="24" height="8" fill="white"/>
</clipPath>
</defs>
</svg>
