<svg xmlns="http://www.w3.org/2000/svg" width="20" height="21" viewBox="0 0 20 21" fill="none">
  <path
    d="M1.7184 9.66044C1.6669 9.85294 1.66803 10.0202 1.66797 10.2008C1.66797 10.6681 1.66797 11.7196 1.66797 12.1869C1.66797 12.7711 1.69711 13.399 1.8865 14.3045C2.07589 15.2099 2.99373 16.203 3.78044 16.6411C4.56715 17.0792 5.5724 17.1668 6.09687 17.1668C6.62135 17.1668 12.6674 17.1668 13.6581 17.1668C15.1878 17.1668 16.1348 16.904 17.1837 15.8963C17.6353 15.4624 18.154 14.5965 18.2472 13.6035C18.2897 13.1508 18.3346 12.5871 18.3346 11.9679C18.3346 11.4859 18.3346 10.4461 18.3346 10.1424C18.3346 9.95498 18.3169 9.7996 18.2814 9.66044M1.7184 9.66044C1.75018 9.54166 1.802 9.41325 1.8865 9.26614L4.20293 5.26468C4.78568 4.33003 5.77636 3.8335 7.00014 3.8335C7.39641 3.8335 11.3222 3.8335 13.2356 3.8335C14.4739 3.8335 15.372 4.5929 15.8871 5.39611C16.1493 5.80502 17.9704 9.01787 18.1161 9.26614C18.1899 9.39188 18.245 9.51762 18.2814 9.66044M1.7184 9.66044C2.95451 9.66044 5.51121 9.66044 5.8492 9.66044C6.38825 9.66044 6.66506 10.0693 6.66506 10.4783C6.66506 11.1208 6.97391 11.9124 7.56832 12.3914C8.04909 12.7788 8.57356 12.9901 9.12718 12.9901C9.57395 12.9901 10.5491 12.9901 10.8754 12.9901C11.4582 12.9901 12.0701 12.7565 12.6382 12.2161C13.1627 11.6612 13.3375 10.9222 13.3375 10.5367C13.3375 10.0401 13.6289 9.66044 14.2117 9.66044H18.2814M7.91797 7.16683H12.0846"
    stroke="white" stroke-width="1.7" stroke-linecap="round" />
</svg>