<svg width="20" height="20" viewBox="0 0 20 20" fill="none" xmlns="http://www.w3.org/2000/svg">
<path d="M6.81019 2.0835V3.76798M6.81019 5.25016V3.76798M13.1065 2.0835V3.76798M13.1065 5.25016V3.76798M17.0099 8.41683C17.0417 9.04051 17.0417 9.8065 17.0417 10.7918C17.0417 13.0051 17.0417 14.1117 16.6822 14.9846C16.2029 16.1485 15.2836 17.0732 14.1266 17.5553C13.2588 17.9168 12.1586 17.9168 9.95833 17.9168C7.75805 17.9168 6.65791 17.9168 5.79011 17.5553C4.63303 17.0732 3.71373 16.1485 3.23446 14.9846C2.875 14.1117 2.875 13.0051 2.875 10.7918C2.875 9.8065 2.875 9.04051 2.90672 8.41683M17.0099 8.41683C16.9704 7.6396 16.8816 7.08338 16.6822 6.59908C16.2029 5.4352 15.2836 4.5105 14.1266 4.0284C13.8263 3.90331 13.4983 3.82149 13.1065 3.76798M17.0099 8.41683H2.90672M2.90672 8.41683C2.94625 7.6396 3.03503 7.08338 3.23446 6.59908C3.71373 5.4352 4.63303 4.5105 5.79011 4.0284C6.09034 3.90331 6.41839 3.82149 6.81019 3.76798M6.81019 3.76798C7.55083 3.66683 8.51929 3.66683 9.95833 3.66683C11.3974 3.66683 12.3658 3.66683 13.1065 3.76798" stroke="black" stroke-width="1.7" stroke-linecap="round" stroke-linejoin="round"/>
</svg>
