<svg xmlns="http://www.w3.org/2000/svg" width="24" height="24" viewBox="0 0 24 24" fill="none">
    <path fill-rule="evenodd" clip-rule="evenodd"
        d="M21.5 11.999C21.5 17.2457 17.2467 21.499 12 21.499C6.75329 21.499 2.5 17.2457 2.5 11.999C2.5 6.75232 6.75329 2.49902 12 2.49902C17.2467 2.49902 21.5 6.75232 21.5 11.999Z"
        stroke="#3AB036" stroke-width="2" />
    <path fill-rule="evenodd" clip-rule="evenodd"
        d="M16.5711 10.4561C16.9616 10.0656 16.9616 9.43244 16.5711 9.04192C16.1806 8.65139 15.5474 8.65139 15.1569 9.04192L10.864 13.3348L8.84383 11.3146C8.4533 10.9241 7.82014 10.9241 7.42961 11.3146C7.03909 11.7052 7.03909 12.3383 7.42961 12.7289L10.1569 15.4561C10.3444 15.6437 10.5988 15.749 10.864 15.749C11.1292 15.749 11.3836 15.6437 11.5711 15.4561L16.5711 10.4561Z"
        fill="#3AB036" />
</svg>