<svg xmlns="http://www.w3.org/2000/svg" width="24" height="24" viewBox="0 0 24 24" fill="none">
<path fill-rule="evenodd" clip-rule="evenodd" d="M21.5 12C21.5 17.2467 17.2467 21.5 12 21.5C6.75329 21.5 2.5 17.2467 2.5 12C2.5 6.75329 6.75329 2.5 12 2.5C17.2467 2.5 21.5 6.75329 21.5 12ZM16.5707 10.4571C16.9613 10.0666 16.9613 9.43342 16.5707 9.04289C16.1802 8.65237 15.5471 8.65237 15.1565 9.04289L10.8636 13.3358L8.84347 11.3156C8.45295 10.9251 7.81978 10.9251 7.42926 11.3156C7.03873 11.7061 7.03873 12.3393 7.42926 12.7298L10.1565 15.4571C10.3441 15.6446 10.5984 15.75 10.8636 15.75C11.1289 15.75 11.3832 15.6446 11.5707 15.4571L16.5707 10.4571Z" fill="#53C94F"/>
</svg>