<svg width="20" height="20" viewBox="0 0 20 20" fill="none" xmlns="http://www.w3.org/2000/svg">
    <path fill-rule="evenodd" clip-rule="evenodd" d="M17.9168 9.99992C17.9168 14.3722 14.3724 17.9166 10.0002 17.9166C5.62791 17.9166 2.0835 14.3722 2.0835 9.99992C2.0835 5.62766 5.62791 2.08325 10.0002 2.08325C14.3724 2.08325 17.9168 5.62766 17.9168 9.99992Z" stroke="black" stroke-opacity="0.8" stroke-width="1.7"/>
    <path fill-rule="evenodd" clip-rule="evenodd" d="M13.8088 8.71434C14.1342 8.3889 14.1342 7.86126 13.8088 7.53583C13.4833 7.21039 12.9557 7.21039 12.6302 7.53583L9.05284 11.1132L7.36937 9.42977C7.04393 9.10433 6.51629 9.10433 6.19086 9.42977C5.86542 9.7552 5.86542 10.2828 6.19086 10.6083L8.46358 12.881C8.61986 13.0373 8.83182 13.1251 9.05284 13.1251C9.27385 13.1251 9.48581 13.0373 9.64209 12.881L13.8088 8.71434Z" fill="black" fill-opacity="0.8"/>
    </svg>
    