<svg width="18" height="18" viewBox="0 0 18 18" fill="none" xmlns="http://www.w3.org/2000/svg">
    <path d="M6.92529 6.92529L9.00575 9.00575M11.0862 11.0862L9.00575 9.00575M9.00575 9.00575L11.0862 6.92529M9.00575 9.00575L6.92529 11.0862M1.82184 11.9598C1.82184 11.7414 1.7069 10.9023 1.66092 10.6264C1.60728 10.2625 1.5 9.7069 1.5 8.93678C1.5 4.99425 4.77586 1.5 8.93678 1.5C13.0402 1.5 16.5 4.7069 16.5 9.06322C16.5 13.3621 12.8678 16.5 9.06322 16.5C7.93678 16.5 6.63793 16.1897 6.02874 16.1897C5.53448 16.1897 3.16437 16.3966 2.74138 16.3966C2.14368 16.3966 1.60345 16.0402 1.60345 15.2586C1.60345 14.4195 1.82184 12.6149 1.82184 11.9598Z" stroke="black" stroke-opacity="0.8" stroke-width="1.7" stroke-linecap="round" stroke-linejoin="round"/>
</svg>
