<svg width="16" height="16" viewBox="0 0 16 16" fill="none" xmlns="http://www.w3.org/2000/svg">
<path fill-rule="evenodd" clip-rule="evenodd" d="M8.00065 14.6668C11.6825 14.6668 14.6673 11.682 14.6673 8.0001C14.6673 4.3182 11.6825 1.33344 8.00065 1.33344C4.31875 1.33344 1.33398 4.3182 1.33398 8.0001C1.33398 11.682 4.31875 14.6668 8.00065 14.6668ZM8.60059 4.33344C8.60059 4.00206 8.33196 3.73344 8.00059 3.73344C7.66922 3.73344 7.40059 4.00206 7.40059 4.33344V4.46677H7.32281C6.19916 4.46677 5.36726 5.43743 5.36726 6.53343C5.36726 7.62944 6.19916 8.6001 7.32281 8.6001H7.40059V10.3334H7.28011C6.9622 10.3334 6.64582 10.0933 6.55097 9.69458C6.47428 9.3722 6.15078 9.17304 5.8284 9.24972C5.50603 9.32641 5.30686 9.64992 5.38354 9.97229C5.58965 10.8387 6.33475 11.5334 7.28011 11.5334H7.40059V11.6668C7.40059 11.9981 7.66922 12.2668 8.00059 12.2668C8.33196 12.2668 8.60059 11.9981 8.60059 11.6668V11.5334H8.67837C9.80202 11.5334 10.6339 10.5628 10.6339 9.46677C10.6339 8.37076 9.80202 7.4001 8.67837 7.4001H8.60059V5.66677H8.72107C9.03898 5.66677 9.35536 5.90688 9.45021 6.30562C9.5269 6.628 9.8504 6.82717 10.1728 6.75048C10.4952 6.67379 10.6943 6.35029 10.6176 6.02791C10.4115 5.16149 9.66643 4.46677 8.72107 4.46677H8.60059V4.33344ZM7.32281 5.66677H7.40059V7.4001H7.32281C6.94916 7.4001 6.56726 7.05747 6.56726 6.53343C6.56726 6.00941 6.94916 5.66677 7.32281 5.66677ZM8.60059 10.3334V8.6001H8.67837C9.05202 8.6001 9.43392 8.94274 9.43392 9.46677C9.43392 9.9908 9.05202 10.3334 8.67837 10.3334H8.60059Z" fill="white" fill-opacity="0.9"/>
</svg>
