<svg width="25" height="24" viewBox="0 0 25 24" fill="none" xmlns="http://www.w3.org/2000/svg">
    <path
        d="M12.6283 9V12.9883M12.6283 16.3469V16.3994M2.5 16.9592C2.5 16.5219 2.69242 15.5773 3.23469 14.3353C5.01427 10.2595 8.0102 6.14869 9.89942 4.25948C10.6866 3.4723 11.4913 3 12.6283 3C13.7653 3 14.619 3.4828 15.4446 4.36443C18.016 7.11019 20.2901 10.6443 21.9869 14.3353C22.4694 15.3848 22.7391 16.3819 22.7391 16.9417C22.7391 17.7464 22.3927 18.719 21.707 19.3907C21.1472 19.939 20.6609 20.1708 19.4854 20.4227C17.3163 20.8875 14.0837 21 12.6983 21C10.879 21 8.29009 20.9086 5.64869 20.3878C4.6551 20.1918 3.9519 19.8608 3.51458 19.3907C2.81487 18.6385 2.5 17.6939 2.5 16.9592Z"
        stroke="black" stroke-width="2" stroke-linecap="round" />
</svg>