<svg width="16" height="19" viewBox="0 0 16 19" fill="none" xmlns="http://www.w3.org/2000/svg">
    <path d="M11.332 5.00033L10.4107 3.1577C9.95392 2.2441 9.02014 1.66699 7.9987 1.66699C6.97725 1.66699 6.04348 2.2441 5.58668 3.1577L4.66536 5.00033M1.33203 5.00033H14.6654M2.9987 5.00033H12.9987V12.5003C12.9987 14.0535 12.9987 14.83 12.745 15.4426C12.4066 16.2594 11.7577 16.9083 10.941 17.2466C10.3284 17.5003 9.55184 17.5003 7.9987 17.5003C6.44556 17.5003 5.66899 17.5003 5.05642 17.2466C4.23966 16.9083 3.59075 16.2594 3.25243 15.4426C2.9987 14.83 2.9987 14.0535 2.9987 12.5003V5.00033Z" stroke="black" stroke-opacity="0.8" stroke-width="1.7" stroke-linecap="round" stroke-linejoin="round"/>
</svg>
