<svg width="24" height="25" viewBox="0 0 24 25" fill="none" xmlns="http://www.w3.org/2000/svg">
    <path fill-rule="evenodd" clip-rule="evenodd" d="M12 1.5C10.3955 1.5 8.9287 2.40653 8.21115 3.84164L7.38197 5.5H4C3.44772 5.5 3 5.94772 3 6.5C3 7.05229 3.44772 7.5 4 7.5H5L5 15.5355C4.99999 16.4373 4.99999 17.1647 5.04038 17.7567C5.08191 18.3654 5.16948 18.9037 5.3806 19.4134C5.88807 20.6386 6.86144 21.6119 8.08658 22.1194C8.59628 22.3305 9.13456 22.4181 9.74331 22.4596C10.3353 22.5 11.0627 22.5 11.9645 22.5H12.0355C12.9373 22.5 13.6647 22.5 14.2567 22.4596C14.8654 22.4181 15.4037 22.3305 15.9134 22.1194C17.1386 21.6119 18.1119 20.6386 18.6194 19.4134C18.8305 18.9037 18.9181 18.3654 18.9596 17.7567C19 17.1647 19 16.4373 19 15.5355V7.5H20C20.5523 7.5 21 7.05229 21 6.5C21 5.94772 20.5523 5.5 20 5.5H16.618L15.7889 3.84164C15.0713 2.40653 13.6045 1.5 12 1.5ZM10 4.73607L9.61803 5.5H14.382L14 4.73607C13.6212 3.97852 12.847 3.5 12 3.5C11.153 3.5 10.3788 3.97852 10 4.73607Z" fill="white"/>
</svg>
