<svg width="20" height="20" viewBox="0 0 20 20" fill="none" xmlns="http://www.w3.org/2000/svg">
    <path fill-rule="evenodd" clip-rule="evenodd" d="M3.5 10.0325C3.5 9.84214 3.59582 9.43332 3.90095 8.87293C4.19327 8.33608 4.63609 7.73796 5.21788 7.18053C6.38065 6.06645 8.04002 5.16663 10.0859 5.16663C11.7812 5.16663 13.408 5.96317 14.6308 7.04777C15.2373 7.58577 15.7185 8.17269 16.0419 8.72288C16.3743 9.28828 16.4991 9.7434 16.4991 10.0325C16.4991 10.231 16.3956 10.6392 16.0715 11.1993C15.7614 11.7353 15.2969 12.327 14.7033 12.8767C13.5088 13.9828 11.887 14.8356 10.0859 14.8356C8.10255 14.8356 6.43959 13.9511 5.2561 12.8446C4.66515 12.2922 4.21135 11.6997 3.91089 11.1683C3.59618 10.6117 3.5 10.2124 3.5 10.0325ZM10.0859 3.16663C7.42008 3.16663 5.28649 4.34495 3.83423 5.7364C3.10851 6.43174 2.5383 7.19323 2.14447 7.9165C1.76346 8.61623 1.5 9.36804 1.5 10.0325C1.5 10.7073 1.7788 11.4609 2.16987 12.1526C2.57519 12.8695 3.15797 13.621 3.89024 14.3056C5.35319 15.6733 7.48319 16.8356 10.0859 16.8356C12.5254 16.8356 14.6102 15.6887 16.0622 14.3441C16.7918 13.6685 17.3854 12.9221 17.8027 12.2009C18.206 11.5039 18.4991 10.7358 18.4991 10.0325C18.4991 9.25504 18.1978 8.44368 17.766 7.70925C17.3253 6.95962 16.7041 6.21339 15.958 5.55156C14.4754 4.2365 12.3956 3.16663 10.0859 3.16663ZM8.49674 10.0636C8.49674 9.17373 9.13185 8.50713 10.0568 8.50713C10.8723 8.50713 11.5069 9.27835 11.5069 10.0636C11.5069 10.8112 10.7788 11.5104 10.0568 11.5104C9.23605 11.5104 8.49674 10.8696 8.49674 10.0636ZM10.0568 6.50713C7.99764 6.50713 6.49674 8.09904 6.49674 10.0636C6.49674 12.1937 8.36461 13.5104 10.0568 13.5104C11.8478 13.5104 13.5069 11.951 13.5069 10.0636C13.5069 8.43985 12.2254 6.50713 10.0568 6.50713Z" fill="black" fill-opacity="0.4"/>
</svg>
