<svg width="17" height="16" viewBox="0 0 17 16" fill="none" xmlns="http://www.w3.org/2000/svg">
    <path fill-rule="evenodd" clip-rule="evenodd"
        d="M3.25 8.02618C3.25 7.86205 3.33084 7.52643 3.57685 7.07463C3.81324 6.64049 4.17068 6.15791 4.63972 5.70851C5.57716 4.81032 6.91652 4.0835 8.56874 4.0835C9.94033 4.0835 11.2531 4.72756 12.2378 5.60101C12.7265 6.0345 13.1149 6.50802 13.3766 6.95316C13.6451 7.4097 13.7493 7.78271 13.7493 8.02618C13.7493 8.19764 13.6618 8.53316 13.4005 8.98471C13.1497 9.41814 12.7749 9.89533 12.2966 10.3382C11.3346 11.2291 10.0256 11.9187 8.56874 11.9187C6.96656 11.9187 5.62451 11.2041 4.67074 10.3124C4.19444 9.86715 3.82818 9.38923 3.58518 8.95943C3.33151 8.51075 3.25 8.1825 3.25 8.02618ZM8.56874 2.5835C6.45156 2.5835 4.75654 3.51919 3.60197 4.62542C3.025 5.17824 2.57201 5.78335 2.25949 6.35731C1.95657 6.91361 1.75 7.50648 1.75 8.02618C1.75 8.55368 1.96847 9.14767 2.27942 9.69767C2.60106 10.2666 3.06406 10.8638 3.64634 11.4082C4.80971 12.4958 6.50204 13.4187 8.56874 13.4187C10.5044 13.4187 12.1606 12.5085 13.3158 11.4388C13.896 10.9015 14.3677 10.3082 14.6989 9.73591C15.0195 9.18171 15.2493 8.57618 15.2493 8.02618C15.2493 7.41644 15.0127 6.77625 14.6697 6.19294C14.3201 5.59822 13.8266 5.00522 13.2332 4.47885C12.0536 3.43256 10.4011 2.5835 8.56874 2.5835ZM7.2474 8.05111C7.2474 7.31231 7.77712 6.7559 8.54544 6.7559C9.23169 6.7559 9.75553 7.40192 9.75553 8.05111C9.75553 8.67765 9.14974 9.25848 8.54544 9.25848C7.86706 9.25848 7.2474 8.729 7.2474 8.05111ZM8.54544 5.2559C6.92647 5.2559 5.7474 6.50629 5.7474 8.05111C5.7474 9.72207 7.21347 10.7585 8.54544 10.7585C9.95149 10.7585 11.2555 9.53251 11.2555 8.05111C11.2555 6.77303 10.2465 5.2559 8.54544 5.2559Z"
        fill="white" fill-opacity="0.9" />
</svg>