<svg width="20" height="20" viewBox="0 0 20 20" fill="none" xmlns="http://www.w3.org/2000/svg">
<path d="M4.16699 2.5L4.16699 17.5M5.39357 11.2639C6.88074 10.7617 8.51172 10.92 9.87457 11.6988C11.1951 12.4534 12.7695 12.6265 14.2225 12.1767L15.3136 11.839C15.6228 11.7433 15.8337 11.4574 15.8337 11.1337V3.73764C15.8337 2.9964 14.445 3.68194 14.1294 3.77964C12.7415 4.20922 11.2356 4.01683 10.0003 3.25213C8.76503 2.48742 7.25914 2.29503 5.87127 2.72461L4.66604 3.09766C4.36931 3.18951 4.16699 3.46391 4.16699 3.77453V11.2134C4.16699 11.8432 5.1153 11.3578 5.39357 11.2639Z" stroke="white" stroke-width="2.04" stroke-linecap="round" stroke-linejoin="round"/>
</svg>
