<svg xmlns="http://www.w3.org/2000/svg" width="24" height="24" viewBox="0 0 24 24" fill="none">
    <path
        d="M8.99195 14.2517C8.99195 13.521 8.82417 12.9332 8.26132 12.4583C7.83623 12.0996 7.34472 12.0066 6.91962 12.0066C6.43697 12.0066 5.40789 12.0066 5.15283 12.0066C4.66132 12.0066 4.06354 12.0598 3.5056 12.6443C3.20127 12.9631 3.0008 13.4068 3.0008 14.0657C3.0008 15.341 3.0008 18.019 3.0008 18.5292C3.0008 19.1668 2.94767 19.9107 3.70486 20.5483C4.14327 20.907 4.58164 21 5.11301 21C5.29579 21 6.91843 21 8.99195 21M8.99195 14.2517C8.99196 11.4089 8.99197 5.63557 8.99197 5.28487C8.99197 4.84649 8.99197 4.24871 9.45692 3.70406C9.92186 3.15941 10.4931 3 11.0244 3C11.4495 3 12.4326 3 12.8709 3C13.6149 3 14.0078 3.21255 14.3853 3.57122C14.9167 4.07601 14.9964 4.66052 14.9964 5.2583C14.9964 5.65151 14.9964 8.61033 14.9964 10.0406M8.99195 14.2517V21M14.9964 10.0406C14.9964 9.48266 15.1691 9.01771 15.5942 8.57934C16.0193 8.14096 16.5639 7.99483 17.0289 7.99483C17.4008 7.99483 18.3971 7.99483 18.8488 7.99483C19.3802 7.99483 19.8584 8.12079 20.3233 8.49963C20.682 8.79188 21.0008 9.37638 21.0008 10.0406C21.0008 10.7048 21.0008 18.0908 21.0008 18.5823C21.0008 19.0738 21.0008 19.6583 20.5625 20.2428C20.1241 20.8273 19.4864 21 18.9152 21C18.7183 21 17.0803 21 14.9964 21M14.9964 10.0406C14.9964 10.4869 14.9964 17.5328 14.9964 21M14.9964 21C13.1143 21 10.8685 21 8.99195 21"
        stroke="black" stroke-width="2" stroke-linecap="round" />
</svg>