<svg width="18" height="18" viewBox="0 0 18 18" fill="none" xmlns="http://www.w3.org/2000/svg">
<path d="M1.5 8.82865C1.5 10.4104 1.81634 11.0958 1.81634 11.8603C1.81634 12.6248 1.60545 14.1274 1.60545 15.1292C1.60545 15.5931 1.68453 15.8937 1.94815 16.1309C2.53398 16.6582 4.3471 16.21 6.06063 16.21C6.58787 16.21 7.87961 16.5 9.17135 16.5C13.2047 16.5 16.5 12.8357 16.5 9.17135C16.5 4.9007 13.2311 1.5 8.82865 1.5C4.74253 1.5 1.5 5.1116 1.5 8.82865Z" stroke="black" stroke-opacity="0.8" stroke-width="1.7"/>
<path d="M5.80469 8.99988V9.00627M9.00162 8.99988V9.00627M12.1985 8.99988V9.00627" stroke="black" stroke-opacity="0.8" stroke-width="1.7" stroke-linecap="round"/>
</svg>
