<svg width="29" height="28" viewBox="0 0 29 28" fill="none" xmlns="http://www.w3.org/2000/svg">
    <path d="M23 16.5C24.3807 16.5 25.5 15.3807 25.5 14C25.5 12.6193 24.3807 11.5 23 11.5C21.6193 11.5 20.5 12.6193 20.5 14C20.5 15.3807 21.6193 16.5 23 16.5Z" fill="black"/>
    <path d="M17 14C17 15.3807 15.8807 16.5 14.5 16.5C13.1193 16.5 12 15.3807 12 14C12 12.6193 13.1193 11.5 14.5 11.5C15.8807 11.5 17 12.6193 17 14Z" fill="black"/>
    <path d="M8.5 14C8.5 15.3807 7.38071 16.5 6 16.5C4.61929 16.5 3.5 15.3807 3.5 14C3.5 12.6193 4.61929 11.5 6 11.5C7.38071 11.5 8.5 12.6193 8.5 14Z" fill="black"/>
    </svg>
    