<svg xmlns="http://www.w3.org/2000/svg" width="24" height="24" viewBox="0 0 24 24" fill="none">
    <path fill-rule="evenodd" clip-rule="evenodd"
        d="M11.5204 4.10348C11.419 4.1743 11.2916 4.31198 11.0596 4.6622C10.9518 4.82497 10.7672 5.17268 10.542 5.62102C10.4491 5.8061 10.3463 6.01412 10.2457 6.21789C10.1265 6.45932 10.0102 6.6948 9.91654 6.87911C9.70012 7.30524 9.45033 7.77589 9.06202 8.14884C8.63669 8.55735 8.12489 8.78086 7.50246 8.90342C7.33592 8.93621 6.96771 8.98601 6.55082 9.04239L6.55075 9.0424L6.55035 9.04245L6.54962 9.04255C6.41265 9.06108 6.27044 9.08031 6.12841 9.09988C5.5151 9.18441 4.83631 9.28359 4.3162 9.38599C3.98007 9.45217 3.83153 9.57858 3.74896 9.67782C3.64881 9.79817 3.57933 9.96114 3.52104 10.1811C3.47071 10.371 3.49613 10.6762 3.80231 11.0063L3.81139 11.0161L3.81132 11.0162C4.19904 11.4456 4.84145 12.0589 5.39919 12.5914L5.3992 12.5915C5.65234 12.8331 5.88804 13.0582 6.07456 13.2418C6.32512 13.4885 6.51569 13.7695 6.65312 14.0613L14.0235 6.69098C13.7422 6.11002 13.3751 5.42552 12.9909 4.70902L12.9909 4.70899L12.923 4.58241C12.7076 4.1807 12.4209 4 11.9906 4C11.6934 4 11.5846 4.05867 11.5204 4.10348ZM15.5138 5.20065C15.2786 4.743 15.0187 4.25846 14.7637 3.78288L14.6857 3.63743C14.1559 2.64933 13.227 2 11.9906 2C11.381 2 10.8472 2.13436 10.3756 2.46354C9.94132 2.76672 9.63979 3.184 9.39226 3.55764C9.20598 3.83884 8.96772 4.29944 8.7548 4.72335C8.64389 4.94417 8.53995 5.15485 8.44191 5.3536C8.3322 5.57597 8.22987 5.78342 8.13336 5.97344C7.90861 6.41594 7.79075 6.59677 7.67662 6.70639C7.5995 6.78046 7.47405 6.87061 7.11609 6.94109C7.01294 6.9614 6.7518 6.99676 6.37852 7.04731L6.37844 7.04732C6.22252 7.06843 6.04704 7.09219 5.85535 7.11861C5.24318 7.20299 4.51267 7.30891 3.92984 7.42366C3.16304 7.57464 2.6008 7.9308 2.21157 8.39859C1.8399 8.84526 1.67655 9.33376 1.58777 9.66879C1.34453 10.5867 1.6115 11.5822 2.33114 12.3612C2.77108 12.8477 3.52695 13.5697 4.10277 14.1197C4.33087 14.3376 4.53071 14.5285 4.67147 14.667C4.84775 14.8406 4.93597 15.101 4.93673 15.303L4.93666 15.3042C4.93641 15.3085 4.93552 15.3242 4.93233 15.3545C4.92801 15.3956 4.921 15.4494 4.9109 15.5164C4.89587 15.6162 4.8759 15.7328 4.8524 15.8621L1.92156 18.7929C1.53103 19.1834 1.53103 19.8166 1.92156 20.2071C2.31208 20.5976 2.94524 20.5976 3.33577 20.2071L19.2074 4.33552C19.5979 3.945 19.5979 3.31184 19.2074 2.92131C18.8168 2.53079 18.1837 2.53079 17.7931 2.92131L15.5138 5.20065ZM5.24045 21.1176L6.65467 19.7018C6.66777 19.7146 6.68129 19.7272 6.69521 19.7394C6.89603 19.916 7.14819 20 7.33378 20C7.40893 20 7.64909 19.9475 7.88881 19.8426C8.26876 19.6763 8.8159 19.3905 9.38516 19.0932L9.38534 19.0931L9.38542 19.093L9.3855 19.093L9.38556 19.093C9.78579 18.8839 10.1969 18.6691 10.5686 18.4862C11.0636 18.2425 11.4796 18.118 12.0396 18.118C12.6595 18.118 13.2254 18.382 13.4371 18.4862C13.6457 18.5888 13.9856 18.7665 14.3374 18.9505L14.4446 19.0065C14.8439 19.2152 15.2516 19.4276 15.545 19.572C16.2748 19.9312 16.6009 20 16.7455 20C16.8382 20 17.083 19.9311 17.3194 19.7213C17.5423 19.5235 17.6327 19.3125 17.6327 19.1421C17.6327 18.7372 17.5584 18.2443 17.4493 17.6696C17.4209 17.52 17.3896 17.3622 17.3574 17.2002C17.2741 16.7807 17.1853 16.3334 17.1279 15.9285C16.979 14.8779 17.2027 13.9163 17.9293 13.2444C18.5633 12.658 19.3743 11.8684 20.0266 11.2033C20.2895 10.9352 20.3807 10.8086 20.4269 10.7137C20.4596 10.6464 20.4962 10.541 20.5 10.2837C20.4719 10.028 20.3958 9.84666 20.2997 9.72279C20.2063 9.60241 20.0479 9.47533 19.7418 9.39998C19.3682 9.30804 18.6024 9.20534 17.8051 9.09843C17.6411 9.07644 17.4758 9.05427 17.3123 9.03197L19.0857 7.25648C19.5424 7.32381 19.9536 7.39242 20.2197 7.45793C20.9185 7.6299 21.4831 7.9854 21.8799 8.49688C22.2689 8.99827 22.4473 9.5852 22.4966 10.1519L22.5004 10.1952V10.2386C22.5004 10.7204 22.4339 11.1593 22.2258 11.5876C22.0293 11.9922 21.7406 12.312 21.4545 12.6037C20.7816 13.2898 19.9473 14.1023 19.2872 14.7127C19.1788 14.813 19.0218 15.0385 19.1081 15.6479C19.1573 15.995 19.2289 16.355 19.3074 16.7503L19.3075 16.7506L19.3076 16.7515C19.3423 16.9258 19.3783 17.1069 19.4143 17.2968C19.525 17.8804 19.6327 18.5336 19.6327 19.1421C19.6327 20.0333 19.1717 20.7513 18.6471 21.217C18.1359 21.6708 17.437 22 16.7455 22C16.1058 22 15.422 21.7406 14.6617 21.3664C14.3423 21.2092 13.9118 20.9848 13.5182 20.779L13.4196 20.7275C13.0563 20.5376 12.739 20.3717 12.5539 20.2806C12.4805 20.2444 12.3818 20.2002 12.2761 20.166C12.1647 20.13 12.0843 20.118 12.0396 20.118C11.8546 20.118 11.7412 20.1382 11.4519 20.2806C11.1829 20.413 10.8224 20.6005 10.4413 20.7989C9.80602 21.1294 9.11322 21.4899 8.69051 21.6749C8.34199 21.8273 7.80765 22 7.33378 22C6.62617 22 5.82641 21.6923 5.24045 21.1176Z"
        fill="black" />
</svg>