<svg width="28" height="28" viewBox="0 0 28 28" fill="none" xmlns="http://www.w3.org/2000/svg">
<path d="M22.5 16.5C23.8807 16.5 25 15.3807 25 14C25 12.6193 23.8807 11.5 22.5 11.5C21.1193 11.5 20 12.6193 20 14C20 15.3807 21.1193 16.5 22.5 16.5Z" fill="white" fill-opacity="0.7"/>
<path d="M16.5 13.9999C16.5 15.3806 15.3807 16.4999 14 16.4999C12.6193 16.4999 11.5 15.3806 11.5 13.9999C11.5 12.6192 12.6193 11.4999 14 11.4999C15.3807 11.4999 16.5 12.6192 16.5 13.9999Z" fill="white" fill-opacity="0.7"/>
<path d="M8 14C8 15.3807 6.88071 16.5 5.5 16.5C4.11929 16.5 3 15.3807 3 14C3 12.6193 4.11929 11.5 5.5 11.5C6.88071 11.5 8 12.6193 8 14Z" fill="white" fill-opacity="0.7"/>
</svg>
