<svg width="16" height="16" viewBox="0 0 16 16" fill="none" xmlns="http://www.w3.org/2000/svg">
<path d="M0.917969 15.0834L5.21572 10.7856M5.21572 10.7856C3.99537 9.49893 1.55467 6.81416 1.55467 6.36847C1.55467 5.97053 2.90767 4.97568 4.45964 4.97568C5.01675 4.97568 5.49428 5.13485 5.77284 5.13485C6.29016 5.13485 6.58464 4.90405 6.96666 4.29918C7.49445 3.4635 8.25598 2.12642 8.63801 1.55339C8.85024 1.23504 9.23492 0.916687 9.75224 0.916687C10.2696 0.916687 10.4924 1.11566 11.0654 1.59319C12.307 2.62783 14.0739 4.48223 14.6469 5.21444C14.9583 5.61238 15.0846 5.85114 15.0846 6.32867C15.0846 6.84599 14.7344 7.2121 14.1296 7.56229C13.2939 8.0461 12.0603 8.82774 11.5828 9.11425C11.1848 9.35302 10.7741 9.79075 10.8665 10.3081C11.0654 11.4223 11.3042 12.8549 9.95121 14.2875C9.83183 14.4139 9.55327 14.5422 9.23492 14.2875C8.33955 13.5712 6.43607 12.0723 5.21572 10.7856Z" stroke="black" stroke-opacity="0.8" stroke-width="1.7" stroke-linecap="round"/>
</svg>
