<svg width="17" height="20" viewBox="0 0 17 20" fill="none" xmlns="http://www.w3.org/2000/svg">
<path d="M6.81772 2.20778C6.20517 1.91921 5.72225 1.75 5.08488 1.75C3.51138 1.75 2.07731 2.92431 1.75862 4.19813C1.61422 4.77533 1.43994 5.79041 1.43994 7.30308V12.8163C1.43994 14.1101 1.63912 15.5431 1.91797 16.2198C2.36084 17.2946 3.79023 18.25 5.16455 18.25C5.90151 18.25 6.57074 17.9236 7.49492 17.4141C9.74562 16.1732 13.8009 13.4811 14.4064 12.9557C14.9441 12.489 15.3226 12.1993 15.6811 11.4629C15.8749 11.0648 15.9599 10.5274 15.9599 10.01C15.9599 9.25362 15.7807 8.45748 15.2827 7.86037C14.8355 7.32411 14.5723 7.17702 14.5259 7.14385C13.4503 6.18848 8.21196 2.8646 6.81772 2.20778Z" stroke="black" stroke-opacity="0.8" stroke-width="2"/>
</svg>
