<svg xmlns="http://www.w3.org/2000/svg" width="25" height="24" viewBox="0 0 25 24" fill="none">
<path d="M10.8172 4.20778C10.2047 3.91921 9.72176 3.75 9.08439 3.75C7.51089 3.75 6.07682 4.92431 5.75814 6.19813C5.61373 6.77533 5.43945 7.79041 5.43945 9.30308V14.8163C5.43945 16.1101 5.63863 17.5431 5.91748 18.2198C6.36035 19.2946 7.78974 20.25 9.16406 20.25C9.90102 20.25 10.5703 19.9236 11.4944 19.4141C13.7451 18.1732 17.8004 15.4811 18.4059 14.9557C18.9437 14.489 19.3221 14.1993 19.6806 13.4629C19.8744 13.0648 19.9595 12.5274 19.9595 12.01C19.9595 11.2536 19.7802 10.4575 19.2823 9.86037C18.835 9.32411 18.5719 9.17702 18.5254 9.14385C17.4498 8.18848 12.2115 4.8646 10.8172 4.20778Z" stroke="darkblue" stroke-opacity="0.8" stroke-width="2.5"/>
</svg>