<svg xmlns="http://www.w3.org/2000/svg" width="20" height="20" viewBox="0 0 20 20" fill="none">
  <path
    d="M17.1457 11.7657C16.5166 14.8252 13.9129 17.5 10.086 17.5C6.25908 17.5 2.85156 14.4231 2.85156 10.2622C2.85156 6.1014 6.24161 3.04196 10.0685 3.04196C13.144 3.04196 15.3109 4.93007 16.1671 6.41608M16.1671 6.41608C14.8915 6.71329 13.6368 6.73077 12.8819 6.73077M16.1671 6.41608C16.4642 6.34687 16.6913 6.24126 16.6913 5.96154C16.6913 4.54545 16.4222 2.97552 16.2545 2.5M9.99862 7.91958C9.99862 8.7296 9.99862 10.4196 9.99862 10.6993C9.99862 11.049 10.1035 11.2762 10.3132 11.486C10.4809 11.6538 11.1985 12.3718 11.5364 12.7098"
    stroke="white" stroke-width="1.7" stroke-linecap="round" />
</svg>