<svg width="46" height="46" viewBox="0 0 46 46" fill="none" xmlns="http://www.w3.org/2000/svg">
<path d="M13.8922 6.39199H32.1005C34.2299 6.39199 35.963 8.12543 35.963 10.2515V38.1134C35.963 38.7201 35.6041 39.259 35.0414 39.4937C34.8516 39.5716 34.656 39.6084 34.4646 39.6084C34.0779 39.6084 33.6983 39.4582 33.4095 39.1696C33.4094 39.1695 33.4094 39.1695 33.4094 39.1695L25.323 31.0868C24.0379 29.8022 21.9548 29.8022 20.6697 31.0868L12.5839 39.1689C12.5837 39.1691 12.5836 39.1692 12.5834 39.1694C12.5834 39.1694 12.5833 39.1695 12.5833 39.1695C12.1521 39.5995 11.5155 39.7263 10.9516 39.4938C10.3887 39.2592 10.0297 38.7203 10.0297 38.1134V10.2515C10.0297 8.12543 11.7628 6.39199 13.8922 6.39199Z" stroke="black" stroke-opacity="0.4" stroke-width="3.2"/>
</svg>
