<svg width="24" height="24" viewBox="0 0 24 24" stroke="darkblue" fill="darkblue"
  xmlns="http://www.w3.org/2000/svg">
  <path fill-rule="evenodd" clip-rule="evenodd"
    d="M16.0644 17.4841C14.636 18.6329 12.8249 19.3196 10.8546 19.3196C6.24101 19.3196 2.50098 15.5544 2.50098 10.9097C2.50098 6.26501 6.24101 2.49976 10.8546 2.49976C15.4682 2.49976 19.2082 6.26501 19.2082 10.9097C19.2082 12.8322 18.5674 14.604 17.4892 16.0206L21.2195 19.7741C21.5911 20.1483 21.5892 20.7529 21.2151 21.1246L21.1259 21.2221C20.7516 21.594 20.1467 21.5921 19.7749 21.2177L16.0644 17.4841ZM10.8546 17.2771C7.38117 17.2771 4.54297 14.4387 4.54297 10.9097C4.54297 7.38064 7.38117 4.5423 10.8546 4.5423C14.328 4.5423 17.1662 7.38064 17.1662 10.9097C17.1662 12.65 16.4769 14.2218 15.3575 15.3715C14.2084 16.5515 12.6162 17.2771 10.8546 17.2771Z"
    stroke="darkblue" fill="darkblue" />
</svg>
  