<svg xmlns="http://www.w3.org/2000/svg" width="24" height="24" viewBox="0 0 24 24" fill="none">
  <path d="M3.06875 11.6863C3.65698 12.3378 4.82528 13.4155 5.37266 13.9544C5.76481 14.3405 5.93638 14.8713 5.93638 15.3056C5.93638 15.6338 5.71141 16.6568 5.59324 17.3083C5.4952 17.8488 5.39716 18.4665 5.39716 19.0938C5.39716 20.2761 6.45108 21 7.33343 21C7.60793 21 7.99519 20.8874 8.2893 20.7587C8.95106 20.4692 10.2011 19.7815 11.0099 19.3834C11.402 19.1903 11.6667 19.118 12.0393 19.118C12.4118 19.118 12.7991 19.2869 12.9952 19.3834C13.4265 19.5957 14.4902 20.1676 15.103 20.4692C15.8481 20.8359 16.353 21 16.7451 21C17.5294 21 18.6324 20.2038 18.6324 19.1421C18.6324 18.1287 18.2681 16.8499 18.1177 15.7882C18 14.9582 18.1904 14.3646 18.6079 13.9786C19.2549 13.3802 20.0776 12.5791 20.7402 11.9035C21.2892 11.3437 21.5 11.0107 21.5 10.2386C21.4265 9.3941 20.9853 8.67627 19.9804 8.42895C19.3846 8.28232 17.9461 8.11528 16.9412 7.97051C15.8138 7.80808 15.4146 7.29491 15.0049 6.42627C14.6863 5.75067 14.2438 4.93029 13.804 4.10992C13.4314 3.41501 12.8236 3 11.9903 3C11.0834 3 10.7051 3.38606 10.2256 4.10992C9.93145 4.55389 9.37998 5.72654 9.02459 6.42627C8.58342 7.29491 8.2893 7.72922 7.30892 7.92225C6.94127 7.99464 5.2256 8.18767 4.12266 8.40483C3.01973 8.62198 2.70111 9.36997 2.55405 9.92493C2.40699 10.4799 2.55405 11.1314 3.06875 11.6863Z" stroke="darkblue" stroke-width="2"/>
</svg>