<svg width="19" height="18" viewBox="0 0 19 18" fill="none" xmlns="http://www.w3.org/2000/svg">
    <path
        d="M14.9626 10.6074C15.8502 10.6074 16.5698 9.88781 16.5698 9.00021C16.5698 8.11261 15.8502 7.39307 14.9626 7.39307C14.075 7.39307 13.3555 8.11261 13.3555 9.00021C13.3555 9.88781 14.075 10.6074 14.9626 10.6074Z"
        fill="black" />
    <path
        d="M11.1088 8.99972C11.1088 9.88732 10.3893 10.6069 9.50167 10.6069C8.61407 10.6069 7.89453 9.88732 7.89453 8.99972C7.89453 8.11212 8.61407 7.39258 9.50167 7.39258C10.3893 7.39258 11.1088 8.11212 11.1088 8.99972Z"
        fill="black" />
    <path
        d="M5.64397 9.00021C5.64397 9.88781 4.92443 10.6074 4.03683 10.6074C3.14923 10.6074 2.42969 9.88781 2.42969 9.00021C2.42969 8.11261 3.14923 7.39307 4.03683 7.39307C4.92443 7.39307 5.64397 8.11261 5.64397 9.00021Z"
        fill="black" />
</svg>
    