<svg width="35" height="35" viewBox="0 0 35 35" fill="none" xmlns="http://www.w3.org/2000/svg">
    <rect x="2" y="2" width="31" height="31" rx="15.5" fill="black" />
    <rect x="2" y="2" width="31" height="31" rx="15.5" stroke="white" stroke-width="3" />
    <path
        d="M11.4566 17.2845C11.8547 17.7319 12.6453 18.4721 13.0157 18.8422C13.281 19.1074 13.3971 19.472 13.3971 19.7703C13.3971 19.9956 13.2449 20.6983 13.1649 21.1457C13.0986 21.5169 13.0323 21.9412 13.0323 22.3721C13.0323 23.1841 13.7454 23.6812 14.3425 23.6812C14.5283 23.6812 14.7903 23.6039 14.9894 23.5155C15.4372 23.3167 16.283 22.8444 16.8303 22.5709C17.0957 22.4383 17.2748 22.3886 17.5269 22.3886C17.779 22.3886 18.0411 22.5046 18.1738 22.5709C18.4657 22.7168 19.1855 23.1095 19.6001 23.3167C20.1043 23.5686 20.446 23.6812 20.7113 23.6812C21.2421 23.6812 21.9884 23.1344 21.9884 22.4052C21.9884 21.7092 21.742 20.8309 21.6401 20.1017C21.5605 19.5316 21.6893 19.124 21.9718 18.8588C22.4097 18.4478 22.9664 17.8976 23.4148 17.4336C23.7863 17.0492 23.9289 16.8205 23.9289 16.2902C23.8792 15.7102 23.5806 15.2171 22.9006 15.0473C22.4975 14.9466 21.524 14.8318 20.844 14.7324C20.0811 14.6209 19.811 14.2684 19.5338 13.6718C19.3182 13.2078 19.0187 12.6444 18.7211 12.0809C18.469 11.6036 18.0577 11.3186 17.4938 11.3186C16.8801 11.3186 16.6241 11.5838 16.2996 12.0809C16.1006 12.3858 15.7274 13.1912 15.4869 13.6718C15.1884 14.2684 14.9894 14.5667 14.3259 14.6993C14.0771 14.749 12.9162 14.8816 12.1698 15.0307C11.4235 15.1799 11.2079 15.6936 11.1084 16.0747C11.0088 16.4559 11.1084 16.9033 11.4566 17.2845Z"
        fill="white" />
</svg>
    