<svg width="20" height="20" viewBox="0 0 20 20" fill="none" xmlns="http://www.w3.org/2000/svg">
<path d="M17.6094 8.34461C17.264 8.0095 16.9179 7.67189 16.5711 7.33179C16.5614 6.86073 16.5491 6.38988 16.5344 5.91926C16.5149 5.28889 16.2418 4.68752 15.7767 4.22037C15.3115 3.75322 14.7082 3.4825 14.0785 3.46263C13.6078 3.44808 13.1371 3.43592 12.6664 3.42615C12.327 3.07996 11.9906 2.73421 11.657 2.3889C11.2055 1.92565 10.621 1.66667 9.99919 1.66699C9.37733 1.66732 8.79253 1.92761 8.34393 2.3889C8.00868 2.73486 7.67115 3.08137 7.33134 3.42843C6.86064 3.43798 6.39005 3.45014 5.91956 3.46491C4.62318 3.50922 3.50754 4.62563 3.46333 5.92121C3.44881 6.39227 3.43657 6.86312 3.4266 7.33374C3.07986 7.67363 2.73377 8.01113 2.38832 8.34623C1.92705 8.79547 1.66797 9.38185 1.66797 10.0008C1.66797 10.6198 1.92542 11.2062 2.38832 11.657C2.73377 11.9919 3.08051 12.3291 3.42855 12.6685C3.43787 13.1396 3.45 13.6108 3.46496 14.082C3.48479 14.7134 3.75752 15.3131 4.22237 15.7809C4.68722 16.2487 5.29022 16.5188 5.92086 16.5383C6.39156 16.5533 6.86226 16.5656 7.33296 16.5752C7.67234 16.9211 8.00944 17.2667 8.34426 17.6118C8.79383 18.075 9.37896 18.334 10.0021 18.3337C10.6253 18.3333 11.2088 18.075 11.66 17.6121C11.9948 17.2663 12.332 16.9201 12.6716 16.5735C13.1423 16.5638 13.6129 16.5515 14.0834 16.5367C15.3794 16.4927 16.4951 15.3763 16.5393 14.0804C16.554 13.6098 16.5661 13.1392 16.5757 12.6685C16.9224 12.3284 17.2686 11.9908 17.6143 11.6557C18.0756 11.2068 18.3346 10.6211 18.3346 9.99984C18.3346 9.3786 18.0713 8.79547 17.6094 8.34461Z" fill="#1D77FF"/>
<path d="M6.95703 9.57043L9.27262 11.8751L13.0404 8.12512" stroke="white" stroke-width="1.66667" stroke-linecap="round" stroke-linejoin="round"/>
</svg>
