<svg xmlns="http://www.w3.org/2000/svg" width="24" height="24" viewBox="0 0 24 24" fill="none">
<path d="M3 9.72C3 6.00864 6.00865 3 9.72 3H14.28C17.9914 3 21 6.00865 21 9.72V14.28C21 17.9914 17.9914 21 14.28 21H9.72C6.00864 21 3 17.9914 3 14.28V9.72Z" stroke="darkblue" stroke-opacity="0.8" stroke-width="2.5"/>
<path d="M14.1686 11.1373C14.8566 11.5243 15.2006 11.7178 15.2006 11.9996C15.2006 12.2814 14.8566 12.4749 14.1686 12.8619L11.4044 14.4168C10.6401 14.8467 10.2579 15.0617 9.96684 14.9165C9.67578 14.7713 9.67578 14.3657 9.67578 13.5545L9.67578 10.4448C9.67578 9.63356 9.67578 9.22795 9.96684 9.08276C10.2579 8.93757 10.6401 9.15255 11.4044 9.58249L14.1686 11.1373Z" fill="black" fill-opacity="0.8"/>
</svg>
