<svg width="46" height="47" viewBox="0 0 46 47" fill="none" xmlns="http://www.w3.org/2000/svg">
<path d="M5.75 19.13C5.75 12.0166 11.5166 6.25 18.63 6.25H27.37C34.4834 6.25 40.25 12.0166 40.25 19.13V27.87C40.25 34.9834 34.4834 40.75 27.37 40.75H18.63C11.5166 40.75 5.75 34.9834 5.75 27.87V19.13Z" stroke="darkblue" stroke-opacity="0.4" stroke-width="2.8"/>
<path d="M27.1581 21.8477C28.4768 22.5895 29.1361 22.9604 29.1361 23.5005C29.1361 24.0406 28.4768 24.4114 27.1581 25.1532L21.8601 28.1333C20.3951 28.9574 19.6626 29.3694 19.1047 29.0911C18.5469 28.8128 18.5469 28.0354 18.5469 26.4806L18.5469 20.5203C18.5469 18.9655 18.5469 18.1881 19.1047 17.9098C19.6626 17.6315 20.3951 18.0436 21.8601 18.8676L27.1581 21.8477Z" fill="darkblue" fill-opacity="0.4"/>
</svg>