<svg width="20" height="20" viewBox="0 0 20 20" fill="none" xmlns="http://www.w3.org/2000/svg">
    <path
        d="M15.8339 18.3333V15.8366M15.8339 13.3399V15.8366M15.8339 15.8366H13.3244M15.8339 15.8366H18.3334M18.3234 11.2485C18.3234 10.2607 18.3234 8.33063 18.3234 7.49603M10.1351 16.6721H6.4258C5.66595 16.6721 4.58536 16.6721 3.96629 16.492C3.10646 16.2419 2.53657 15.6815 2.12666 15.0611C1.71674 14.4407 1.66675 13.3499 1.66675 12.9297C1.66675 12.5934 1.66675 9.24052 1.66675 7.6061C1.66675 7.56911 1.66681 7.53242 1.66695 7.49603M1.66695 7.49603C1.67013 6.66619 1.71137 5.99402 1.87671 5.51471C2.10866 4.84226 2.47659 4.41517 2.9165 4.05373C3.58636 3.50337 4.25623 3.33325 5.47599 3.33325C5.87591 3.33325 11.4348 3.33325 14.1642 3.33325C15.164 3.33325 15.9839 3.41664 16.5238 3.7035C17.3336 4.13379 17.8828 4.79423 18.1335 5.57475C18.2234 5.85493 18.3234 6.56541 18.3234 7.18582C18.3234 7.25487 18.3234 7.36114 18.3234 7.49603M1.66695 7.49603H18.3234M4.99608 10.8383H7.49558"
        stroke="black" stroke-opacity="0.8" stroke-width="1.7" stroke-linecap="round" />
</svg>
    