<svg xmlns="http://www.w3.org/2000/svg" width="17" height="17" viewBox="0 0 17 17" fill="none">
  <path fill-rule="evenodd" clip-rule="evenodd" d="M12.9097 4.45315C12.5721 4.45315 12.3329 4.32658 12.2204 4.12969C12.171 4.04337 12.1124 3.92742 12.0475 3.79919C11.9673 3.6406 11.8776 3.46322 11.7843 3.29992C11.5142 2.82737 11.1231 2.47963 10.49 2.35763C9.32234 2.13262 7.63416 2.1513 6.52277 2.35763C5.64922 2.51981 5.34643 3.08038 5.00873 3.70558C4.96575 3.78516 4.92216 3.86586 4.87679 3.94685C4.67984 4.29844 4.45474 4.45315 4.18745 4.45315C2.5274 4.45315 1.41602 5.80327 1.41602 7.22372V11.3022C1.41602 13.1587 2.87911 14.8041 4.919 14.8041H12.0797C13.9508 14.8041 15.5827 13.3274 15.5827 11.3022V7.11122C15.5827 5.59233 14.2181 4.45315 12.9097 4.45315ZM10.6173 9.20758C10.6173 10.3808 9.66586 11.3319 8.49226 11.3319C7.31865 11.3319 6.36726 10.3808 6.36726 9.20758C6.36726 8.03433 7.31865 7.08323 8.49226 7.08323C9.66586 7.08323 10.6173 8.03433 10.6173 9.20758Z" fill="black" fill-opacity="0.6"/>
</svg>