<svg width="46" height="46" viewBox="0 0 46 46" fill="none" xmlns="http://www.w3.org/2000/svg">
    <path
        d="M4.79159 17.5373H41.2083M12.0749 24.8206H17.5374M29.5549 37.5664H16.4449C12.3659 37.5664 10.3263 37.5664 8.76836 36.7726C7.39791 36.0743 6.2837 34.9601 5.58542 33.5897C4.79159 32.0317 4.79159 29.9922 4.79159 25.9131V20.0864C4.79159 16.0074 4.79159 13.9679 5.58542 12.4099C6.2837 11.0394 7.39791 9.92522 8.76836 9.22694C10.3263 8.43311 12.3659 8.43311 16.4449 8.43311H29.5549C33.634 8.43311 35.6735 8.43311 37.2315 9.22694C38.6019 9.92522 39.7161 11.0394 40.4144 12.4099C41.2083 13.9679 41.2083 16.0074 41.2083 20.0864V25.9131C41.2083 29.9922 41.2083 32.0317 40.4144 33.5897C39.7161 34.9601 38.6019 36.0743 37.2315 36.7726C35.6735 37.5664 33.634 37.5664 29.5549 37.5664Z"
        stroke="black" stroke-opacity="0.4" stroke-width="3.83333" stroke-linecap="round" />
</svg>
    