<svg xmlns="http://www.w3.org/2000/svg" width="24" height="24" viewBox="0 0 24 24" fill="none">
  <path d="M14.5945 8.87566C14.173 8.24341 13.5955 8.00105 13.0139 8.00105C12.7855 8.00105 12.4306 8.00105 12.0866 8.00105M9.56812 15.1349C9.93693 15.6934 10.5376 15.9989 11.075 15.9989C11.3102 15.9989 11.7011 15.9989 12.076 15.9989M12.076 15.9989C12.3865 15.9989 12.6859 15.9989 12.8769 15.9989C14.3205 15.9989 14.8579 14.8293 14.8579 14.0179C14.8579 13.1644 14.3205 12.0053 12.8453 12.0053C12.4828 12.0053 11.6545 12.0053 11.2857 12.0053C10.0212 12.0053 9.30469 11.0042 9.30469 10.0242C9.30469 8.92835 10.1055 8.00105 11.1698 8.00105C11.3381 8.00105 11.7057 8.00105 12.0866 8.00105M12.076 15.9989V17M12.0866 8.00105V7" stroke="darkblue" stroke-width="2" stroke-linecap="round"/>
  <circle cx="12" cy="12" r="9" stroke="darkblue" stroke-width="2"/>
</svg>