<svg width="20" height="20" viewBox="0 0 20 20" fill="none" xmlns="http://www.w3.org/2000/svg">
    <path d="M7.91504 8.62467C7.40949 8.62467 6.99967 9.03508 6.99967 9.54134C6.99967 10.0476 7.40949 10.458 7.91504 10.458H12.0817C12.5873 10.458 12.9971 10.0476 12.9971 9.54134C12.9971 9.03508 12.5873 8.62467 12.0817 8.62467H7.91504Z" fill="black" fill-opacity="0.8"/>
    <path fill-rule="evenodd" clip-rule="evenodd" d="M9.98568 0.833008C6.61111 0.833008 2.91189 3.7356 2.91189 7.93717V10.2943C2.91189 10.7323 2.82843 10.9987 2.73615 11.1806C2.63873 11.3728 2.50347 11.529 2.29916 11.7343C2.26744 11.7661 2.23344 11.7995 2.19772 11.8345C1.78792 12.2362 1.15234 12.8593 1.15234 14.0265C1.15234 14.7185 1.48371 15.3125 1.90024 15.7163C2.3121 16.1156 2.89697 16.4163 3.534 16.4163H6.35334C6.79183 18.0713 8.39088 19.1663 10.0834 19.1663C10.9934 19.1663 11.913 18.8916 12.6162 18.254C13.1341 17.7844 13.4872 17.1607 13.6439 16.4163H16.4374C17.7278 16.4163 18.819 15.3156 18.819 14.0265C18.819 12.86 18.1882 12.2004 17.7728 11.766C17.7439 11.7357 17.716 11.7065 17.6894 11.6784C17.4752 11.4512 17.3323 11.2837 17.2303 11.0883C17.1367 10.9088 17.0595 10.6686 17.0595 10.2943V7.93717C17.0595 3.75319 13.5744 0.833008 9.98568 0.833008ZM4.74263 7.93717C4.74263 4.87089 7.49509 2.66634 9.98568 2.66634C12.6531 2.66634 15.2287 4.8533 15.2287 7.93717V10.2943C15.2287 10.9513 15.3715 11.4845 15.6077 11.9373C15.8357 12.3742 16.1327 12.6977 16.3583 12.937L16.3601 12.939C16.8306 13.438 16.9883 13.6051 16.9883 14.0265C16.9883 14.3088 16.711 14.583 16.4374 14.583H3.534C3.46722 14.583 3.31895 14.54 3.17362 14.3991C3.03295 14.2627 2.98309 14.1201 2.98309 14.0265C2.98309 13.6431 3.10074 13.5251 3.53469 13.0898L3.59582 13.0285C3.83139 12.7918 4.13602 12.4692 4.36852 12.0107C4.60616 11.542 4.74263 10.9858 4.74263 10.2943V7.93717ZM10.0834 17.333C9.32483 17.333 8.68232 16.9582 8.3375 16.4163H11.7316C11.6398 16.6199 11.519 16.7757 11.3874 16.8949C11.0887 17.1658 10.6398 17.333 10.0834 17.333Z" fill="black" fill-opacity="0.8"/>
</svg>
