<svg width="29" height="28" viewBox="0 0 29 28" fill="none" xmlns="http://www.w3.org/2000/svg">
<path d="M7.94036 7.57794C10.0327 4.53867 13.1484 3.50012 15.6836 3.50012C20.7236 3.50012 25 7.57794 25 12.8165C25 14.023 24.6182 16.1551 24.6182 16.7416C24.6182 17.7801 24.8625 19.5976 24.8625 20.5903C24.8625 21.3234 24.4166 22.0259 23.4269 22.0259C22.984 22.0259 20.8397 21.8641 20.3876 21.8274M4.25964 20.4681C4.25964 20.0558 4 19.3685 4 17.9176C4 15.2449 6.39782 11.9001 10.2924 11.9001C14.1869 11.9001 16.6 15.1532 16.6 18.2078C16.6 21.3234 14.08 24.5001 10.3076 24.5001C9.49818 24.5001 8.29469 24.2252 7.87927 24.2252C7.39055 24.2252 5.71055 24.4085 5.05382 24.4085C4.504 24.4085 4.09164 24.0572 4.09164 23.4463C4.09164 22.423 4.25964 21.0943 4.25964 20.4681Z" stroke="white" stroke-opacity="0.6" stroke-width="2.33333" stroke-linecap="round"/>
</svg>
