<svg width="28" height="28" viewBox="0 0 28 28" fill="none" xmlns="http://www.w3.org/2000/svg">
    <path fill-rule="evenodd" clip-rule="evenodd"
        d="M5.91643 11.0466C3.35239 15.3542 1.79688 20.9267 1.79688 23.0976C1.79688 25.1317 2.73702 26.1915 4.89081 26.1915C8.34372 26.1915 15.2837 23.2754 16.9247 22.072C18.3264 21.7814 18.6341 20.6874 18.6341 19.884C18.6341 16.2431 11.677 9.35437 8.07022 9.35437C7.14716 9.35437 6.2036 9.8159 5.91643 11.0466ZM8.2242 11.6962C8.54898 13.9184 12.7882 18.7729 16.2753 19.7985C15.9744 17.0226 10.6173 12.0893 8.2242 11.6962Z"
        fill="#111111" />
    <circle cx="6.99196" cy="5.81605" r="1.17946" fill="#111111" />
    <circle cx="16.3279" cy="4.6537" r="1.17946" fill="#111111" />
    <circle cx="24.4959" cy="11.662" r="1.17946" fill="#111111" />
    <circle cx="18.6521" cy="13.9868" r="1.17946" fill="#111111" />
    <circle cx="20.9763" cy="22.1917" r="1.17946" fill="#111111" />
    <path
        d="M19.678 16.3457C18.9771 16.4483 18.6523 17.0637 18.6523 17.4739C18.6523 18.1166 19.1652 18.6534 19.7634 18.6534C19.9822 18.6534 20.5668 18.5679 21.0113 18.5679C22.9086 18.5679 23.9343 19.3371 24.6522 20.4311C24.9394 20.8687 25.353 20.9952 25.6778 20.9952C26.6009 20.9952 27.0845 19.9354 26.6692 19.2345C25.3017 16.9269 22.8232 16.2432 21.1822 16.2432C20.9942 16.2432 20.3788 16.2432 19.678 16.3457Z"
        fill="#111111" />
    <path
        d="M15.0777 10.6194C14.7632 11.016 14.582 11.2689 14.582 11.6792C14.582 12.2809 15.0607 12.8243 15.7778 12.8243C16.1414 12.8184 16.4964 12.6158 16.6674 12.38C18.7016 9.57668 21.9152 7.50282 25.9664 6.19215C26.4313 6.04172 26.821 5.64515 26.821 5.08106C26.821 4.55116 26.3766 3.9187 25.71 3.9187C25.4706 3.9187 25.2313 4.00216 24.992 4.07254C23.2485 4.58535 18.5348 6.26052 15.0777 10.6194Z"
        fill="#111111" />
    <path
        d="M11.0427 1.16663C10.4787 1.16663 9.86328 1.64525 9.86328 2.34608C9.86328 2.67428 10.1178 3.04692 10.2906 3.26914C10.865 4.00758 11.4188 5.33746 11.4188 6.46564C11.4188 6.78016 11.4103 7.20066 11.3333 7.66219C11.265 8.07243 11.0769 8.38012 11.0769 8.84164C11.1795 9.86726 12.4533 10.2283 13.0427 9.61085C13.4017 9.2348 13.7435 8.10662 13.7435 6.67076C13.7435 4.82465 13.1111 3.11871 12.0171 1.69653C11.7436 1.34098 11.4017 1.16663 11.0427 1.16663Z"
        fill="#111111" />
</svg>