<svg width="26" height="27" viewBox="0 0 26 27" fill="none" xmlns="http://www.w3.org/2000/svg">
    <path fill-rule="evenodd" clip-rule="evenodd"
        d="M4.33317 13.5424C4.33317 13.2436 4.47589 12.675 4.88079 11.9314C5.2718 11.2133 5.86127 10.4181 6.63319 9.67845C8.17615 8.2001 10.3847 7.00016 13.1115 7.00016C15.382 7.00016 17.5459 8.06527 19.1637 9.50023C19.9673 10.213 20.6079 10.9933 21.0411 11.7302C21.484 12.4835 21.6653 13.1137 21.6653 13.5424C21.6653 13.8552 21.5103 14.4248 21.0804 15.1679C20.6656 15.8847 20.0478 16.6706 19.2613 17.3989C17.6806 18.8627 15.5221 20.0032 13.1115 20.0032C10.4661 20.0032 8.25361 18.8232 6.6848 17.3565C5.90126 16.624 5.29734 15.8366 4.89538 15.1256C4.47799 14.3874 4.33317 13.83 4.33317 13.5424ZM13.1115 4.8335C9.7131 4.8335 6.9908 6.33515 5.13423 8.11399C4.20638 9.00298 3.47891 9.97523 2.97793 10.8953C2.49084 11.7898 2.1665 12.73 2.1665 13.5424C2.1665 14.3661 2.50915 15.3074 3.00928 16.192C3.52484 17.1038 4.26848 18.0636 5.20512 18.9392C7.07668 20.689 9.79508 22.1698 13.1115 22.1698C16.2137 22.1698 18.8738 20.7107 20.7334 18.9886C21.6672 18.124 22.425 17.1704 22.9558 16.2529C23.4715 15.3616 23.832 14.402 23.832 13.5424C23.832 12.5847 23.4595 11.5685 22.9089 10.6321C22.3487 9.67913 21.5563 8.7263 20.6014 7.87933C18.7022 6.19472 16.0476 4.8335 13.1115 4.8335ZM10.8289 13.5829C10.8289 12.3096 11.7484 11.3428 13.0737 11.3428C14.2804 11.3428 15.1755 12.4712 15.1755 13.5829C15.1755 14.6782 14.128 15.6803 13.0737 15.6803C11.9123 15.6803 10.8289 14.7741 10.8289 13.5829ZM13.0737 9.17609C10.5196 9.17609 8.66227 11.1453 8.66227 13.5829C8.66227 16.2085 10.9682 17.847 13.0737 17.847C15.2861 17.847 17.3422 15.913 17.3422 13.5829C17.3422 11.5628 15.7463 9.17609 13.0737 9.17609Z"
        fill="black" />
</svg>
    