<svg width="20" height="20" viewBox="0 0 20 20" fill="none" xmlns="http://www.w3.org/2000/svg">
    <path
        d="M4.16797 2.5L4.16797 17.5M5.39455 11.2639C6.88172 10.7617 8.5127 10.92 9.87555 11.6988C11.1961 12.4534 12.7705 12.6265 14.2235 12.1767L15.3146 11.839C15.6238 11.7433 15.8346 11.4574 15.8346 11.1337V3.73764C15.8346 2.9964 14.446 3.68194 14.1304 3.77964C12.7425 4.20922 11.2366 4.01683 10.0013 3.25213C8.76601 2.48742 7.26012 2.29503 5.87225 2.72461L4.66701 3.09766C4.37028 3.18951 4.16797 3.46391 4.16797 3.77453V11.2134C4.16797 11.8432 5.11628 11.3578 5.39455 11.2639Z"
        stroke="black" stroke-opacity="0.8" stroke-width="1.7" stroke-linecap="round"
        stroke-linejoin="round" />
</svg>
    