<svg width="26" height="27" viewBox="0 0 26 27" fill="none" xmlns="http://www.w3.org/2000/svg">
    <path d="M23.2918 10.3659C23.2918 12.1169 22.6946 13.9475 21.6794 15.5592C20.9628 16.6894 20.2063 17.619 19.5494 18.3052C17.3398 20.6133 13.7606 22.7623 12.9803 22.7623C12.1999 22.7623 8.77998 20.6531 6.45092 18.3052C5.06284 16.9058 2.7085 13.8878 2.7085 10.346C2.7085 6.80414 5.63475 4.2373 8.5411 4.2373C10.1137 4.2373 11.8058 4.91384 12.9826 6.72455C13.1064 6.56587 13.2257 6.41257 13.3386 6.2669C14.2145 5.13669 15.6477 4.2373 17.4592 4.2373C20.3656 4.2373 23.2918 6.82404 23.2918 10.3659Z" stroke="black" stroke-width="2.16667" stroke-linecap="round" stroke-linejoin="round"/>
    </svg>
        