<svg width="24" height="24" viewBox="0 0 24 24" fill="none" xmlns="http://www.w3.org/2000/svg">
  <path
    d="M21 14.6V12.7587C21 11.7418 21 11.2334 20.8813 10.7571C20.7761 10.3349 20.6028 9.93275 20.3681 9.56641C20.1033 9.15314 19.7337 8.80403 18.9944 8.10583L18.9944 8.1058L16.3944 5.65025C14.8479 4.18966 14.0746 3.45937 13.1925 3.18385C12.416 2.94132 11.584 2.94132 10.8075 3.18385C9.92537 3.45937 9.15211 4.18966 7.60561 5.65025L5.00561 8.1058L5.0056 8.10581C4.26632 8.80402 3.89667 9.15313 3.63191 9.56641C3.39721 9.93275 3.22385 10.3349 3.11866 10.7571C3 11.2334 3 11.7418 3 12.7587V14.6C3 16.8402 3 17.9603 3.43597 18.816C3.81947 19.5686 4.43139 20.1805 5.18404 20.564C5.90164 20.9297 6.80525 20.9886 8.39961 20.9982C8.95189 21.0015 9.4 20.5523 9.4 20V15.4572C9.4 14.1714 10.2857 12.8572 12 12.8572C13.7143 12.8572 14.6 14.1714 14.6 15.4572L14.6 20C14.6 20.5523 15.0481 21.0015 15.6004 20.9982C17.1947 20.9886 18.0984 20.9297 18.816 20.564C19.5686 20.1805 20.1805 19.5686 20.564 18.816C21 17.9603 21 16.8402 21 14.6Z"
    stroke="currentColor" stroke-linecap="round"
    stroke-linejoin="round" />
</svg>
  