<svg width="25" height="24" viewBox="0 0 25 24" fill="none" xmlns="http://www.w3.org/2000/svg">
    <path fill-rule="evenodd" clip-rule="evenodd"
        d="M12.5 21.5C17.7467 21.5 22 17.2467 22 12C22 6.75329 17.7467 2.5 12.5 2.5C7.25329 2.5 3 6.75329 3 12C3 17.2467 7.25329 21.5 12.5 21.5ZM13.5 8.5C13.5 7.94772 13.0523 7.5 12.5 7.5C11.9477 7.5 11.5 7.94772 11.5 8.5V8.53214C11.5 9.08443 11.9477 9.53214 12.5 9.53214C13.0523 9.53214 13.5 9.08443 13.5 8.53214V8.5ZM13.5 12C13.5 11.4477 13.0523 11 12.5 11C11.9477 11 11.5 11.4477 11.5 12V16C11.5 16.5523 11.9477 17 12.5 17C13.0523 17 13.5 16.5523 13.5 16V12Z"
        fill="#DBA400" />
</svg>
    