<svg width="63" height="62" viewBox="0 0 63 62" fill="none" xmlns="http://www.w3.org/2000/svg">
    <g opacity="0.64">
        <path
            d="M31.4987 43.9167V38.75M31.4987 38.75C32.8239 38.75 33.8982 37.5934 33.8982 36.1667C33.8982 34.7399 32.8239 33.5833 31.4987 33.5833C30.1735 33.5833 29.0992 34.7399 29.0992 36.1667C29.0992 37.5934 30.1735 38.75 31.4987 38.75ZM45.8957 23.8665V23.25C45.8957 14.6896 39.45 7.75 31.4987 7.75C23.5474 7.75 17.1017 14.6896 17.1017 23.25V23.8665M45.8957 23.8665C44.1236 23.25 41.7426 23.25 37.4476 23.25H25.5498C21.2548 23.25 18.8738 23.25 17.1017 23.8665M45.8957 23.8665C46.112 23.9417 46.3191 24.0261 46.5196 24.1208C48.9775 25.2819 50.8715 27.498 51.7422 30.2315C52.3952 32.2817 52.1951 34.8668 51.7948 40.0372C51.4504 44.4871 51.2782 46.7121 50.4846 48.4583C49.4264 50.7865 47.5942 52.6016 45.3512 53.5435C43.669 54.25 41.5952 54.25 37.4476 54.25H25.5498C21.4022 54.25 19.3284 54.25 17.6462 53.5435C15.4032 52.6016 13.571 50.7865 12.5128 48.4583C11.7192 46.7121 11.547 44.4871 11.2025 40.0372C10.8023 34.8668 10.6022 32.2817 11.2552 30.2315C12.1259 27.498 14.0199 25.2819 16.4778 24.1208C16.6783 24.0261 16.8854 23.9417 17.1017 23.8665"
            stroke="white" stroke-width="5.16667" stroke-linecap="round" stroke-linejoin="round" />
    </g>
</svg>