<svg width="24" height="27" viewBox="0 0 24 27" fill="none" xmlns="http://www.w3.org/2000/svg">
    <path d="M12.0026 20.1667V17.5M12.0026 17.5C12.6866 17.5 13.2411 16.903 13.2411 16.1667C13.2411 15.4303 12.6866 14.8333 12.0026 14.8333C11.3186 14.8333 10.7641 15.4303 10.7641 16.1667C10.7641 16.903 11.3186 17.5 12.0026 17.5ZM19.4333 9.81819V9.5C19.4333 5.08172 16.1065 1.5 12.0026 1.5C7.89873 1.5 4.57188 5.08172 4.57188 9.5V9.81819M19.4333 9.81819C18.5187 9.5 17.2898 9.5 15.073 9.5H8.93222C6.71545 9.5 5.48653 9.5 4.57188 9.81819M19.4333 9.81819C19.5449 9.85701 19.6519 9.90058 19.7553 9.94946C21.0239 10.5487 22.0015 11.6925 22.4508 13.1034C22.7879 14.1615 22.6846 15.4958 22.478 18.1644C22.3003 20.4611 22.2114 21.6095 21.8018 22.5107C21.2556 23.7124 20.3099 24.6492 19.1523 25.1354C18.284 25.5 17.2137 25.5 15.073 25.5H8.93222C6.79153 25.5 5.72118 25.5 4.85293 25.1354C3.69527 24.6492 2.74959 23.7124 2.20344 22.5107C1.79383 21.6095 1.70495 20.4611 1.52717 18.1644C1.32061 15.4958 1.21734 14.1615 1.55436 13.1034C2.00372 11.6925 2.98127 10.5487 4.24987 9.94946C4.35334 9.90058 4.46027 9.85701 4.57188 9.81819" stroke="white" stroke-opacity="0.9" stroke-width="2.46154" stroke-linecap="round" stroke-linejoin="round"/>
    </svg>
    