<svg width="18" height="18" viewBox="0 0 18 18" fill="none" xmlns="http://www.w3.org/2000/svg">
    <path d="M14.4643 10.6071C15.3519 10.6071 16.0715 9.88757 16.0715 8.99996C16.0715 8.11236 15.3519 7.39282 14.4643 7.39282C13.5767 7.39282 12.8572 8.11236 12.8572 8.99996C12.8572 9.88757 13.5767 10.6071 14.4643 10.6071Z" fill="black"/>
    <path d="M10.6071 8.99996C10.6071 9.88757 9.88757 10.6071 8.99996 10.6071C8.11236 10.6071 7.39282 9.88757 7.39282 8.99996C7.39282 8.11236 8.11236 7.39282 8.99996 7.39282C9.88757 7.39282 10.6071 8.11236 10.6071 8.99996Z" fill="black"/>
    <path d="M5.14275 8.99996C5.14275 9.88757 4.42321 10.6071 3.53561 10.6071C2.64801 10.6071 1.92847 9.88757 1.92847 8.99996C1.92847 8.11236 2.64801 7.39282 3.53561 7.39282C4.42321 7.39282 5.14275 8.11236 5.14275 8.99996Z" fill="black"/>
    </svg>
    