<svg xmlns="http://www.w3.org/2000/svg" width="29" height="29" viewBox="0 0 29 29" fill="none">
  <path
    d="M11.1002 21.16C12.1558 21.2085 13.3181 21.2411 14.5229 21.2411C15.5095 21.2411 16.6105 21.2235 17.9015 21.1598M11.1002 21.16C9.11863 21.0691 7.51314 20.9223 6.70806 20.8304C5.67979 20.7131 4.94531 19.9153 4.94531 18.9532C4.94531 18.2199 5.35662 17.7506 5.48883 16.4894C5.65331 14.9201 5.84138 12.2187 5.90013 11.503C6.29675 6.6721 10.2776 3.5835 14.5376 3.5835C18.9591 3.5835 22.705 6.95662 23.1016 11.503C23.2551 13.2629 23.463 16.0875 23.4982 16.5334C23.5608 17.3253 24.0564 18.4986 24.0564 18.8945C24.0564 19.7892 23.4248 20.6955 22.4259 20.8011C20.6768 20.986 19.194 21.096 17.9015 21.1598M11.1002 21.16C11.1002 21.1919 11.1002 21.3437 11.1002 21.6957C11.1002 23.5729 12.6573 25.0835 14.4935 25.0835C16.4472 25.0835 17.9015 23.4996 17.9015 21.6957V21.1598"
  />
</svg>
  