<svg xmlns="http://www.w3.org/2000/svg" width="22" height="22" viewBox="0 0 22 22" fill="none">
<path d="M8.3282 16.233C9.15756 16.271 10.0708 16.2967 11.0174 16.2967C11.7926 16.2967 12.6577 16.2828 13.6721 16.2328M8.3282 16.233C6.77123 16.1615 5.50976 16.0462 4.8772 15.974C4.06928 15.8818 3.49219 15.255 3.49219 14.4991C3.49219 13.9229 3.81536 13.5542 3.91923 12.5632C4.04848 11.3302 4.19624 9.20765 4.2424 8.64532C4.55403 4.84962 7.68186 2.42285 11.029 2.42285C14.5031 2.42285 17.4462 5.07316 17.7578 8.64532C17.8785 10.0281 18.0418 12.2474 18.0695 12.5977C18.1187 13.22 18.5081 14.1418 18.5081 14.453C18.5081 15.1559 18.0118 15.868 17.2269 15.951C15.8527 16.0962 14.6876 16.1827 13.6721 16.2328M8.3282 16.233C8.3282 16.2581 8.3282 16.3773 8.3282 16.6539C8.3282 18.1288 9.55163 19.3157 10.9944 19.3157C12.5294 19.3157 13.6721 18.0712 13.6721 16.6539V16.2328" stroke="darkblue" stroke-width="1.83"/>
</svg>