<svg width="47" height="46" viewBox="0 0 47 46" fill="none" xmlns="http://www.w3.org/2000/svg">
    <path d="M17.9124 33.9402C19.6466 34.0198 21.556 34.0733 23.5354 34.0733C25.1562 34.0733 26.965 34.0444 29.0859 33.9398M17.9124 33.9402C14.657 33.7908 12.0193 33.5496 10.6967 33.3987C9.00742 33.2059 7.80078 31.8952 7.80078 30.3147C7.80078 29.11 8.4765 28.339 8.6937 26.2669C8.96393 23.6889 9.27288 19.2509 9.36942 18.0751C10.021 10.1386 16.561 5.06445 23.5595 5.06445C30.8235 5.06445 36.9774 10.606 37.629 18.0751C37.8812 20.9663 38.2226 25.6068 38.2806 26.3392C38.3834 27.6403 39.1976 29.5678 39.1976 30.2183C39.1976 31.688 38.1599 33.177 36.5189 33.3505C33.6454 33.6543 31.2093 33.835 29.0859 33.9398M17.9124 33.9402C17.9124 33.9926 17.9124 34.242 17.9124 34.8202C17.9124 37.9042 20.4705 40.3859 23.4871 40.3859C26.6968 40.3859 29.0859 37.7838 29.0859 34.8202V33.9398" stroke="darkblue" stroke-opacity="0.7" stroke-width="3.82786"/>
</svg>
