<svg width="17" height="16" viewBox="0 0 17 16" fill="none" xmlns="http://www.w3.org/2000/svg">
    <path d="M13.4116 1.60777C12.7318 1.1685 11.8388 1.26512 11.268 1.83845L2.53329 10.6115C2.38912 10.7559 2.24819 10.8971 2.14248 11.0675C2.04993 11.2167 1.98061 11.3791 1.93686 11.5491C1.88691 11.7432 1.88224 11.9426 1.87745 12.1471L1.83223 13.9807C1.82781 14.1602 1.89591 14.3338 2.02114 14.4624C2.14637 14.5909 2.31816 14.6636 2.49763 14.6639L4.36383 14.6669C4.57475 14.6675 4.78171 14.6681 4.98362 14.6197C5.16038 14.5772 5.32928 14.5071 5.48411 14.4119C5.66086 14.3033 5.8067 14.1564 5.95567 14.0064L14.6429 5.28093C14.6597 5.26402 14.6758 5.24781 14.6908 5.23205C15.2323 4.66044 15.3198 3.79451 14.9047 3.1258C14.8933 3.10736 14.8807 3.08822 14.8676 3.06828L14.8419 3.02898C14.4692 2.46047 13.982 1.97631 13.4116 1.60777Z" fill="darkblue"/>
</svg>
