<svg xmlns="http://www.w3.org/2000/svg" width="20" height="22" viewBox="0 0 20 22" fill="none">
    <path d="M7.20211 11.1485L9.16274 13.1085L13.2169 9.05559M1.68648 6.18203C1.64771 7.0513 1.56685 8.94929 1.55356 9.58712C1.53044 10.6668 1.63664 12.4108 2.45079 14.1715C3.81028 17.1115 5.42426 18.3739 7.81689 19.7193C8.53135 20.1211 9.04643 20.5 9.9769 20.5C10.8077 20.5 11.5122 20.0781 12.1369 19.7193C14.1308 18.5743 15.8588 17.6431 17.5702 14.1715C18.2007 12.8925 18.4508 11.0621 18.4508 9.58712C18.412 8.9061 18.3112 7.28163 18.2182 6.23186C18.1151 5.06915 17.5535 4.05593 15.9585 3.47458C14.6292 2.99288 11.7946 1.96969 11.0901 1.73051C10.2095 1.43152 9.64459 1.41491 8.69751 1.73051C7.93319 1.99627 4.8261 3.14237 3.87902 3.47458C2.63286 3.91168 1.74776 4.75356 1.68648 6.18203Z" stroke="black" stroke-width="2" stroke-linecap="round" stroke-linejoin="round"/>
  </svg>