<svg xmlns="http://www.w3.org/2000/svg" width="20" height="21" viewBox="0 0 20 21" fill="none">
  <path
    d="M4.10391 7.7841C3.17144 8.86701 2.62891 10.2714 2.62891 11.845C2.62891 13.6386 3.20666 15.4998 4.58285 16.7498C6.26129 18.2744 7.96942 18.8332 10.0039 18.8332C12.0384 18.8332 14.0259 18.1035 15.4162 16.7498C16.8064 15.3962 17.3789 13.8416 17.3789 11.845C17.3789 10.4237 16.9381 9.05314 15.9039 7.7841M10.0039 14.2816V2.1665M10.0039 2.1665C9.86827 2.1665 9.73264 2.23784 9.58006 2.36955C8.49667 3.30468 7.62986 4.20196 6.96585 5.08317M10.0039 2.1665C10.1395 2.1665 10.2345 2.22065 10.4108 2.36955C11.2476 3.07623 12.3177 4.15768 13.03 5.08317"
    stroke="white" stroke-width="1.7" stroke-linecap="round" stroke-linejoin="round" />
</svg>