<svg width="47" height="46" viewBox="0 0 47 46" fill="none" xmlns="http://www.w3.org/2000/svg">
    <path
        d="M16.0258 29.2466H23.5008M16.0258 21.6709H31.0419M16.0258 14.2281H31.0419M8.55078 38.816C8.55078 31.8162 8.55078 17.1786 8.55078 14.6268C8.55078 11.437 8.61693 9.17757 10.6014 7.11751C12.586 5.05744 15.1658 4.79163 18.0764 4.79163C20.9871 4.79163 28.5944 4.79163 29.322 4.79163C32.9603 4.79163 34.9448 5.38971 36.797 7.58268C37.9877 8.99245 38.4508 10.706 38.4508 13.0983C38.4508 19.9652 38.4508 35.0547 38.4508 39.1482C38.4508 40.8096 37.3924 41.2083 36.5986 41.2083C35.3417 41.2083 33.1587 39.1482 30.7112 39.1482C28.3959 39.1482 25.7499 41.0754 23.5008 41.0754C21.3178 41.0754 18.4733 39.1482 16.2904 39.1482C14.1074 39.1482 11.7922 41.2083 10.2707 41.2083C9.07998 41.2083 8.55078 40.0919 8.55078 38.816Z"
        stroke="black" stroke-opacity="0.4" stroke-width="3.83333" stroke-linecap="round" />
</svg>
    