<svg xmlns="http://www.w3.org/2000/svg" width="24" height="24" viewBox="0 0 24 24" fill="none">
  <path
    d="M8.10313 15.2591H12.0031M8.10313 11.3066H15.9376M8.10313 7.42336H15.9376M4.20312 20.2518C4.20312 16.5998 4.20312 8.96277 4.20312 7.63139C4.20312 5.96715 4.23764 4.78832 5.27304 3.7135C6.30843 2.63869 7.65445 2.5 9.17304 2.5C10.6916 2.5 14.6606 2.5 15.0403 2.5C16.9385 2.5 17.9739 2.81204 18.9403 3.9562C19.5615 4.69174 19.8031 5.58577 19.8031 6.83394C19.8031 10.4167 19.8031 18.2894 19.8031 20.4252C19.8031 21.292 19.2509 21.5 18.8368 21.5C18.181 21.5 17.0421 20.4252 15.7651 20.4252C14.5571 20.4252 13.1766 21.4307 12.0031 21.4307C10.8642 21.4307 9.38012 20.4252 8.24118 20.4252C7.10224 20.4252 5.89428 21.5 5.10047 21.5C4.47923 21.5 4.20312 20.9175 4.20312 20.2518Z"
    stroke="darkblue" stroke-width="2" stroke-linecap="round" />
</svg>