<svg width="16" height="19" viewBox="0 0 16 19" fill="none" xmlns="http://www.w3.org/2000/svg">
<path d="M11.332 5.00002L10.4107 3.1574C9.95392 2.24379 9.02014 1.66669 7.9987 1.66669C6.97725 1.66669 6.04348 2.24379 5.58668 3.1574L4.66536 5.00002M1.33203 5.00002H14.6654M2.9987 5.00002H12.9987V12.5C12.9987 14.0532 12.9987 14.8297 12.745 15.4423C12.4066 16.2591 11.7577 16.908 10.941 17.2463C10.3284 17.5 9.55184 17.5 7.9987 17.5C6.44556 17.5 5.66899 17.5 5.05642 17.2463C4.23966 16.908 3.59075 16.2591 3.25243 15.4423C2.9987 14.8297 2.9987 14.0532 2.9987 12.5V5.00002Z" stroke="#DC3840" stroke-width="1.7" stroke-linecap="round" stroke-linejoin="round"/>
</svg>
