<svg xmlns="http://www.w3.org/2000/svg" width="19" height="18" viewBox="0 0 19 18" fill="none">
    <path d="M5.93438 2.675H13.0594C13.7966 2.675 14.3969 3.27553 14.3969 4.01134V14.9138C14.3969 15.0807 14.299 15.2282 14.1437 15.2932C14.0907 15.3149 14.0368 15.3249 13.9844 15.3249C13.8784 15.3249 13.7744 15.2839 13.6945 15.2041C13.6945 15.2041 13.6945 15.2041 13.6945 15.2041L10.5303 12.0413L9.96471 12.6071L10.5303 12.0413C9.95946 11.4707 9.03428 11.4707 8.46348 12.0413L5.29955 15.2038C5.2995 15.2038 5.29946 15.2039 5.29941 15.2039C5.18055 15.3225 5.00622 15.3574 4.85049 15.2934C4.69494 15.2285 4.59688 15.0808 4.59688 14.9138V4.01134C4.59688 3.27553 5.1971 2.675 5.93438 2.675Z" stroke="black" stroke-opacity="0.6" stroke-width="1.6"/>
  </svg>