<svg xmlns="http://www.w3.org/2000/svg" width="20" height="21" viewBox="0 0 20 21" fill="none">
  <path
    d="M6.81019 2.5835V4.26798M6.81019 5.75016V4.26798M13.1065 2.5835V4.26798M13.1065 5.75016V4.26798M17.0099 8.91683C17.0417 9.54051 17.0417 10.3065 17.0417 11.2918C17.0417 13.5051 17.0417 14.6117 16.6822 15.4846C16.2029 16.6485 15.2836 17.5732 14.1266 18.0553C13.2588 18.4168 12.1586 18.4168 9.95833 18.4168C7.75805 18.4168 6.65791 18.4168 5.79011 18.0553C4.63303 17.5732 3.71373 16.6485 3.23446 15.4846C2.875 14.6117 2.875 13.5051 2.875 11.2918C2.875 10.3065 2.875 9.54051 2.90672 8.91683M17.0099 8.91683C16.9704 8.1396 16.8816 7.58338 16.6822 7.09908C16.2029 5.9352 15.2836 5.0105 14.1266 4.5284C13.8263 4.40331 13.4983 4.32149 13.1065 4.26798M17.0099 8.91683H2.90672M2.90672 8.91683C2.94625 8.1396 3.03503 7.58338 3.23446 7.09908C3.71373 5.9352 4.63303 5.0105 5.79011 4.5284C6.09034 4.40331 6.41839 4.32149 6.81019 4.26798M6.81019 4.26798C7.55083 4.16683 8.51929 4.16683 9.95833 4.16683C11.3974 4.16683 12.3658 4.16683 13.1065 4.26798"
    stroke="white" stroke-width="1.7" stroke-linecap="round" stroke-linejoin="round" />
</svg>