<svg xmlns="http://www.w3.org/2000/svg" width="28" height="29" viewBox="0 0 28 29" fill="none">
    <path fill-rule="evenodd" clip-rule="evenodd"
        d="M3.90922 12.7466C4.24326 13.0212 4.70339 13.4005 4.89169 13.5558C5.12966 13.752 5.30925 13.9727 5.30925 14.4876C5.30925 15.1165 5.00058 15.3693 4.48399 15.7924C4.45672 15.8147 4.42887 15.8375 4.40046 15.8609C4.37696 15.8802 4.35359 15.8993 4.33036 15.9184C4.02355 16.1697 3.73999 16.402 3.51623 16.7437C3.18219 17.2537 3.24605 17.9943 3.51623 18.4357C3.58769 18.5525 3.74616 18.8386 3.94848 19.204C4.35806 19.9437 4.94735 21.008 5.35837 21.6481C5.71433 22.2025 6.09523 22.4328 6.7584 22.4328C7.2191 22.4328 7.55482 22.3014 7.87212 22.1771C7.92699 22.1556 7.9813 22.1344 8.03562 22.114C8.09585 22.0915 8.15554 22.0677 8.21511 22.0439C8.46645 21.9437 8.71555 21.8443 8.99354 21.8443C9.46021 21.8443 9.82044 22.0786 10.0497 22.3838C10.2886 22.7018 10.3339 23.0359 10.4078 23.5821C10.4251 23.7097 10.444 23.8489 10.4673 24.0022C10.6146 24.885 11.2778 25.5471 12.1866 25.5471H15.7972C16.8534 25.5471 17.4142 24.7379 17.5165 24.1249C17.5369 24.0026 17.5531 23.8887 17.5703 23.7675C17.5945 23.5971 17.6208 23.4121 17.6639 23.1685C17.8185 22.2938 18.4008 21.8443 18.9902 21.8443C19.2064 21.8443 19.4569 21.9301 19.6288 21.9914C19.8074 22.0551 20.006 22.1325 20.1883 22.2036C20.2868 22.2421 20.3807 22.2787 20.464 22.3102C21.4219 22.673 22.2612 22.3102 22.65 21.6481C22.8531 21.3022 23.3033 20.5158 23.7332 19.765L23.7341 19.7634C24.011 19.2798 24.2793 18.8112 24.4675 18.4847C24.9342 17.6755 24.7132 16.7713 24.0746 16.2532C23.8943 16.107 23.7245 15.9651 23.5697 15.8358C23.3869 15.6831 23.225 15.5479 23.0921 15.444C22.5272 15.0026 22.5763 13.9957 23.1412 13.5313C23.2719 13.4238 23.3998 13.3216 23.5241 13.2223C23.7175 13.0678 23.902 12.9203 24.0746 12.7711C24.8114 12.1335 24.8476 11.1526 24.4921 10.5396C24.0598 9.79408 23.1903 8.30803 22.7236 7.52332C22.3703 6.92917 21.864 6.56696 21.1762 6.56696C20.8569 6.56696 20.6195 6.64052 20.3903 6.73861C20.3656 6.74915 20.3375 6.76135 20.3065 6.77481C19.991 6.9117 19.3726 7.18001 19.0148 7.18001C18.445 7.18001 17.8788 6.71409 17.7621 6.24817C17.7032 6.01275 17.5538 5.24276 17.4674 4.77684C17.3446 4.11474 16.706 3.45264 15.8218 3.45264H12.2111C11.5725 3.45264 10.762 3.89404 10.5409 4.67875C10.4568 4.97735 10.3821 5.46346 10.3199 5.92938C10.2216 6.66504 9.65671 7.15549 9.04266 7.15549C8.71183 7.15549 8.36557 7.01834 8.06498 6.89928C7.98619 6.86807 7.91054 6.8381 7.83913 6.81218C7.80332 6.79918 7.76857 6.78649 7.73475 6.77413C7.36019 6.63733 7.10038 6.54243 6.80753 6.54243C6.07067 6.54243 5.53031 7.03638 5.28469 7.47428C5.09818 7.80678 4.59686 8.68032 4.12712 9.49883C3.90416 9.88731 3.68786 10.2642 3.51623 10.5641C3.02499 11.4224 3.39342 12.3225 3.90922 12.7466Z"
        stroke="darkblue" stroke-width="2.3" stroke-linejoin="round" />
    <path class="white-fill" fill-rule="evenodd" clip-rule="evenodd"
        d="M18.0271 14.4884C18.0271 16.7069 16.2257 18.5054 14.0036 18.5054C11.7815 18.5054 9.98015 16.7069 9.98015 14.4884C9.98015 12.2699 11.7815 10.4714 14.0036 10.4714C16.2257 10.4714 18.0271 12.2699 18.0271 14.4884Z"
        stroke="darkblue" stroke-width="2.3" stroke-linejoin="round" />
</svg>