<svg width="41" height="41" viewBox="0 0 41 41" fill="none" xmlns="http://www.w3.org/2000/svg">
<path d="M20.2396 25.3814C17.8457 25.3814 15.7575 24.0729 14.651 22.1322C14.0411 21.0625 12.7401 20.3126 11.6155 20.814C10.1439 21.47 9.32518 23.1304 10.1043 24.5407C12.0754 28.1082 15.8753 30.5242 20.2396 30.5242C24.6038 30.5242 28.4037 28.1082 30.3748 24.5407C31.154 23.1304 30.3352 21.47 28.8637 20.814C27.7391 20.3126 26.438 21.0625 25.8281 22.1322C24.7216 24.0729 22.6334 25.3814 20.2396 25.3814Z" fill="#1D1D1F"/>
<path fill-rule="evenodd" clip-rule="evenodd" d="M20.2383 40.2382C31.284 40.2382 40.2383 31.2839 40.2383 20.2382C40.2383 9.19246 31.284 0.238159 20.2383 0.238159C9.19259 0.238159 0.238281 9.19246 0.238281 20.2382C0.238281 31.2839 9.19259 40.2382 20.2383 40.2382ZM20.2383 35.2382C28.5226 35.2382 35.2383 28.5224 35.2383 20.2382C35.2383 11.9539 28.5226 5.23816 20.2383 5.23816C11.954 5.23816 5.23828 11.9539 5.23828 20.2382C5.23828 28.5224 11.954 35.2382 20.2383 35.2382Z" fill="#1D1D1F"/>
</svg>
