<svg width="47" height="46" viewBox="0 0 47 46" fill="none" xmlns="http://www.w3.org/2000/svg">
    <path
        d="M6.38161 22.3988C7.50905 23.6475 9.74828 25.7131 10.7974 26.746C11.5491 27.4859 11.8779 28.5034 11.8779 29.3358C11.8779 29.9647 11.4467 31.9256 11.2202 33.1743C11.0323 34.2102 10.8444 35.3941 10.8444 36.5965C10.8444 38.8626 12.8644 40.25 14.5556 40.25C15.0817 40.25 15.8239 40.0342 16.3877 39.7875C17.656 39.2326 20.0519 37.9145 21.6021 37.1515C22.3537 36.7815 22.8611 36.6428 23.5751 36.6428C24.2892 36.6428 25.0314 36.9665 25.4072 37.1515C26.234 37.5584 28.2728 38.6545 29.4472 39.2326C30.8753 39.9355 31.843 40.25 32.5947 40.25C34.0979 40.25 36.2119 38.7239 36.2119 36.689C36.2119 34.7466 35.5138 32.2956 35.2254 30.2607C34.9999 28.6698 35.3648 27.5322 36.1649 26.7922C37.4051 25.6453 38.9819 24.1099 40.2519 22.815C41.3042 21.7421 41.7082 21.1039 41.7082 19.624C41.5672 18.0054 40.7217 16.6295 38.7956 16.1555C37.6537 15.8744 34.8965 15.5543 32.9705 15.2768C30.8095 14.9655 30.0445 13.9819 29.2593 12.317C28.6486 11.0221 27.8004 9.44973 26.9574 7.87735C26.2434 6.54544 25.0784 5.75 23.4812 5.75C21.743 5.75 21.0179 6.48995 20.0988 7.87735C19.5351 8.72828 18.4781 10.9759 17.797 12.317C16.9514 13.9819 16.3877 14.8143 14.5086 15.1843C13.8039 15.3231 10.5156 15.693 8.40161 16.1092C6.28765 16.5255 5.67696 17.9591 5.3951 19.0228C5.11324 20.0865 5.3951 21.3351 6.38161 22.3988Z"
        stroke="darkblue" stroke-opacity="0.4" stroke-width="3.83333" />
</svg>
    