<svg width="14" height="14" viewBox="0 0 14 14" fill="none" xmlns="http://www.w3.org/2000/svg">
  <path
    d="M0.955182 6.78424C1.35323 7.23168 2.14381 7.9719 2.51422 8.342C2.77958 8.60715 2.89568 8.97173 2.89568 9.27003C2.89568 9.49541 2.74345 10.1981 2.66348 10.6455C2.59714 11.0167 2.5308 11.4409 2.5308 11.8718C2.5308 12.6838 3.24397 13.181 3.84105 13.181C4.02681 13.181 4.28886 13.1037 4.48789 13.0153C4.93569 12.8164 5.78155 12.3441 6.32887 12.0707C6.59424 11.9381 6.77336 11.8884 7.02546 11.8884C7.27756 11.8884 7.53961 12.0044 7.6723 12.0707C7.9642 12.2165 8.68401 12.6093 9.09865 12.8164C9.60285 13.0683 9.94451 13.181 10.2099 13.181C10.7406 13.181 11.487 12.6341 11.487 11.905C11.487 11.2089 11.2405 10.3306 11.1387 9.60147C11.059 9.03139 11.1879 8.62372 11.4704 8.35857C11.9082 7.94759 12.4649 7.3974 12.9133 6.93339C13.2848 6.54892 13.4275 6.32023 13.4275 5.78993C13.3777 5.20991 13.0792 4.7169 12.3992 4.54704C11.996 4.44633 11.0226 4.3316 10.3426 4.23217C9.57963 4.12061 9.30952 3.76816 9.0323 3.17157C8.81669 2.70756 8.51723 2.14411 8.21962 1.58067C7.96752 1.1034 7.5562 0.818359 6.99229 0.818359C6.37863 0.818359 6.12264 1.08351 5.79814 1.58067C5.59911 1.88559 5.22594 2.69098 4.98545 3.17157C4.68691 3.76816 4.48789 4.06645 3.82447 4.19903C3.57568 4.24874 2.4147 4.38132 1.66835 4.53046C0.922009 4.67961 0.7064 5.19334 0.606887 5.57449C0.507374 5.95565 0.606887 6.40309 0.955182 6.78424Z"
    fill="white" />
</svg>
  