<svg width="24" height="24" viewBox="0 0 24 24" fill="none" xmlns="http://www.w3.org/2000/svg">
  <path
    d="M2.61199 11.6685C3.2303 12.3572 4.45832 13.4966 5.03369 14.0662C5.44589 14.4743 5.62623 15.0355 5.62623 15.4946C5.62623 15.8416 5.38977 16.9231 5.26555 17.6118C5.1625 18.1831 5.05945 18.8361 5.05945 19.4993C5.05945 20.7492 6.16725 21.5144 7.09471 21.5144C7.38325 21.5144 7.7903 21.3954 8.09946 21.2593C8.79505 20.9532 10.109 20.2263 10.9591 19.8054C11.3713 19.6014 11.6496 19.5248 12.0412 19.5248C12.4328 19.5248 12.8398 19.7034 13.0459 19.8054C13.4993 20.0299 14.6174 20.6344 15.2615 20.9532C16.0447 21.341 16.5754 21.5144 16.9876 21.5144C17.812 21.5144 18.9713 20.6727 18.9713 19.5503C18.9713 18.479 18.5885 17.1271 18.4303 16.0048C18.3067 15.1273 18.5068 14.4999 18.9456 14.0917C19.6257 13.4592 20.4905 12.6123 21.1869 11.8981C21.764 11.3063 21.9856 10.9543 21.9856 10.1381C21.9083 9.24532 21.4446 8.48647 20.3883 8.22502C19.762 8.07001 18.25 7.89342 17.1937 7.74038C16.0086 7.56867 15.5891 7.02617 15.1585 6.1079C14.8235 5.39369 14.3584 4.52644 13.8961 3.65918C13.5045 2.92457 12.8656 2.48584 11.9896 2.48584C11.0364 2.48584 10.6388 2.89396 10.1347 3.65918C9.82556 4.12852 9.2459 5.36818 8.87234 6.1079C8.40861 7.02617 8.09946 7.4853 7.06895 7.68936C6.6825 7.76589 4.87911 7.96995 3.71979 8.19951C2.56046 8.42908 2.22555 9.21981 2.07097 9.80648C1.9164 10.3932 2.07097 11.0819 2.61199 11.6685Z"
    stroke="currentColor" />
</svg>
