<svg width="46" height="47" viewBox="0 0 46 47" fill="none" xmlns="http://www.w3.org/2000/svg">
<path d="M5.88307 22.8988C7.01052 24.1475 9.24975 26.2131 10.2989 27.246C11.0505 27.9859 11.3794 29.0034 11.3794 29.8358C11.3794 30.4647 10.9482 32.4256 10.7217 33.6743C10.5338 34.7102 10.3459 35.8941 10.3459 37.0965C10.3459 39.3626 12.3659 40.75 14.057 40.75C14.5832 40.75 15.3254 40.5342 15.8891 40.2875C17.1575 39.7326 19.5533 38.4145 21.1036 37.6515C21.8552 37.2815 22.3625 37.1428 23.0766 37.1428C23.7906 37.1428 24.5329 37.4665 24.9087 37.6515C25.7355 38.0584 27.7743 39.1545 28.9487 39.7326C30.3768 40.4355 31.3445 40.75 32.0961 40.75C33.5994 40.75 35.7133 39.2239 35.7133 37.189C35.7133 35.2466 35.0152 32.7956 34.7268 30.7607C34.5013 29.1698 34.8662 28.0322 35.6664 27.2922C36.9066 26.1453 38.4834 24.6099 39.7534 23.315C40.8056 22.2421 41.2096 21.6039 41.2096 20.124C41.0687 18.5054 40.2231 17.1295 38.2971 16.6555C37.1551 16.3744 34.398 16.0543 32.4719 15.7768C30.311 15.4655 29.546 14.4819 28.7608 12.817C28.1501 11.5221 27.3019 9.94973 26.4589 8.37735C25.7449 7.04544 24.5798 6.25 22.9826 6.25C21.2445 6.25 20.5194 6.98995 19.6003 8.37735C19.0366 9.22828 17.9796 11.4759 17.2984 12.817C16.4529 14.4819 15.8891 15.3143 14.0101 15.6843C13.3054 15.8231 10.017 16.193 7.90307 16.6092C5.78912 17.0255 5.17842 18.4591 4.89656 19.5228C4.6147 20.5865 4.89656 21.8351 5.88307 22.8988Z" stroke="darkblue" stroke-opacity="0.4" stroke-width="2.8"/>
</svg>