<svg xmlns="http://www.w3.org/2000/svg" width="18" height="22" viewBox="0 0 18 22" fill="none">
    <path d="M8.99045 10.0564L8.99805 10.064M8.99045 13V16.7896M16.5984 10.0564C16.5984 9.69258 16.5984 9.35712 16.5984 9.06481C16.5984 4.93855 13.194 1.5 9.0384 1.5C8.84243 1.5 8.53665 1.5 8.1753 1.5M16.5984 10.0564C16.5984 12.3998 16.5984 15.9196 16.5984 16.6616C16.5984 18.7247 14.9682 20.5 12.7625 20.5C10.999 20.5 7.00534 20.5 5.1385 20.5C3.01274 20.5 1.39844 18.6928 1.39844 16.5816C1.39844 13.1698 1.39844 6.12525 1.39844 5.24242C1.39844 3.43519 2.91684 1.5 5.1385 1.5C5.86599 1.5 7.21632 1.5 8.1753 1.5M16.5984 10.0564C16.5984 8.48906 15.3198 7.1936 13.7374 7.1936C13.519 7.1936 13.0054 7.1936 12.6985 7.1936C11.8355 7.1936 10.9084 6.36195 10.9084 5.40236C10.9084 5.14113 10.9084 4.54192 10.9084 4.23485C10.9084 2.9234 9.69371 1.5 8.1753 1.5" stroke="black" stroke-width="2" stroke-linecap="round"/>
  </svg>