<svg width="16" height="16" viewBox="0 0 16 16" fill="none" xmlns="http://www.w3.org/2000/svg">
    <path
        d="M5.60155 13.4001C5.72926 11.0425 6.91275 9.34022 8.0707 8.42101C10.1185 6.79551 11.4934 6.79536 13.9966 6.79536M5.60155 13.4001C5.09069 13.4001 4.37549 13.3413 3.89869 13.1881C3.42189 13.0349 2.82589 12.6349 2.4172 11.954C2.00851 11.2731 2 10.2602 2 9.63892C2 9.14186 2 7.29264 2 6.43017C2 5.80374 2.01631 5.50244 2.0596 5.16199C2.16177 4.35853 2.40611 4.01297 2.75777 3.61294C3.49852 2.77032 4.30738 2.6001 5.42275 2.6001C6.02216 2.6001 8.86253 2.6001 10.2078 2.6001C11.5445 2.6001 12.4416 2.7533 13.0941 3.44271C13.8434 4.23426 13.9115 4.796 13.9796 5.63011C14.0112 6.01694 13.9966 6.63107 13.9966 6.79536M5.60155 13.4001C7.08588 13.4001 10.1805 13.4001 10.6846 13.4001C11.3146 13.4001 12.2597 13.3413 13.0005 12.6434C13.9966 11.7048 13.9966 10.7539 13.9966 9.72403V6.79536M4.69903 5.89396C4.69903 5.6216 4.92892 5.29817 5.29503 5.29817C5.66115 5.29817 5.89104 5.6216 5.89104 5.89396C5.89104 6.19185 5.67818 6.50677 5.27801 6.50677C4.95446 6.50677 4.69903 6.20717 4.69903 5.89396Z"
        stroke="white" stroke-opacity="0.9" stroke-width="1.5" />
</svg>