<svg xmlns="http://www.w3.org/2000/svg" width="20" height="20" viewBox="0 0 20 20" fill="none">
  <path
    d="M1.7184 9.16031C1.6669 9.35281 1.66803 9.52003 1.66797 9.70066C1.66797 10.168 1.66797 11.2195 1.66797 11.6868C1.66797 12.2709 1.69711 12.8989 1.8865 13.8043C2.07589 14.7098 2.99373 15.7028 3.78044 16.141C4.56715 16.5791 5.5724 16.6667 6.09687 16.6667C6.62135 16.6667 12.6674 16.6667 13.6581 16.6667C15.1878 16.6667 16.1348 16.4038 17.1837 15.3962C17.6353 14.9623 18.154 14.0964 18.2472 13.1034C18.2897 12.6506 18.3346 12.0869 18.3346 11.4677C18.3346 10.9858 18.3346 9.946 18.3346 9.64224C18.3346 9.45485 18.3169 9.29947 18.2814 9.16031M1.7184 9.16031C1.75018 9.04153 1.802 8.91313 1.8865 8.76601L4.20293 4.76455C4.73152 3.91678 5.59571 3.42946 6.66506 3.34619M1.7184 9.16031C2.95451 9.16031 5.51121 9.16031 5.8492 9.16031C6.38825 9.16031 6.66506 9.56922 6.66506 9.97813C6.66506 10.6207 6.97391 11.4122 7.56832 11.8912C8.04909 12.2787 8.57356 12.49 9.12718 12.49C9.57395 12.49 10.5491 12.49 10.8754 12.49C11.4582 12.49 12.0701 12.2563 12.6382 11.716C13.1627 11.161 13.3375 10.4221 13.3375 10.0365C13.3375 9.54001 13.6289 9.16031 14.2117 9.16031H18.2814M18.2814 9.16031C18.245 9.01749 18.1899 8.89175 18.1161 8.76601C17.9704 8.51774 16.1493 5.30489 15.8871 4.89598C15.4152 4.16024 14.6221 3.46126 13.5404 3.34902"
    stroke="white" stroke-width="1.7" stroke-linecap="round" />
  <path
    d="M9.17606 8.3471V6.00049L8.94213 6.2949C8.83816 6.42652 8.6129 6.55467 8.33565 6.55467C7.88512 6.55467 7.50391 6.20831 7.50391 5.7234C7.50391 5.46363 7.61173 5.28179 7.78982 5.06531C8.04627 4.75359 8.29976 4.45052 8.58691 4.17343C8.83816 3.93097 9.02877 3.75753 9.28003 3.56729C9.50876 3.39411 9.71323 3.3335 9.99914 3.3335C10.3804 3.3335 10.6143 3.47561 10.8309 3.65388C11.1844 3.94483 11.7799 4.50247 12.2864 5.16056C12.4251 5.34067 12.503 5.51558 12.503 5.7234C12.503 6.1477 12.1651 6.55467 11.6713 6.55467C11.4564 6.55467 11.3161 6.49791 11.1774 6.39015C11.0215 6.26892 10.9522 6.13904 10.8309 6.00049V8.32113C10.8309 8.82335 10.441 9.16106 9.99047 9.16106C9.60926 9.16106 9.17606 8.84933 9.17606 8.3471Z"
    fill="white" />
</svg>