<?xml version="1.0" encoding="UTF-8"?>
<svg width="24" height="24" viewBox="0 0 24 24" fill="none" xmlns="http://www.w3.org/2000/svg">
  <!-- Head/avatar filled version -->
  <path
    d="M16.0005 7C16.0005 9.20914 14.2096 11 12.0005 11C9.79135 11 8.00049 9.20914 8.00049 7C8.00049 4.79086 9.79135 3 12.0005 3C14.2096 3 16.0005 4.79086 16.0005 7Z"
    fill="#F9FAFB"
    stroke="#1E3A8A"
    stroke-width="1.5"
    stroke-linecap="round"
    stroke-linejoin="round"
  />
  
  <!-- Simple graduation cap -->
  <path
    d="M9.5 4.5L12 3L14.5 4.5L12 6L9.5 4.5Z"
    fill="#F59E0B"
  />
  
  <!-- Body/book shape filled -->
  <path
    d="M16.0005 15H8.00049C5.79135 15 4.00049 16.7909 4.00049 19C4.00049 20.1046 4.89592 21 6.00049 21H18.0005C19.1051 21 20.0005 20.1046 20.0005 19C20.0005 16.7909 18.2096 15 16.0005 15Z"
    fill="#F9FAFB"
    stroke="#1E3A8A"
    stroke-width="1.5"
    stroke-linecap="round"
    stroke-linejoin="round"
  />
  
  <!-- Book spine with highlight -->
  <path
    d="M12 15V21"
    stroke="#1E3A8A"
    stroke-width="1.5"
    stroke-linecap="round"
  />
  
  <!-- Left book wave -->
  <path
    d="M7 17.5C8 17 9 18 10 17.5"
    stroke="#3182CE"
    stroke-width="0.75"
    stroke-linecap="round"
  />
  
  <!-- Right book wave -->
  <path
    d="M14 17.5C15 17 16 18 17 17.5"
    stroke="#3182CE"
    stroke-width="0.75"
    stroke-linecap="round"
  />
  
  <!-- Educational accent - green dot -->
  <circle
    cx="9"
    cy="19"
    r="0.75"
    fill="#10B981"
  />
</svg>