<svg width="26" height="27" viewBox="0 0 26 27" fill="none" xmlns="http://www.w3.org/2000/svg">
    <path
        d="M3.25049 11.0298C3.25049 7.00912 6.50985 3.74976 10.5305 3.74976H15.4705C19.4911 3.74976 22.7505 7.00912 22.7505 11.0298V15.9698C22.7505 19.9904 19.4911 23.2498 15.4705 23.2498H10.5305C6.50985 23.2498 3.25049 19.9904 3.25049 15.9698V11.0298Z"
        stroke="black" stroke-width="2.16667" />
    <path
        d="M15.3482 12.5657C16.0935 12.985 16.4662 13.1946 16.4662 13.4999C16.4662 13.8052 16.0935 14.0148 15.3482 14.434L12.3537 16.1184C11.5256 16.5842 11.1116 16.8171 10.7963 16.6598C10.481 16.5025 10.481 16.0631 10.481 15.1843L10.481 11.8155C10.481 10.9366 10.481 10.4972 10.7963 10.3399C11.1116 10.1827 11.5256 10.4155 12.3537 10.8813L15.3482 12.5657Z"
        fill="black" />
</svg>
    