<svg width="56" height="56" viewBox="0 0 56 56" fill="none" xmlns="http://www.w3.org/2000/svg">
    <path
        d="M7 22.6795C7 14.0197 14.0202 6.99951 22.68 6.99951H33.32C41.9798 6.99951 49 14.0197 49 22.6795V33.3195C49 41.9793 41.9798 48.9995 33.32 48.9995H22.68C14.0202 48.9995 7 41.9793 7 33.3195V22.6795Z"
        stroke="darkblue" stroke-opacity="0.8" stroke-width="4.66667" />
    <path
        d="M33.0575 25.9873C34.6628 26.8903 35.4654 27.3418 35.4654 27.9993C35.4654 28.6568 34.6628 29.1083 33.0575 30.0113L26.6077 33.6393C24.8242 34.6425 23.9325 35.1441 23.2534 34.8053C22.5742 34.4665 22.5742 33.5201 22.5742 31.6273L22.5742 24.3713C22.5742 22.4785 22.5742 21.532 23.2534 21.1933C23.9325 20.8545 24.8242 21.3561 26.6077 22.3593L33.0575 25.9873Z"
        fill="darkblue" fill-opacity="0.8" />
</svg>
    