<svg width="20" height="20" viewBox="0 0 20 20" fill="none" xmlns="http://www.w3.org/2000/svg">
<g id="Logo/Facebook">
<path id="Vector" d="M9.99918 1.66064C5.39694 1.66064 1.66602 5.39157 1.66602 9.99381C1.66602 13.9017 4.35663 17.181 7.98622 18.0816V12.5404H6.26792V9.99381H7.98622V8.8965C7.98622 6.06022 9.26986 4.74558 12.0545 4.74558C12.5825 4.74558 13.4934 4.84925 13.8661 4.95258V7.26087C13.6694 7.2402 13.3278 7.22987 12.9035 7.22987C11.5372 7.22987 11.0092 7.74752 11.0092 9.09316V9.99381H13.7311L13.2635 12.5404H11.0092V18.266C15.1354 17.7677 18.3327 14.2544 18.3327 9.99381C18.3323 5.39157 14.6014 1.66064 9.99918 1.66064Z" fill="black"/>
</g>
</svg>
