<svg width="18" height="18" viewBox="0 0 18 18" fill="none" xmlns="http://www.w3.org/2000/svg">
<g id="Group">
<path id="Vector" d="M8.99902 2.16549C11.226 2.16549 11.4897 2.17526 12.3656 2.21433C13.1795 2.25015 13.6191 2.38689 13.9121 2.50085C14.2995 2.65062 14.5795 2.83294 14.8693 3.12271C15.1623 3.41574 15.3414 3.69249 15.4912 4.07993C15.6051 4.37296 15.7419 4.81575 15.7777 5.62646C15.8168 6.50553 15.8265 6.76926 15.8265 8.993C15.8265 11.22 15.8168 11.4837 15.7777 12.3595C15.7419 13.1735 15.6051 13.613 15.4912 13.9061C15.3414 14.2935 15.1591 14.5735 14.8693 14.8633C14.5763 15.1563 14.2995 15.3354 13.9121 15.4852C13.6191 15.5991 13.1763 15.7359 12.3656 15.7717C11.4865 15.8107 11.2228 15.8205 8.99902 15.8205C6.77203 15.8205 6.5083 15.8107 5.63248 15.7717C4.81852 15.7359 4.37898 15.5991 4.08596 15.4852C3.69851 15.3354 3.41851 15.1531 3.12874 14.8633C2.83571 14.5703 2.65664 14.2935 2.50687 13.9061C2.39292 13.613 2.25617 13.1702 2.22036 12.3595C2.18129 11.4805 2.17152 11.2167 2.17152 8.993C2.17152 6.766 2.18129 6.50228 2.22036 5.62646C2.25617 4.8125 2.39292 4.37296 2.50687 4.07993C2.65664 3.69249 2.83897 3.41248 3.12874 3.12271C3.42176 2.82969 3.69851 2.65062 4.08596 2.50085C4.37898 2.38689 4.82178 2.25015 5.63248 2.21433C6.5083 2.17526 6.77203 2.16549 8.99902 2.16549ZM8.99902 0.664551C6.73621 0.664551 6.45295 0.674318 5.56411 0.713388C4.67852 0.752459 4.06968 0.895716 3.54223 1.10083C2.99199 1.31572 2.52641 1.59898 2.06408 2.06456C1.59849 2.52689 1.31523 2.99248 1.10035 3.53946C0.895227 4.07016 0.75197 4.67575 0.7129 5.56134C0.67383 6.45344 0.664062 6.7367 0.664062 8.99951C0.664062 11.2623 0.67383 11.5456 0.7129 12.4344C0.75197 13.32 0.895227 13.9289 1.10035 14.4563C1.31523 15.0065 1.59849 15.4721 2.06408 15.9345C2.52641 16.3968 2.99199 16.6833 3.53897 16.8949C4.06968 17.1001 4.67526 17.2433 5.56085 17.2824C6.4497 17.3214 6.73296 17.3312 8.99577 17.3312C11.2586 17.3312 11.5418 17.3214 12.4307 17.2824C13.3163 17.2433 13.9251 17.1001 14.4526 16.8949C14.9995 16.6833 15.4651 16.3968 15.9275 15.9345C16.3898 15.4721 16.6763 15.0065 16.8879 14.4596C17.0931 13.9289 17.2363 13.3233 17.2754 12.4377C17.3145 11.5488 17.3242 11.2656 17.3242 9.00277C17.3242 6.73996 17.3145 6.4567 17.2754 5.56785C17.2363 4.68226 17.0931 4.07342 16.8879 3.54597C16.6828 2.99248 16.3996 2.52689 15.934 2.06456C15.4716 1.60223 15.0061 1.31572 14.4591 1.10409C13.9284 0.898972 13.3228 0.755714 12.4372 0.716644C11.5451 0.674318 11.2618 0.664551 8.99902 0.664551Z" fill="black"/>
<path id="Vector_2" d="M8.99823 4.71826C6.63449 4.71826 4.7168 6.63595 4.7168 8.9997C4.7168 11.3634 6.63449 13.2811 8.99823 13.2811C11.362 13.2811 13.2797 11.3634 13.2797 8.9997C13.2797 6.63595 11.362 4.71826 8.99823 4.71826ZM8.99823 11.7769C7.46473 11.7769 6.221 10.5332 6.221 8.9997C6.221 7.46619 7.46473 6.22246 8.99823 6.22246C10.5317 6.22246 11.7755 7.46619 11.7755 8.9997C11.7755 10.5332 10.5317 11.7769 8.99823 11.7769Z" fill="black"/>
<path id="Vector_3" d="M14.4483 4.54886C14.4483 5.10236 13.999 5.54841 13.4488 5.54841C12.8953 5.54841 12.4492 5.0991 12.4492 4.54886C12.4492 3.99537 12.8985 3.54932 13.4488 3.54932C13.999 3.54932 14.4483 3.99862 14.4483 4.54886Z" fill="black"/>
</g>
</svg>
