<svg xmlns="http://www.w3.org/2000/svg" width="24" height="24" viewBox="0 0 24 24" fill="none">
  <path d="M17.0086 6.97437V7.02565M3.01012 9.48719C3.01012 7.91026 3.37159 6.41026 4.70243 4.98719C5.9973 3.60257 7.42038 3.11539 9.18961 3.03847C10.1127 2.99834 11.2665 3.00001 12.0486 3.00001C12.8306 3.00001 14.3434 3.01796 14.9076 3.03847C17.0229 3.03847 18.7024 4.15386 19.7537 5.52565C20.579 6.60257 20.946 7.73078 20.9845 9.48719C21.0249 11.3333 21.0229 13.6026 20.9717 14.8205C20.8934 16.6795 20.3563 18 19.0101 19.3077C17.7168 20.5641 16.1127 21 14.0486 21C12.8221 21 10.2281 21 9.66396 21C7.27935 21 5.9973 20.2308 4.98448 19.3077C3.62551 18.0691 3.0614 16.4231 3.02294 14.8205C2.98034 13.1026 3.01012 10.441 3.01012 9.48719ZM8.17528 12.0256C8.17528 9.89744 9.88041 8.19231 12.0086 8.19231C14.2343 8.19231 15.8163 9.99488 15.8163 12.0256C15.8163 14.0564 14.1009 15.8333 12.0086 15.8333C9.9163 15.8333 8.17528 14.1539 8.17528 12.0256Z" stroke="darkblue" stroke-width="2" stroke-linecap="round"/>
</svg>