<svg xmlns="http://www.w3.org/2000/svg" width="28" height="28" viewBox="0 0 28 28" fill="none">
<path d="M11.2566 15.4256C10.4974 14.6813 9.27865 14.6934 8.53437 15.4526C7.79009 16.2117 7.80216 17.4305 8.56132 18.1748C10.1529 19.7351 12.0498 20.5452 14.0242 20.5452C16.1729 20.5452 18.0793 19.5079 19.4381 18.1738C20.1967 17.429 20.2079 16.2102 19.4631 15.4516C18.7183 14.6929 17.4995 14.6818 16.7408 15.4266C15.9049 16.2473 14.9181 16.6952 14.0242 16.6952C13.1652 16.6952 12.209 16.3593 11.2566 15.4256Z" fill="black"/>
<path fill-rule="evenodd" clip-rule="evenodd" d="M13.9743 1.5752C7.79133 1.5752 1.57422 6.58786 1.57422 13.9753C1.57422 20.8715 7.14687 26.4252 13.9743 26.4252C21.1042 26.4252 26.3993 20.5432 26.3993 14.0002C26.3993 7.47381 21.2549 1.5752 13.9743 1.5752ZM5.42422 13.9753C5.42422 8.94222 9.68217 5.4252 13.9743 5.4252C18.9844 5.4252 22.5493 9.45295 22.5493 14.0002C22.5493 18.5308 18.8658 22.5752 13.9743 22.5752C9.27912 22.5752 5.42422 18.7512 5.42422 13.9753Z" fill="black"/>
</svg>