<svg width="242" height="76" viewBox="0 0 242 76" fill="none" xmlns="http://www.w3.org/2000/svg">
  <path
    d="M77.7171 31.2C81.6311 31.2 84.2519 33.7913 84.2519 37.7123V48.9982H78.7381V39.5535C78.7381 37.7464 77.615 36.5531 75.8451 36.5531C73.9732 36.5531 72.7139 37.7805 72.7139 39.6217V48.9982H67.2002V31.6091H72.7139V33.1434C74.0413 31.8478 75.743 31.2 77.7171 31.2Z"
    fill="black" />
  <path
    d="M95.3341 49.4074C89.9565 49.4074 85.9403 45.4863 85.9403 40.3037C85.9403 35.121 89.9565 31.2 95.3341 31.2C100.678 31.2 104.728 35.121 104.728 40.3037C104.728 45.4863 100.678 49.4074 95.3341 49.4074ZM95.3341 44.0542C97.4442 44.0542 99.0439 42.4517 99.0439 40.3037C99.0439 38.1556 97.4442 36.5531 95.3341 36.5531C93.1898 36.5531 91.5902 38.1556 91.5902 40.3037C91.5902 42.4517 93.1898 44.0542 95.3341 44.0542Z"
    fill="black" />
  <path
    d="M127.756 31.2C131.67 31.2 134.154 33.7231 134.154 37.61V48.9982H128.64V39.2808C128.64 37.6441 127.619 36.5531 126.02 36.5531C124.352 36.5531 123.195 37.6782 123.195 39.349V48.9982H117.681V39.2808C117.681 37.6441 116.66 36.5531 115.06 36.5531C113.393 36.5531 112.201 37.6782 112.201 39.349V48.9982H106.688V31.6091H112.201V33.0752C113.461 31.8478 115.06 31.2 116.932 31.2C119.213 31.2 121.017 32.1205 122.106 33.7231C123.535 32.0524 125.441 31.2 127.756 31.2Z"
    fill="black" />
  <path
    d="M154.536 40.4059C154.536 40.8833 154.502 41.5311 154.4 41.9744H142.011C142.59 43.6451 144.053 44.668 145.959 44.668C147.729 44.668 149.158 43.7815 149.907 42.9632L153.549 46.1341C151.711 48.1458 148.954 49.4074 145.789 49.4074C140.241 49.4074 136.089 45.4522 136.089 40.2014C136.089 35.0869 140.071 31.2 145.346 31.2C150.588 31.2 154.536 35.0869 154.536 40.4059ZM145.312 35.9052C143.747 35.9052 142.487 36.9281 141.977 38.5647H148.648C148.171 36.9281 146.878 35.9052 145.312 35.9052Z"
    fill="black" />
  <path
    d="M167.166 31.6091H173.326L165.328 51.5895C164.307 54.2149 162.027 55.8857 159.44 55.8857C157.772 55.8857 155.764 55.1696 154.437 54.0786L156.547 49.7483C157.092 50.2257 157.806 50.5326 158.521 50.5326C159.27 50.5326 159.916 50.1916 160.291 49.3392L160.597 48.6232L153.858 31.6091H160.155L163.66 41.8039L167.166 31.6091Z"
    fill="black" />
  <path
    d="M44.0251 44.1146C42.1072 44.1146 40.434 43.0678 39.5475 41.5153C39.0589 40.6595 38.0165 40.0595 37.1154 40.4606C35.9364 40.9854 35.2804 42.3138 35.9047 43.442C37.4839 46.296 40.5285 48.2289 44.0251 48.2289C47.5217 48.2289 50.5663 46.296 52.1455 43.442C52.7697 42.3138 52.1138 40.9854 50.9348 40.4606C50.0337 40.0595 48.9913 40.6595 48.5027 41.5153C47.6161 43.0678 45.943 44.1146 44.0251 44.1146Z"
    fill="black" />
  <path fill-rule="evenodd" clip-rule="evenodd"
    d="M44.0241 56C52.8739 56 60.0481 48.8366 60.0481 40C60.0481 31.1634 52.8739 24 44.0241 24C35.1742 24 28 31.1634 28 40C28 48.8366 35.1742 56 44.0241 56ZM44.0241 52C50.6614 52 56.0421 46.6274 56.0421 40C56.0421 33.3726 50.6614 28 44.0241 28C37.3867 28 32.006 33.3726 32.006 40C32.006 46.6274 37.3867 52 44.0241 52Z"
    fill="black" />
</svg>
  