<?xml version="1.0" encoding="UTF-8"?>
<svg xmlns="http://www.w3.org/2000/svg" viewBox="0 0 120 120">
  <defs>
    <!-- Gradients -->
    <linearGradient id="blueGradient" x1="0%" y1="0%" x2="100%" y2="100%">
      <stop offset="0%" stop-color="#1E3A8A" />
      <stop offset="100%" stop-color="#3182ce" />
    </linearGradient>
    
    <linearGradient id="goldGradient" x1="0%" y1="0%" x2="100%" y2="100%">
      <stop offset="0%" stop-color="#F59E0B" />
      <stop offset="100%" stop-color="#FCD34D" />
    </linearGradient>
    
    <!-- Filters -->
    <filter id="logoShadow" x="-20%" y="-20%" width="140%" height="140%">
      <feDropShadow dx="2" dy="2" stdDeviation="2" flood-opacity="0.3" />
    </filter>
    
    <filter id="glow" x="-30%" y="-30%" width="160%" height="160%">
      <feGaussianBlur stdDeviation="3" result="blur" />
      <feComposite in="SourceGraphic" in2="blur" operator="over" />
    </filter>
    
    <!-- Circle background -->
    <radialGradient id="circleGradient" cx="50%" cy="50%" r="50%" fx="50%" fy="50%">
      <stop offset="0%" stop-color="#F9FAFB" />
      <stop offset="100%" stop-color="#F1F5F9" />
    </radialGradient>
  </defs>
  
  <!-- Background circle -->
  <circle cx="60" cy="60" r="60" fill="url(#circleGradient)" />
  
  <!-- Main logo symbol - open book with rising path -->
  <g transform="translate(60, 60)" filter="url(#logoShadow)">
    <!-- Book base -->
    <path d="M-45,-30 C-30,-40 -15,-40 0,-25 C15,-40 30,-40 45,-30 V15 C30,5 15,5 0,20 C-15,5 -30,5 -45,15 Z" 
          fill="white" stroke="#64748B" stroke-width="2" />
    
    <!-- Book pages -->
    <path d="M0,-25 V20" stroke="#64748B" stroke-width="2" />
    
    <!-- Rising path/knowledge -->
    <path d="M-30,0 C-22,-5 -15,-15 -7,-10 C0,-5 7,-15 15,-10 C22,-5 30,0 37,-15" 
          stroke="url(#goldGradient)" stroke-width="4" stroke-linecap="round" fill="none" />
    
    <!-- Small green highlight accent -->
    <circle cx="-15" cy="-10" r="3" fill="#10B981" opacity="0.8" filter="url(#glow)" />
  </g>
  
  <!-- Small mathematical symbols -->
  <g opacity="0.4">
    <text x="48" y="45" font-family="Arial, sans-serif" font-size="8" fill="#64748B">π</text>
    <text x="75" y="42" font-family="Arial, sans-serif" font-size="8" fill="#64748B">∞</text>
  </g>
</svg>