<svg width="24" height="14" viewBox="0 0 24 14" fill="none" xmlns="http://www.w3.org/2000/svg">
<path d="M6.54254 0.407471C5.90897 0.407471 5.24406 0.701467 4.72772 1.15985L4.66977 0.766536C4.65501 0.667484 4.57572 0.583711 4.45981 0.583711H3.90843C3.80753 0.583711 3.72534 0.666167 3.72534 0.766536C3.72534 3.26867 3.72534 5.77106 3.72534 8.27319C3.72534 8.37382 3.8078 8.45601 3.90843 8.45601H4.62893C4.72957 8.45601 4.81176 8.37356 4.81176 8.27319V5.68096C5.26882 6.0885 5.86314 6.32296 6.49855 6.32296C8.00804 6.32296 8.90057 5.01605 8.90057 3.38958C8.90057 1.86955 8.31706 0.407471 6.54254 0.407471ZM7.26357 5.06083C6.98275 5.3377 6.66926 5.41305 6.19718 5.41305C5.77699 5.41305 5.2243 5.19387 4.81149 4.88881V1.81633C5.24142 1.48625 5.78964 1.30764 6.2467 1.30764C7.44007 1.30764 7.76516 2.246 7.76516 3.32056C7.77201 4.04502 7.63871 4.69096 7.26357 5.06083Z" fill="#333E47"/>
<path d="M14.1773 6.00315C14.1773 6.10379 14.0948 6.18598 13.9937 6.18598H13.4557C13.3395 6.18598 13.2602 6.10194 13.2452 6.00315L13.1912 5.63697C12.9441 5.84614 12.6406 6.03002 12.3116 6.15805C11.6791 6.40384 10.9496 6.44441 10.3316 6.0648C9.88455 5.79056 9.64746 5.2542 9.64746 4.70072C9.64746 4.27263 9.77944 3.84823 10.0719 3.54028C10.462 3.1193 11.0279 2.9125 11.7107 2.9125C12.1232 2.9125 12.7136 2.96098 13.1433 3.10139V2.36455C13.1433 1.61534 12.8279 1.29131 11.9963 1.29131C11.3606 1.29131 10.8743 1.3872 10.1978 1.59769C10.0895 1.60138 10.026 1.51892 10.026 1.41829V0.998104C10.026 0.897208 10.1122 0.799736 10.2054 0.770231C10.6886 0.559481 11.3732 0.428289 12.1009 0.404053C13.0495 0.404053 14.177 0.617964 14.177 2.07714V6.00315H14.1773ZM13.1435 4.92727V3.81557C12.7826 3.71678 12.1852 3.67595 11.9541 3.67595C11.589 3.67595 11.1891 3.76235 10.9802 3.98707C10.8242 4.15198 10.7536 4.38855 10.7536 4.61721C10.7536 4.91305 10.8558 5.20968 11.0951 5.35641C11.3727 5.54504 11.8034 5.52212 12.2081 5.40699C12.5969 5.29688 12.9623 5.10141 13.1435 4.92727Z" fill="#333E47"/>
<path d="M15.1949 8.26343C15.1949 8.12697 15.1949 8.00447 15.1949 7.86801C15.1949 7.75553 15.2502 7.67781 15.3674 7.68492C15.5866 7.71601 15.8964 7.7471 16.1166 7.70178C16.404 7.64198 16.6101 7.43835 16.732 7.1591C16.9038 6.76605 17.0176 6.44914 17.0895 6.24129L14.9077 0.836075C14.8708 0.744399 14.86 0.574219 15.0431 0.574219H15.8058C15.9512 0.574219 16.0105 0.666685 16.0431 0.757044L17.6251 5.14749L19.1351 0.757044C19.1659 0.667212 19.2278 0.574219 19.3719 0.574219H20.0911C20.2732 0.574219 20.2629 0.744136 20.2265 0.836075L18.0621 6.40989C17.7821 7.15173 17.4091 8.33351 16.5687 8.53872C16.1475 8.64884 15.6158 8.60906 15.3037 8.4784C15.2249 8.43888 15.1949 8.33324 15.1949 8.26343Z" fill="#333E47"/>
<path d="M22.293 8.03824C21.5554 8.04851 20.6844 8.21369 20.0237 8.67734C19.8198 8.8188 19.8557 9.01533 20.0825 8.98925C20.8254 8.89994 22.479 8.69947 22.7745 9.07723C23.0709 9.455 22.4468 11.0135 22.171 11.7106C22.0857 11.9184 22.2661 12.0046 22.4566 11.8465C23.6926 10.8112 24.0138 8.64072 23.7609 8.32855C23.6341 8.17233 23.0306 8.02796 22.293 8.03824Z" fill="#F79C34"/>
<path d="M0.302326 8.82853C0.130038 8.85224 0.0557489 9.07063 0.23594 9.24371C3.33159 12.1473 7.42252 13.5691 11.9644 13.5691C15.2039 13.5691 18.965 12.5122 21.5612 10.5203C21.9903 10.1892 21.6247 9.69287 21.1845 9.88887C18.2738 11.1731 15.112 11.7922 12.2345 11.7922C7.96968 11.7922 3.84135 10.9018 0.501222 8.87937C0.428513 8.83512 0.359756 8.82063 0.302326 8.82853Z" fill="#F79C34"/>
</svg>
