<svg width="24" height="24" viewBox="0 0 24 24" fill="none" xmlns="http://www.w3.org/2000/svg">
<g clip-path="url(#clip0_4049_153767)">
<rect width="24" height="24" fill="#016FD0"/>
<path d="M8.07837 11.0908V21H18.5064L19.6454 19.5003L20.7718 21H26.5716V11.0908H20.8667L19.7024 11.9577L18.576 11.0908H8.07837Z" fill="white"/>
<path d="M9.35034 19.7282V12.3058H15.406V13.9636H11.2297V15.2355H15.311V16.7985H11.2297V18.1146H15.406V19.7282H9.35034Z" fill="#016FD0"/>
<path d="M15.6423 19.7282L18.6833 16.0644L15.5706 12.3058H17.9785L19.8318 14.6281L21.6915 12.3058H24.0081L20.9346 16.0138L23.982 19.7219H21.5741L19.773 17.4376L18.0176 19.7219L15.6423 19.7282Z" fill="#016FD0"/>
<path d="M9.12952 3L4.8999 12.2466H6.9226H9.6488L10.233 11.0908H11.7967L12.3809 12.2466H26.5717V3H20.4061L19.6861 5.083L18.9426 3H14.1984V5.87962L12.9474 3H9.12952Z" fill="white"/>
<path d="M9.90836 4.14471L6.93433 11.0664H8.86981L9.41859 9.67971H12.6109L13.1597 11.0664H15.1424L12.1684 4.14471H9.90836ZM11.0118 5.74975L11.9855 8.1691H10.0382L11.0118 5.74975Z" fill="#016FD0"/>
<path d="M15.3433 11.0605V4.13879L18.099 4.1506L19.6981 8.61164L21.2618 4.13879H23.9939V11.0605H22.265V5.96216L20.4298 11.0605H18.9133L17.0722 5.96216V11.0605H15.3433Z" fill="#016FD0"/>
</g>
<defs>
<clipPath id="clip0_4049_153767">
<rect width="24" height="24" fill="white"/>
</clipPath>
</defs>
</svg>
