 <svg width="24" height="18" viewBox="0 0 24 18" fill="none" xmlns="http://www.w3.org/2000/svg">
<path d="M12.2178 12.1307C11.9565 13.2463 11.2745 16.4417 10.9661 17.9C12.5171 17.9 16.4899 17.9 17.7688 14.8103C21.6599 14.1814 24.0001 10.955 24.0001 7.53715C24.0001 2.7522 19.9729 0.0999756 16.8436 0.0999756H11.9729V1.05696C11.9729 2.61549 12.3538 3.73653 13.1157 4.85758C14.3348 6.65125 16.1906 7.40044 17.8232 7.53715C14.8844 7.72855 12.7684 9.77924 12.2178 12.1307Z" fill="url(#paint0_linear_4086_68069)"/>
<path d="M7.04762 14.9196H11.2109L11.483 13.6892C11.5374 13.4158 11.5918 13.2791 11.5918 13.0877C11.483 11.912 11.0971 10.8183 10.4218 9.86127C9.36054 8.35743 7.64626 7.59183 6.17687 7.50981C7.78776 7.50981 9.60544 6.46869 10.4218 5.45912C11.8367 3.70919 11.9728 2.45143 11.9728 1.19368V0.0999756H7.40136C3.56463 0.0999756 0 3.02563 0 7.53715C5.83925e-06 12.3221 4.13605 14.9196 7.04762 14.9196Z" fill="url(#paint1_linear_4086_68069)"/>
<defs>
<linearGradient id="paint0_linear_4086_68069" x1="17.4831" y1="0.0999756" x2="17.4831" y2="17.9" gradientUnits="userSpaceOnUse">
<stop stop-color="#6E48FF"/>
<stop offset="1" stop-color="#3820B5"/>
</linearGradient>
<linearGradient id="paint1_linear_4086_68069" x1="5.98639" y1="0.0999756" x2="5.98639" y2="14.9196" gradientUnits="userSpaceOnUse">
<stop stop-color="#54F9F0"/>
<stop offset="1" stop-color="#289BAE"/>
</linearGradient>
</defs>
</svg>
