<svg width="24" height="20" viewBox="0 0 24 20" fill="none" xmlns="http://www.w3.org/2000/svg">
<path d="M24 10.0826C24 4.41536 19.2569 0.498291 14.0598 0.500001H9.58752C4.32859 0.498119 0 4.41655 0 10.0826C0 15.2662 4.3287 19.525 9.58752 19.4999H14.0598C19.2564 19.5248 24 15.2648 24 10.0826Z" fill="#0079BE"/>
<path d="M9.61551 1.30273C4.81009 1.30422 0.916266 5.19666 0.914551 10.0006C0.915751 14.8038 4.80975 18.6956 9.61551 18.6974C14.422 18.6959 18.317 14.8038 18.3176 10.0006C18.317 5.19654 14.4221 1.30444 9.61551 1.30273Z" fill="white"/>
<path d="M4.11621 9.97713C4.12078 7.62965 5.58792 5.62785 7.65673 4.8324V15.1207C5.58792 14.3257 4.12073 12.3249 4.11621 9.97713ZM11.6042 15.1233V4.83268C13.6739 5.62625 15.1433 7.62919 15.147 9.97776C15.1433 12.3271 13.6739 14.3285 11.6042 15.1236V15.1233Z" fill="#0079BE"/>
</svg>
