<svg width="24" height="17" viewBox="0 0 24 17" fill="none" xmlns="http://www.w3.org/2000/svg">
<path d="M0 0.854679C0 0.658795 0.158796 0.5 0.35468 0.5H15.75C20.3063 0.5 24 4.19365 24 8.75C24 13.3063 20.3063 17 15.75 17H0.35468C0.158795 17 0 16.8412 0 16.6453V0.854679Z" fill="url(#paint0_linear_2279_28123)"/>
<path d="M1 2.0155V15.4845C1 15.7687 1.23058 16 1.51396 16H15.7717C19.7638 16 23 12.7542 23 8.75003C23 4.74586 19.7638 1.5 15.7717 1.5H1.51396C1.23058 1.5 1 1.7312 1 2.0155Z" fill="white"/>
<path d="M3.5383 9.65001C3.35496 9.81557 3.11667 9.88783 2.73979 9.88783H2.58307V7.90937H2.73979C3.11667 7.90937 3.34552 7.9768 3.5383 8.1513C3.74025 8.33112 3.86138 8.6093 3.86138 8.89594C3.86138 9.18331 3.74025 9.47044 3.5383 9.65001ZM2.85667 7.40231H2V10.3944H2.85204C3.30512 10.3944 3.63243 10.2876 3.91963 10.0488C4.26092 9.76626 4.46268 9.34065 4.46268 8.90054C4.46268 8.01741 3.80304 7.40231 2.85667 7.40231Z" fill="#231F20"/>
<path d="M4.73145 10.3944H5.31488V7.40231H4.73145V10.3944Z" fill="#231F20"/>
<path d="M6.74188 8.55063C6.39162 8.42084 6.28881 8.33553 6.28881 8.17384C6.28881 7.98532 6.47205 7.84224 6.72356 7.84224C6.89851 7.84224 7.0421 7.91402 7.19419 8.08466L7.49962 7.68466C7.24857 7.46521 6.94835 7.35306 6.62048 7.35306C6.09103 7.35306 5.68725 7.72067 5.68725 8.21033C5.68725 8.62241 5.8753 8.83341 6.42345 9.03062C6.65173 9.11135 6.76803 9.165 6.82676 9.20125C6.94325 9.27714 7.00179 9.38494 7.00179 9.51061C7.00179 9.75303 6.80902 9.9326 6.54853 9.9326C6.27039 9.9326 6.04608 9.79363 5.91175 9.53382L5.53467 9.89659C5.80355 10.2913 6.12642 10.4662 6.57052 10.4662C7.17701 10.4662 7.60253 10.0631 7.60253 9.48403C7.60253 9.00839 7.40587 8.79328 6.74188 8.55063Z" fill="#231F20"/>
<path d="M7.78638 8.90055C7.78638 9.77981 8.47698 10.4616 9.36566 10.4616C9.61678 10.4616 9.83186 10.4123 10.0972 10.2876V9.60047C9.86386 9.83394 9.65719 9.92796 9.39266 9.92796C8.80487 9.92796 8.38777 9.50186 8.38777 8.89595C8.38777 8.3217 8.81826 7.86854 9.36566 7.86854C9.64387 7.86854 9.85479 7.96787 10.0972 8.20521V7.51857C9.84111 7.38854 9.63048 7.33489 9.37934 7.33489C8.4953 7.33489 7.78638 8.03047 7.78638 8.90055Z" fill="#231F20"/>
<path d="M14.7245 9.41199L13.9264 7.40236H13.2891L14.5587 10.4713H14.8728L16.1653 7.40236H15.5326L14.7245 9.41199Z" fill="#231F20"/>
<path d="M16.4292 10.3944H18.0844V9.88783H17.0125V9.08011H18.0446V8.57329H17.0125V7.90937H18.0844V7.40231H16.4292V10.3944Z" fill="#231F20"/>
<path d="M19.2242 8.77993H19.0534V7.8736H19.2332C19.5968 7.8736 19.7944 8.02587 19.7944 8.3171C19.7944 8.618 19.5968 8.77993 19.2242 8.77993ZM20.3951 8.28568C20.3951 7.72545 20.009 7.40231 19.336 7.40231H18.4707V10.3944H19.0534V9.19249H19.1298L19.9376 10.3944H20.6552L19.7131 9.13376C20.1529 9.04434 20.3951 8.74392 20.3951 8.28568Z" fill="#231F20"/>
<path d="M20.7491 7.59518H20.7383V7.5263H20.7497C20.7808 7.5263 20.797 7.53741 20.797 7.56013C20.797 7.58357 20.7806 7.59518 20.7491 7.59518ZM20.8601 7.55941C20.8601 7.50672 20.8238 7.47796 20.7601 7.47796H20.6755V7.74164H20.7383V7.6394L20.8121 7.74164H20.8891L20.8024 7.63288C20.8393 7.62297 20.8601 7.5959 20.8601 7.55941Z" fill="#231F20"/>
<path d="M20.7718 7.79845C20.671 7.79845 20.5886 7.71434 20.5886 7.60969C20.5886 7.50456 20.6702 7.42069 20.7718 7.42069C20.8723 7.42069 20.9539 7.50649 20.9539 7.60969C20.9539 7.71338 20.8723 7.79845 20.7718 7.79845ZM20.7728 7.37936C20.6447 7.37936 20.543 7.4816 20.543 7.60921C20.543 7.73706 20.6459 7.83954 20.7728 7.83954C20.8976 7.83954 20.9999 7.73585 20.9999 7.60921C20.9999 7.48329 20.8976 7.37936 20.7728 7.37936Z" fill="#231F20"/>
<circle cx="11.9022" cy="8.91396" r="1.58608" fill="url(#paint1_linear_2279_28123)"/>
<defs>
<linearGradient id="paint0_linear_2279_28123" x1="1.42115e-07" y1="-1.83401e-07" x2="24" y2="17" gradientUnits="userSpaceOnUse">
<stop stop-color="#E15927"/>
<stop offset="1" stop-color="#F5901F"/>
</linearGradient>
<linearGradient id="paint1_linear_2279_28123" x1="10.2255" y1="7.32788" x2="13.4883" y2="10.4094" gradientUnits="userSpaceOnUse">
<stop stop-color="#DC411B"/>
<stop offset="0.510466" stop-color="#EB5818"/>
<stop offset="1" stop-color="#F69213"/>
</linearGradient>
</defs>
</svg>
