<svg width="20" height="20" viewBox="0 0 20 20" fill="none" xmlns="http://www.w3.org/2000/svg">
<g id="Logo/Youtube">
<path id="Vector" d="M18.9847 6.33301C18.9847 6.33301 18.8057 5.06901 18.2542 4.514C17.556 3.78353 16.7754 3.77995 16.4173 3.73698C13.8535 3.55078 10.0042 3.55078 10.0042 3.55078H9.99707C9.99707 3.55078 6.14779 3.55078 3.58398 3.73698C3.22591 3.77995 2.44531 3.78353 1.74707 4.514C1.19564 5.06901 1.02018 6.33301 1.02018 6.33301C1.02018 6.33301 0.833984 7.81901 0.833984 9.30143V10.6908C0.833984 12.1732 1.0166 13.6592 1.0166 13.6592C1.0166 13.6592 1.19564 14.9232 1.74349 15.4782C2.44173 16.2087 3.3584 16.1836 3.7666 16.2624C5.2347 16.402 10.0007 16.445 10.0007 16.445C10.0007 16.445 13.8535 16.4378 16.4173 16.2552C16.7754 16.2122 17.556 16.2087 18.2542 15.4782C18.8057 14.9232 18.9847 13.6592 18.9847 13.6592C18.9847 13.6592 19.1673 12.1768 19.1673 10.6908V9.30143C19.1673 7.81901 18.9847 6.33301 18.9847 6.33301ZM8.10645 12.3773V7.22461L13.0586 9.8099L8.10645 12.3773Z" fill="black"/>
</g>
</svg>
