<svg xmlns="http://www.w3.org/2000/svg" width="25" height="24" viewBox="0 0 25 24" fill="none">
<path d="M9.70211 12.1485L11.6627 14.1085L15.7169 10.0556M4.18648 7.18203C4.14771 8.0513 4.06685 9.94929 4.05356 10.5871C4.03044 11.6668 4.13664 13.4108 4.95079 15.1715C6.31028 18.1115 7.92426 19.3739 10.3169 20.7193C11.0314 21.1211 11.5464 21.5 12.4769 21.5C13.3077 21.5 14.0122 21.0781 14.6369 20.7193C16.6308 19.5743 18.3588 18.6431 20.0702 15.1715C20.7007 13.8925 20.9508 12.0621 20.9508 10.5871C20.912 9.9061 20.8112 8.28163 20.7182 7.23186C20.6151 6.06915 20.0535 5.05593 18.4585 4.47458C17.1292 3.99288 14.2946 2.96969 13.5901 2.73051C12.7095 2.43152 12.1446 2.41491 11.1975 2.73051C10.4332 2.99627 7.3261 4.14237 6.37902 4.47458C5.13286 4.91168 4.24776 5.75356 4.18648 7.18203Z" stroke="darkblue" stroke-width="2" stroke-linecap="round" stroke-linejoin="round"/>
</svg>