<svg width="22" height="25" viewBox="0 0 22 25" fill="none" xmlns="http://www.w3.org/2000/svg">
<path d="M15.668 5.99992L14.3781 3.42025C13.7386 2.1412 12.4313 1.33325 11.0013 1.33325C9.57128 1.33325 8.264 2.1412 7.62447 3.42025L6.33464 5.99992M1.66797 5.99992H20.3346M4.0013 5.99992H18.0013V16.4999C18.0013 18.6743 18.0013 19.7615 17.6461 20.6191C17.1724 21.7626 16.264 22.6711 15.1205 23.1447C14.2629 23.4999 13.1757 23.4999 11.0013 23.4999C8.82691 23.4999 7.73971 23.4999 6.88211 23.1447C5.73865 22.6711 4.83017 21.7626 4.35653 20.6191C4.0013 19.7615 4.0013 18.6743 4.0013 16.4999V5.99992Z" stroke="#C7232C" stroke-width="2.33333" stroke-linecap="round" stroke-linejoin="round"/>
</svg>
