<svg width="24" height="24" viewBox="0 0 24 24" fill="none" xmlns="http://www.w3.org/2000/svg">
<path d="M2.18701 7.75764C2.06234 8.35396 2 9.02527 2 9.43256C2 9.92622 2 12.6722 2 13.9835C2 16.3857 2.37424 17.5991 3.58503 18.6777C4.88387 19.8347 5.8415 20 8.20804 20C9.36158 20 14.251 20 16.5515 20C18.7749 20 19.8909 19.405 21.0644 17.9504C21.989 16.8044 22 15.0524 22 13.8843C22 12.7163 22 11.405 22 9.89537C22 8.94496 21.9258 8.2828 21.8132 7.76866M2.18701 7.75764C2.25123 7.45049 2.33198 7.16324 2.42928 6.94221C2.71547 6.29208 3.32086 5.34443 4.48762 4.66123C5.65438 3.97804 7.29444 4.00008 8.69235 4.00008C10.0903 4.00008 15.2526 4.00008 16.1112 4.00008C16.9697 4.00008 18.6318 4.08824 19.4463 4.62818C20.2609 5.16812 21.0644 5.74112 21.5817 6.9863C21.6674 7.21488 21.7469 7.46615 21.8132 7.76866M2.18701 7.75764C4.17201 9.02853 8.33572 11.6871 9.11062 12.1543C10.0793 12.7383 10.8057 13.0799 11.9615 13.0799C13.1172 13.0799 13.8217 12.7714 14.5261 12.3637C15.0897 12.0375 19.619 9.16443 21.8132 7.76866" stroke="darkblue" stroke-width="2" stroke-linecap="round" stroke-linejoin="round"/>
</svg>