<svg width="22" height="24" viewBox="0 0 22 24" fill="none" xmlns="http://www.w3.org/2000/svg">
<path d="M11.0013 17.8333V15.5M11.0013 15.5C11.5998 15.5 12.085 14.9777 12.085 14.3333C12.085 13.689 11.5998 13.1667 11.0013 13.1667C10.4028 13.1667 9.91766 13.689 9.91766 14.3333C9.91766 14.9777 10.4028 15.5 11.0013 15.5ZM17.5032 8.77841V8.5C17.5032 4.63401 14.5922 1.5 11.0013 1.5C7.41041 1.5 4.49942 4.63401 4.49942 8.5V8.77841M17.5032 8.77841C16.7029 8.5 15.6276 8.5 13.6879 8.5H8.31472C6.37505 8.5 5.29973 8.5 4.49942 8.77841M17.5032 8.77841C17.6008 8.81239 17.6944 8.85051 17.7849 8.89328C18.895 9.41765 19.7503 10.4185 20.1435 11.653C20.4384 12.5788 20.348 13.7463 20.1673 16.0813C20.0118 18.091 19.934 19.0958 19.5756 19.8844C19.0977 20.9359 18.2702 21.7556 17.2573 22.181C16.4976 22.5 15.561 22.5 13.6879 22.5H8.31472C6.44161 22.5 5.50506 22.5 4.74534 22.181C3.73238 21.7556 2.90491 20.9359 2.42704 19.8844C2.06863 19.0958 1.99085 18.091 1.8353 16.0813C1.65456 13.7463 1.56419 12.5788 1.85909 11.653C2.25228 10.4185 3.10764 9.41765 4.21766 8.89328C4.3082 8.85051 4.40176 8.81239 4.49942 8.77841" stroke="black" stroke-width="2.33333" stroke-linecap="round" stroke-linejoin="round"/>
</svg>
