<svg width="24" height="24" viewBox="0 0 24 24" fill="none" xmlns="http://www.w3.org/2000/svg">
<path fill-rule="evenodd" clip-rule="evenodd" d="M18.1386 3.04345C16.4818 1.4639 14.2554 0.543213 11.9968 0.543213C7.7681 0.543213 3.13018 4.17102 3.13018 9.4268V12.3666C3.13018 12.9094 3.02654 13.2377 2.91308 13.4609C2.79302 13.6971 2.62608 13.8898 2.37098 14.1455C2.33144 14.1851 2.28898 14.2266 2.24433 14.2703C1.73185 14.7713 0.930176 15.555 0.930176 17.0212C0.930176 17.8925 1.34831 18.6392 1.87249 19.1461C1.90008 19.1727 1.92828 19.1991 1.95708 19.225L0.67374 20.5083C0.218128 20.9639 0.218128 21.7026 0.67374 22.1583C1.12935 22.6139 1.86804 22.6139 2.32366 22.1583L21.5737 2.90825C22.0293 2.45264 22.0293 1.71395 21.5737 1.25833C21.118 0.802723 20.3794 0.802723 19.9237 1.25833L18.1386 3.04345ZM11.9968 2.87655C8.89225 2.87655 5.46351 5.61826 5.46351 9.4268V12.3666C5.46351 13.2324 5.29214 13.93 4.99311 14.5182C4.70066 15.0936 4.31761 15.498 4.02271 15.7936L3.94928 15.8671C3.4036 16.4131 3.26351 16.5533 3.26351 17.0212C3.26351 17.1299 3.32204 17.3019 3.49453 17.4687C3.53478 17.5076 3.57513 17.5404 3.61436 17.5677L16.4881 4.69394C15.2729 3.54812 13.6493 2.87655 11.9968 2.87655Z" fill="black"/>
<path fill-rule="evenodd" clip-rule="evenodd" d="M7.56726 20.81C7.39541 20.4725 7.49008 20.0716 7.74564 19.792L9.14498 18.2612C9.47652 17.8985 9.94526 17.6919 10.4366 17.6919H20.0635C20.3945 17.6919 20.7302 17.3592 20.7302 17.0212C20.7302 16.5061 20.5401 16.3043 19.949 15.6791C19.6668 15.3805 19.2935 14.9749 19.0068 14.427C18.7096 13.8587 18.5302 13.1898 18.5302 12.3666L18.5271 11.1887C18.5271 11.123 18.5299 10.4731 18.5275 9.38454C18.5272 9.28025 18.5685 9.1798 18.6423 9.10606L20.2542 7.49412C20.3978 7.35052 20.6418 7.41764 20.6825 7.6166V7.6166C20.8007 8.19488 20.8635 8.79947 20.8635 9.4268V12.3666C20.8635 12.8295 20.9591 13.1252 21.0744 13.3455C21.2002 13.5861 21.3769 13.7929 21.6447 14.0762C21.6779 14.1114 21.7128 14.1478 21.7491 14.1857C22.2686 14.7273 23.0635 15.5563 23.0635 17.0212C23.0635 18.6431 21.688 20.0253 20.0635 20.0253H16.5886C16.3897 20.9502 15.9474 21.7262 15.3002 22.3115C14.4161 23.1111 13.2607 23.455 12.1191 23.455C10.2823 23.455 8.39182 22.4297 7.56726 20.81ZM9.97837 20.0253C10.4103 20.6744 11.1939 21.1217 12.1191 21.1217C12.8108 21.1217 13.3665 20.9143 13.7351 20.5809C13.8898 20.4411 14.0328 20.26 14.1443 20.0253H9.97837Z" fill="black"/>
</svg>
