<svg width="24" height="24" viewBox="0 0 24 24" fill="none" xmlns="http://www.w3.org/2000/svg">
<path d="M8.45321 18.8587H3.93099C3.05099 18.8587 2.09766 18.0012 2.09766 17.0213C2.09766 14.939 4.29766 15.184 4.29766 12.3667C4.29766 12.0809 4.29766 11.0928 4.29766 9.42688C4.29766 4.89472 8.33099 1.70996 11.9977 1.70996C15.9088 1.70996 19.6977 4.89472 19.6977 9.42688C19.6977 10.1618 19.6977 11.7787 19.6977 12.3667C19.6977 14.939 21.8977 14.939 21.8977 17.0213C21.8977 18.0012 21.0421 18.8587 20.0643 18.8587H15.5421M8.45321 18.8587C8.45321 20.8185 10.1643 22.2884 12.1199 22.2884C13.9532 22.2884 15.5421 21.186 15.5421 18.8587M8.45321 18.8587H15.5421" stroke="darkblue" stroke-width="2.33" stroke-linecap="round"/>
</svg>
