<svg xmlns="http://www.w3.org/2000/svg" width="25" height="24" viewBox="0 0 25 24" fill="none">
  <mask id="path-1-inside-1_16888_2236" fill="white">
    <path d="M21.4532 15.651L19.4411 14.002C18.1302 12.9276 16.0953 13.0293 14.8994 14.2256L14.8195 14.3055C14.619 14.5061 14.2924 14.5045 14.0947 14.3067L10.207 10.4177C10.0107 10.2214 10.0069 9.90558 10.196 9.70508C10.1994 9.70144 10.2029 9.69784 10.2065 9.69425L10.1958 9.70494C10.1993 9.70139 10.2029 9.6978 10.2064 9.69425C11.3957 8.49317 11.5095 6.44819 10.4677 5.13064L8.83574 3.06673C7.78677 1.74007 5.96367 1.63759 4.76792 2.83373L4.46816 3.1336C2.34429 5.25818 1.84381 9.08748 3.43692 11.6335C3.43692 11.6335 4.37473 13.8091 7.53957 16.975C10.7044 20.1409 12.8793 21.0791 12.8793 21.0791C15.4482 22.6339 19.2512 22.1734 21.3746 20.0492L21.6601 19.7637C22.8567 18.5666 22.7632 16.7246 21.4532 15.651Z"/>
  </mask>
  <path d="M21.4532 15.651L20.1855 17.1979L20.1855 17.1979L21.4532 15.651ZM19.4411 14.002L20.7088 12.4551L20.7088 12.4551L19.4411 14.002ZM14.8994 14.2256L13.485 12.8116L13.4849 12.8116L14.8994 14.2256ZM14.8195 14.3055L16.234 15.7194L16.234 15.7194L14.8195 14.3055ZM14.0947 14.3067L15.5093 12.8929L15.5091 12.8927L14.0947 14.3067ZM10.207 10.4177L11.6215 9.00371H11.6215L10.207 10.4177ZM10.196 9.70508L8.74384 8.32983L8.7411 8.33274L10.196 9.70508ZM10.2065 9.69425L11.6304 11.0987L8.79202 8.28027L10.2065 9.69425ZM10.2064 9.69425L11.6209 11.1082L11.6276 11.1015L10.2064 9.69425ZM10.4677 5.13064L12.0365 3.89017L12.0365 3.89015L10.4677 5.13064ZM8.83574 3.06673L7.26691 4.30719L7.26693 4.30722L8.83574 3.06673ZM4.76792 2.83373L6.18238 4.24771L6.18238 4.24771L4.76792 2.83373ZM4.46816 3.1336L3.05371 1.71962L3.05371 1.71962L4.46816 3.1336ZM3.43692 11.6335L5.27355 10.8418L5.21321 10.7018L5.13236 10.5726L3.43692 11.6335ZM12.8793 21.0791L13.9149 19.3681L13.7975 19.297L13.6715 19.2426L12.8793 21.0791ZM21.3746 20.0492L22.789 21.4632L22.789 21.4632L21.3746 20.0492ZM21.6601 19.7637L20.2456 18.3497L20.2456 18.3497L21.6601 19.7637ZM22.7209 14.1041L20.7088 12.4551L18.1733 15.5488L20.1855 17.1979L22.7209 14.1041ZM20.7088 12.4551C18.6029 10.7292 15.4081 10.8879 13.485 12.8116L16.3138 15.6396C16.7825 15.1707 17.6575 15.1261 18.1733 15.5488L20.7088 12.4551ZM13.4849 12.8116L13.4051 12.8915L16.234 15.7194L16.3139 15.6395L13.4849 12.8116ZM13.4051 12.8915C13.9865 12.3098 14.9267 12.31 15.5093 12.8929L12.68 15.7205C13.658 16.699 15.2515 16.7023 16.234 15.7194L13.4051 12.8915ZM15.5091 12.8927L11.6215 9.00371L8.79255 11.8317L12.6802 15.7206L15.5091 12.8927ZM11.6215 9.00371C12.19 9.57245 12.2039 10.4911 11.6509 11.0774L8.7411 8.33274C7.80979 9.32007 7.83148 10.8703 8.79255 11.8317L11.6215 9.00371ZM11.6481 11.0803C11.6395 11.0894 11.6331 11.096 11.6304 11.0987L8.78257 8.2898C8.7728 8.2997 8.75935 8.31347 8.74384 8.32984L11.6481 11.0803ZM8.79202 8.28027L8.78134 8.29096L11.6102 11.1189L11.6209 11.1082L8.79202 8.28027ZM11.6102 11.1189C11.6148 11.1143 11.619 11.1101 11.6203 11.1088C11.6225 11.1066 11.6219 11.1072 11.6209 11.1082L8.79197 8.28027C8.7874 8.28485 8.78324 8.28904 8.78187 8.29042C8.77969 8.29261 8.78031 8.29199 8.78134 8.29096L11.6102 11.1189ZM11.6276 11.1015C13.5257 9.18449 13.7076 6.00351 12.0365 3.89017L8.89888 6.37111C9.31144 6.89288 9.26567 7.80185 8.78524 8.28704L11.6276 11.1015ZM12.0365 3.89015L10.4046 1.82624L7.26693 4.30722L8.8989 6.37113L12.0365 3.89015ZM10.4046 1.82627C8.61036 -0.442932 5.39185 -0.619305 3.35347 1.41976L6.18238 4.24771C6.38898 4.04104 6.59239 3.99236 6.74316 4.00094C6.89336 4.0095 7.08743 4.0802 7.26691 4.30719L10.4046 1.82627ZM3.35347 1.41976L3.05371 1.71962L5.88261 4.54757L6.18238 4.24771L3.35347 1.41976ZM3.05371 1.71962C0.29681 4.47745 -0.364726 9.32837 1.74147 12.6944L5.13236 10.5726C4.05234 8.84658 4.39177 6.03892 5.88261 4.54757L3.05371 1.71962ZM3.43692 11.6335C1.60028 12.4252 1.60055 12.4258 1.60083 12.4264C1.60093 12.4267 1.60121 12.4273 1.6014 12.4278C1.60179 12.4287 1.6022 12.4296 1.60262 12.4306C1.60346 12.4325 1.60436 12.4346 1.60532 12.4368C1.60725 12.4412 1.60942 12.4461 1.61184 12.4516C1.61668 12.4625 1.62253 12.4755 1.62942 12.4905C1.6432 12.5207 1.66114 12.559 1.68358 12.6053C1.72846 12.6979 1.79128 12.8223 1.87459 12.976C2.04124 13.2834 2.28971 13.708 2.64029 14.2309C3.34185 15.2772 4.44992 16.7132 6.12512 18.389L8.95402 15.5611C7.46437 14.0709 6.52112 12.8362 5.96256 12.0032C5.68309 11.5864 5.4993 11.2692 5.39121 11.0698C5.33715 10.9701 5.30198 10.8997 5.28321 10.861C5.27382 10.8416 5.26853 10.8301 5.26702 10.8268C5.26627 10.8252 5.26646 10.8256 5.26757 10.8281C5.26812 10.8293 5.26889 10.8311 5.26989 10.8334C5.27039 10.8345 5.27095 10.8358 5.27156 10.8372C5.27186 10.8379 5.27218 10.8386 5.27252 10.8394C5.27268 10.8398 5.27294 10.8404 5.27302 10.8406C5.27329 10.8412 5.27355 10.8418 3.43692 11.6335ZM6.12512 18.389C7.80032 20.0648 9.23594 21.1732 10.2819 21.8751C10.8046 22.2258 11.2291 22.4743 11.5365 22.6411C11.6901 22.7244 11.8144 22.7873 11.907 22.8322C11.9533 22.8546 11.9917 22.8726 12.0218 22.8864C12.0369 22.8932 12.0499 22.8991 12.0608 22.9039C12.0662 22.9064 12.0712 22.9085 12.0756 22.9105C12.0778 22.9114 12.0798 22.9123 12.0818 22.9132C12.0827 22.9136 12.0837 22.914 12.0846 22.9144C12.085 22.9146 12.0857 22.9149 12.0859 22.915C12.0866 22.9152 12.0872 22.9155 12.8793 21.0791C13.6715 19.2426 13.6721 19.2429 13.6727 19.2432C13.6729 19.2432 13.6735 19.2435 13.6739 19.2437C13.6746 19.244 13.6754 19.2443 13.6761 19.2446C13.6775 19.2452 13.6787 19.2458 13.6799 19.2463C13.6822 19.2473 13.6839 19.2481 13.6852 19.2486C13.6877 19.2497 13.6881 19.2499 13.6864 19.2492C13.6831 19.2477 13.6717 19.2424 13.6523 19.233C13.6136 19.2142 13.5433 19.1791 13.4436 19.125C13.2443 19.0169 12.9273 18.833 12.5106 18.5535C11.6779 17.9948 10.4437 17.0512 8.95402 15.5611L6.12512 18.389ZM11.8437 22.7901C15.2002 24.8216 20.0146 24.2386 22.789 21.4632L19.9601 18.6353C18.4878 20.1081 15.6963 20.4462 13.9149 19.3681L11.8437 22.7901ZM22.789 21.4632L23.0745 21.1776L20.2456 18.3497L19.9601 18.6353L22.789 21.4632ZM23.0745 21.1776C25.1096 19.1419 24.9428 15.925 22.7209 14.1041L20.1855 17.1979C20.4122 17.3837 20.4906 17.5911 20.4992 17.7618C20.5078 17.9321 20.4509 18.1443 20.2456 18.3497L23.0745 21.1776Z" fill="darkblue" mask="url(#path-1-inside-1_16888_2236)"/>
</svg>