<svg width="24" height="24" viewBox="0 0 24 24" fill="none" xmlns="http://www.w3.org/2000/svg">
<path d="M19.2199 8.5C20.3714 9.36362 21.4112 10.3655 22.3164 11.4825C22.4388 11.6336 22.5 11.8168 22.5 12M19.2199 15.5C20.3714 14.6364 21.4112 13.6345 22.3164 12.5175C22.4388 12.3664 22.5 12.1832 22.5 12M22.5 12H7.33333M13.1667 3.28242C11.9282 2.17399 10.2928 1.5 8.5 1.5C4.63401 1.5 1.5 4.63401 1.5 8.5V15.5C1.5 19.366 4.63401 22.5 8.5 22.5C10.2928 22.5 11.9282 21.826 13.1667 20.7176" stroke="darkblue" stroke-width="2.33333" stroke-linecap="round" stroke-linejoin="round"/>
</svg>
