<svg width="20" height="20" viewBox="0 0 20 20" fill="none" xmlns="http://www.w3.org/2000/svg">
<path d="M13.2322 1.71704C12.9089 1.19889 12.3489 0.914721 11.6407 1.02275C10.8605 1.14177 5.59594 2.06419 3.06121 2.51052C2.13549 2.70889 1.50731 3.41972 1.77181 4.79178C1.9834 5.88943 3.34775 13.7515 4.06959 17.752C4.2097 18.5289 4.96226 19.1313 5.93758 18.9752C6.76412 18.843 14.2195 17.5205 14.7485 17.3883C15.2775 17.256 15.9718 16.8097 15.79 15.6691C15.7777 15.5919 15.7573 15.4685 15.73 15.3054M13.2322 1.71704C13.3541 1.9125 13.4424 2.14125 13.4922 2.39481C13.6617 3.25788 15.3543 13.0583 15.73 15.3054M13.2322 1.71704C14.4282 1.99256 16.8863 2.56012 17.1507 2.62624C18.1261 2.87007 18.4401 3.73381 18.2252 4.69259L15.73 15.3054" stroke="black" stroke-width="2"/>
</svg>
