<svg width="18" height="22" viewBox="0 0 18 22" fill="none" xmlns="http://www.w3.org/2000/svg">
<path d="M5.09922 14.2591H8.99922M5.09922 10.3066H12.9337M5.09922 6.42336H12.9337M1.19922 19.2518C1.19922 15.5998 1.19922 7.96277 1.19922 6.63139C1.19922 4.96715 1.23373 3.78832 2.26913 2.7135C3.30453 1.63869 4.65055 1.5 6.16913 1.5C7.68771 1.5 11.6567 1.5 12.0364 1.5C13.9346 1.5 14.97 1.81204 15.9364 2.9562C16.5576 3.69174 16.7992 4.58577 16.7992 5.83394C16.7992 9.41667 16.7992 17.2894 16.7992 19.4252C16.7992 20.292 16.247 20.5 15.8328 20.5C15.1771 20.5 14.0382 19.4252 12.7612 19.4252C11.5532 19.4252 10.1727 20.4307 8.99922 20.4307C7.86028 20.4307 6.37621 19.4252 5.23727 19.4252C4.09833 19.4252 2.89037 20.5 2.09656 20.5C1.47532 20.5 1.19922 19.9175 1.19922 19.2518Z" stroke="black" stroke-width="1.95894" stroke-linecap="round"/>
</svg>
