<svg width="28" height="28" viewBox="0 0 28 28" fill="none" xmlns="http://www.w3.org/2000/svg">
<path d="M9.58121 23.9117C8.63669 23.9117 6.65111 23.9117 6.26491 23.9117C5.00556 23.9117 4.08203 22.8626 4.08203 21.7296C4.08203 19.0858 6.22293 17.3022 8.51076 17.3022H12.0579" stroke="darkblue" stroke-width="2.33333" stroke-linecap="round"/>
<path d="M13.9692 22.1912C13.9524 22.4933 13.9202 23.4641 13.9062 23.9118C14.424 23.9048 15.5014 23.8908 15.6693 23.8908C15.8792 23.8908 16.341 23.8698 16.8028 23.4082L23.4773 16.7357C23.7628 16.4504 23.9181 16.1902 23.9181 15.9174C23.9181 15.7496 23.8761 15.5736 23.7712 15.3719C23.5403 14.928 23.0995 14.5116 22.6378 14.1759C22.4069 14.008 22.176 13.9451 21.9871 13.9451C21.7982 13.9451 21.5253 14.029 21.3154 14.2388L14.5569 20.9952C14.0742 21.4778 13.9902 21.8135 13.9692 22.1912Z" stroke="darkblue" stroke-width="2.33333" stroke-linejoin="round"/>
<path d="M8.49609 8.48958C8.49609 10.9445 10.4271 12.8959 12.9038 12.8959C15.5275 12.8959 17.3116 10.6927 17.3116 8.48958C17.3116 6.22347 15.4435 4.08325 12.9038 4.08325C10.532 4.08325 8.49609 6.03463 8.49609 8.48958Z" stroke="darkblue" stroke-width="2.33333"/>
</svg>
