<svg width="100" height="100" viewBox="0 0 100 100" fill="none" xmlns="http://www.w3.org/2000/svg">
    <path
        d="M40.2049 67.8378C37.4936 70.496 33.1408 70.4529 30.4827 67.7415C27.8245 65.0302 27.8676 60.6775 30.5789 58.0193C36.263 52.4467 43.038 49.5536 50.0891 49.5536C57.7633 49.5536 64.5716 53.258 69.4246 58.0228C72.134 60.6829 72.1739 65.0357 69.5138 67.7451C66.8537 70.4545 62.5009 70.4944 59.7915 67.8343C56.8061 64.9032 53.2818 63.3036 50.0891 63.3036C47.0214 63.3036 43.6064 64.503 40.2049 67.8378Z"
        fill="black" fill-opacity="0.3" />
    <path fill-rule="evenodd" clip-rule="evenodd"
        d="M49.9109 5.625C27.829 5.625 5.625 23.5274 5.625 49.9109C5.625 74.5405 25.5273 94.375 49.9109 94.375C75.3748 94.375 94.2859 73.368 94.2859 50C94.2859 26.6915 75.9132 5.625 49.9109 5.625ZM19.375 49.9109C19.375 31.9358 34.582 19.375 49.9109 19.375C67.8042 19.375 80.5359 33.7598 80.5359 50C80.5359 66.1807 67.3806 80.625 49.9109 80.625C33.1425 80.625 19.375 66.9678 19.375 49.9109Z"
        fill="black" fill-opacity="0.3" />
</svg>