<svg width="110" height="32" viewBox="0 0 110 32" fill="none" xmlns="http://www.w3.org/2000/svg">
    <path d="M11.261 6.15381C14.7789 6.15381 17.1344 8.47935 17.1344 11.9983V22.1266H12.1787V13.6506C12.1787 12.0289 11.1693 10.9579 9.57855 10.9579C7.89608 10.9579 6.76424 12.0595 6.76424 13.7118V22.1266H1.80859V6.521H6.76424V7.89796C7.95726 6.73519 9.48678 6.15381 11.261 6.15381Z" fill="black"/>
    <path d="M27.0949 22.4938C22.2616 22.4938 18.6519 18.9749 18.6519 14.3238C18.6519 9.67272 22.2616 6.15381 27.0949 6.15381C31.8976 6.15381 35.5378 9.67272 35.5378 14.3238C35.5378 18.9749 31.8976 22.4938 27.0949 22.4938ZM27.0949 17.6897C28.9915 17.6897 30.4292 16.2515 30.4292 14.3238C30.4292 12.396 28.9915 10.9579 27.0949 10.9579C25.1677 10.9579 23.73 12.396 23.73 14.3238C23.73 16.2515 25.1677 17.6897 27.0949 17.6897Z" fill="black"/>
    <path d="M56.2349 6.15381C59.7528 6.15381 61.9859 8.41815 61.9859 11.9065V22.1266H57.0302V13.4058C57.0302 11.9371 56.1125 10.9579 54.6748 10.9579C53.1758 10.9579 52.1358 11.9677 52.1358 13.467V22.1266H47.1801V13.4058C47.1801 11.9371 46.2624 10.9579 44.8247 10.9579C43.3257 10.9579 42.2551 11.9677 42.2551 13.467V22.1266H37.2994V6.521H42.2551V7.83677C43.3869 6.73519 44.8247 6.15381 46.5071 6.15381C48.5567 6.15381 50.178 6.97999 51.1569 8.41815C52.4417 6.91879 54.1547 6.15381 56.2349 6.15381Z" fill="black"/>
    <path d="M80.3047 14.4156C80.3047 14.844 80.2741 15.4254 80.1823 15.8232H69.0474C69.5675 17.3225 70.8829 18.2405 72.5959 18.2405C74.1866 18.2405 75.4714 17.4449 76.1444 16.7105L79.4176 19.5563C77.7657 21.3616 75.2879 22.4938 72.443 22.4938C67.4567 22.4938 63.7247 18.9443 63.7247 14.232C63.7247 9.64212 67.3038 6.15381 72.0453 6.15381C76.7562 6.15381 80.3047 9.64212 80.3047 14.4156ZM72.0147 10.3765C70.6076 10.3765 69.4757 11.2945 69.0169 12.7632H75.0126C74.5843 11.2945 73.4219 10.3765 72.0147 10.3765Z" fill="black"/>
    <path d="M91.6564 6.52101H97.1932L90.0045 24.4522C89.0868 26.8083 87.0372 28.3077 84.7123 28.3077C83.2134 28.3077 81.4086 27.6651 80.2155 26.6859L82.1121 22.7998C82.6016 23.2282 83.244 23.5036 83.8864 23.5036C84.5594 23.5036 85.1406 23.1976 85.4771 22.4326L85.7524 21.79L79.6955 6.52101H85.3547L88.5055 15.6702L91.6564 6.52101Z" fill="black"/>
    <g clip-path="url(#clip0_3212_152208)">
        <path d="M98.9531 1.23071H103.576V2.44738H102.025V6.15467H100.504V2.44738H98.9531V1.23071ZM104.248 1.23071H106.249L107.021 4.22564L107.79 1.23071H109.784V6.15379H108.541V2.39977L107.578 6.15379H106.454L105.493 2.39977V6.15379H104.248V1.23071Z" fill="black"/>
    </g>
    <defs>
        <clipPath id="clip0_3212_152208">
            <rect width="10.8308" height="4.92308" fill="white" transform="translate(98.9531 1.23071)"/>
        </clipPath>
    </defs>
</svg>
