<svg width="122" height="28" viewBox="0 0 122 28" fill="none" xmlns="http://www.w3.org/2000/svg">
<path d="M41.4752 8C42.8943 8 44.0385 8.42481 44.908 9.27444C45.7775 10.1241 46.2122 11.2488 46.2122 12.6487V20.9751H41.6721V14.1659C41.6721 13.6076 41.5121 13.1625 41.1922 12.8307C40.8805 12.4909 40.454 12.321 39.9126 12.321C39.3467 12.321 38.8832 12.4949 38.5223 12.8429C38.1696 13.1908 37.9932 13.648 37.9932 14.2144V20.9751H33.4531V8.30344H37.9932V9.23803C38.9529 8.41268 40.1136 8 41.4752 8Z" fill="black"/>
<path d="M54.204 21.2785C52.8916 21.2785 51.7022 20.9912 50.6359 20.4167C49.5695 19.8341 48.7329 19.0371 48.1259 18.0256C47.5271 17.0061 47.2277 15.8773 47.2277 14.6392C47.2277 13.4012 47.5271 12.2765 48.1259 11.265C48.7329 10.2454 49.5695 9.44842 50.6359 8.8739C51.7022 8.2913 52.8916 8 54.204 8C56.1972 8 57.8582 8.6352 59.187 9.9056C60.524 11.176 61.1926 12.7539 61.1926 14.6392C61.1926 16.5246 60.524 18.1025 59.187 19.3729C57.8582 20.6433 56.1972 21.2785 54.204 21.2785ZM52.543 16.29C52.9777 16.7269 53.5314 16.9454 54.204 16.9454C54.8766 16.9454 55.4303 16.7269 55.865 16.29C56.3079 15.853 56.5294 15.3028 56.5294 14.6392C56.5294 13.9757 56.3079 13.4255 55.865 12.9885C55.4303 12.5435 54.8766 12.321 54.204 12.321C53.5396 12.321 52.9859 12.5435 52.543 12.9885C52.1082 13.4255 51.8909 13.9757 51.8909 14.6392C51.8909 15.3028 52.1082 15.853 52.543 16.29Z" fill="black"/>
<path d="M77.7645 8C79.1918 8 80.3319 8.42481 81.185 9.27444C82.0462 10.116 82.4769 11.2407 82.4769 12.6487V20.9751H77.9491V14.0202C77.9491 13.5105 77.8014 13.1018 77.5061 12.7943C77.2108 12.4788 76.8171 12.321 76.325 12.321C75.8082 12.321 75.3858 12.4828 75.0577 12.8065C74.7296 13.1301 74.5655 13.5509 74.5655 14.0688V20.9751H70.0254V14.0202C70.0254 13.5105 69.8778 13.1018 69.5825 12.7943C69.2954 12.4788 68.9058 12.321 68.4136 12.321C67.8968 12.321 67.4744 12.4828 67.1463 12.8065C66.8182 13.1301 66.6542 13.5509 66.6542 14.0688V20.9751H62.114V8.30344H66.6542V9.23803C67.5646 8.41268 68.672 8 69.9762 8C71.6003 8 72.8348 8.57047 73.6796 9.7114C74.7378 8.57047 76.0994 8 77.7645 8Z" fill="black"/>
<path d="M96.9684 14.7363C96.9684 15.2218 96.9356 15.6102 96.87 15.9016H88.1465C88.3516 16.4032 88.6674 16.7957 89.0939 17.0789C89.5287 17.354 90.0372 17.4916 90.6196 17.4916C91.161 17.4916 91.6572 17.3823 92.1084 17.1639C92.5595 16.9454 92.9286 16.6905 93.2157 16.3992L96.1933 18.9845C95.4878 19.7047 94.643 20.267 93.6587 20.6716C92.6744 21.0762 91.6203 21.2785 90.4966 21.2785C88.4295 21.2785 86.707 20.6392 85.329 19.3608C83.9509 18.0742 83.2619 16.4761 83.2619 14.5664C83.2619 12.7053 83.9222 11.1477 85.2428 9.89346C86.5635 8.63115 88.204 8 90.1644 8C92.1084 8 93.7284 8.63924 95.0244 9.91773C96.3204 11.1881 96.9684 12.7943 96.9684 14.7363ZM91.3455 12.1875C90.9846 11.9123 90.5745 11.7748 90.1152 11.7748C89.6558 11.7748 89.2498 11.9123 88.8971 12.1875C88.5444 12.4626 88.2778 12.8469 88.0973 13.3405H92.133C91.9689 12.8469 91.7065 12.4626 91.3455 12.1875Z" fill="black"/>
<path d="M105.564 8.30344H110.633L104.961 22.6622C104.551 23.6736 103.928 24.4828 103.091 25.0897C102.263 25.6966 101.34 26 100.323 26C99.6747 26 98.9939 25.8746 98.2803 25.6237C97.5749 25.381 96.972 25.0573 96.4716 24.6527L98.1819 21.145C98.5838 21.4929 99.0431 21.6669 99.5599 21.6669C100.15 21.6669 100.565 21.3958 100.803 20.8537L100.876 20.6716L96.0164 8.30344H101.184L103.374 15.0034L105.564 8.30344Z" fill="black"/>
<g clip-path="url(#clip0_13986_96964)">
<path d="M112.43 4H116.186V4.98854H114.925V8.00072H113.689V4.98854H112.43V4ZM116.732 4H118.357L118.985 6.43338L119.61 4H121.23V8H120.22V4.94986L119.437 8H118.524L117.743 4.94986V8H116.732V4Z" fill="black"/>
</g>
<path d="M11.2566 15.4256C10.4974 14.6813 9.27865 14.6934 8.53437 15.4526C7.79009 16.2117 7.80216 17.4305 8.56132 18.1748C10.1529 19.7351 12.0498 20.5452 14.0242 20.5452C16.1729 20.5452 18.0793 19.5079 19.4381 18.1738C20.1967 17.429 20.2079 16.2102 19.4631 15.4516C18.7183 14.6929 17.4995 14.6818 16.7408 15.4266C15.9049 16.2473 14.9181 16.6952 14.0242 16.6952C13.1652 16.6952 12.209 16.3593 11.2566 15.4256Z" fill="black"/>
<path fill-rule="evenodd" clip-rule="evenodd" d="M13.9743 1.5752C7.79133 1.5752 1.57422 6.58786 1.57422 13.9753C1.57422 20.8715 7.14687 26.4252 13.9743 26.4252C21.1042 26.4252 26.3993 20.5432 26.3993 14.0002C26.3993 7.47381 21.2549 1.5752 13.9743 1.5752ZM5.42422 13.9753C5.42422 8.94222 9.68217 5.4252 13.9743 5.4252C18.9844 5.4252 22.5493 9.45295 22.5493 14.0002C22.5493 18.5308 18.8658 22.5752 13.9743 22.5752C9.27912 22.5752 5.42422 18.7512 5.42422 13.9753Z" fill="black"/>
<defs>
<clipPath id="clip0_13986_96964">
<rect width="8.8" height="4" fill="white" transform="translate(112.43 4)"/>
</clipPath>
</defs>
</svg>
