<svg width="252" height="100" viewBox="0 0 252 100" fill="none" xmlns="http://www.w3.org/2000/svg">
    <path
        d="M5.43697 74.6847V60.7031L35.8269 12.8182H48.2509V31.7983H41.0428L23.258 59.9787V60.5582H67.2672V74.6847H5.43697ZM41.2601 87V70.4105L41.6223 64.2891V12.8182H58.3929V87H41.2601Z"
        fill="black" fill-opacity="0.3" />
    <path
        d="M116.201 67.8378C113.49 70.496 109.137 70.4529 106.479 67.7415C103.821 65.0302 103.864 60.6775 106.575 58.0193C112.259 52.4467 119.034 49.5536 126.085 49.5536C133.759 49.5536 140.568 53.258 145.421 58.0228C148.13 60.6829 148.17 65.0357 145.51 67.7451C142.85 70.4545 138.497 70.4944 135.788 67.8343C132.802 64.9032 129.278 63.3036 126.085 63.3036C123.018 63.3036 119.602 64.503 116.201 67.8378Z"
        fill="black" fill-opacity="0.3" />
    <path fill-rule="evenodd" clip-rule="evenodd"
        d="M125.907 5.625C103.825 5.625 81.6211 23.5274 81.6211 49.9109C81.6211 74.5405 101.523 94.375 125.907 94.375C151.371 94.375 170.282 73.368 170.282 50C170.282 26.6915 151.909 5.625 125.907 5.625ZM95.3711 49.9109C95.3711 31.9358 110.578 19.375 125.907 19.375C143.8 19.375 156.532 33.7598 156.532 50C156.532 66.1807 143.377 80.625 125.907 80.625C109.139 80.625 95.3711 66.9678 95.3711 49.9109Z"
        fill="black" fill-opacity="0.3" />
    <path
        d="M185.367 74.6847V60.7031L215.757 12.8182H228.181V31.7983H220.972L203.188 59.9787V60.5582H247.197V74.6847H185.367ZM221.19 87V70.4105L221.552 64.2891V12.8182H238.323V87H221.19Z"
        fill="black" fill-opacity="0.3" />
</svg>